<?xml version="1.0" encoding="iso-8859-1"?>
<!-- Generator: Adobe Illustrator 21.0.0, SVG Export Plug-In . SVG Version: 6.00 Build 0)  -->
<svg version="1.1" id="Layer_1" xmlns="http://www.w3.org/2000/svg" xmlns:xlink="http://www.w3.org/1999/xlink" x="0px" y="0px"
	 viewBox="0 0 200 200" style="enable-background:new 0 0 200 200;" xml:space="preserve">
<style type="text/css">
	.st0{fill:#94ACBA;}
	.st1{fill:none;stroke:#2A3D4A;stroke-width:2;stroke-linecap:round;stroke-miterlimit:10;}
	.st2{fill:none;stroke:#809CAD;stroke-width:1.5;stroke-linecap:round;stroke-linejoin:round;stroke-miterlimit:10;}
	.st3{fill:none;stroke:#1884D6;stroke-width:1.5;stroke-linecap:round;stroke-linejoin:round;stroke-miterlimit:10;}
	.st4{fill:#FFFFFF;}
	.st5{fill:#EDF0F2;}
	.st6{fill:#E8EBED;}
	.st7{fill:#EBF3F7;}
	.st8{fill:#E1E5E8;}
	.st9{fill:#E5EAED;}
	.st10{fill:none;stroke:#FFFFFF;stroke-miterlimit:10;}
	.st11{fill:none;stroke:#7B8185;stroke-width:1.4;stroke-miterlimit:10;}
	.st12{fill:#66B5F2;}
	.st13{fill:#4D96D4;}
	.st14{fill:#418FDE;}
	.st15{fill:none;stroke:#418FDE;stroke-miterlimit:10;}
	.st16{fill:#4D9AE8;}
	.st17{fill:#589FE8;}
	.st18{fill:none;stroke:#FFC25C;stroke-width:2;stroke-miterlimit:10;}
	.st19{fill:none;stroke:#FFFFFF;stroke-width:1.5;stroke-miterlimit:10;}
	.st20{fill:#1CACEF;}
	.st21{fill:#2479BD;}
	.st22{fill:none;stroke:#1D6096;stroke-width:1.5;stroke-linecap:round;stroke-linejoin:round;stroke-miterlimit:10;}
	.st23{fill:none;stroke:#1D6096;stroke-width:1.5;stroke-linejoin:round;stroke-miterlimit:10;}
	.st24{fill:none;stroke:#1D6096;stroke-width:1.5;stroke-miterlimit:10;}
	.st25{fill:#1D6096;}
	.st26{fill:#F0E7E6;}
	.st27{fill:#DFD6D6;}
	.st28{fill:#E6DDDD;}
	.st29{fill:#ADB1B9;}
	.st30{fill:none;stroke:#B4C5CF;stroke-width:1.5;stroke-miterlimit:10;}
	.st31{fill:none;stroke:#11A7ED;stroke-width:2.1377;stroke-miterlimit:10;}
</style>
<g id="more-arrow_x60_8x5">
	<polygon class="st0" points="0,0 3.603,4.883 7.207,0 	"/>
</g>
<g id="hamburg-menu_x60_25x12">
	<line class="st1" x1="1" y1="1" x2="24" y2="1"/>
	<line class="st1" x1="1" y1="6" x2="24" y2="6"/>
	<line class="st1" x1="1" y1="11" x2="24" y2="11"/>
</g>
<g id="map_x60_37x31">
	<polyline class="st2" points="12.85,11.85 0.75,17.85 4.05,22.95 7.45,21.25 10.95,26.35 14.35,24.75 17.75,29.85 35.35,21.05 
		31.95,15.95 28.65,17.65 25.05,12.45 21.85,14.05 	"/>
	<line class="st2" x1="14.45" y1="24.75" x2="28.55" y2="17.65"/>
	<line class="st2" x1="7.45" y1="21.25" x2="16.15" y2="16.95"/>
	<path class="st2" d="M24.35,7.05c0,5.6-6.3,11.9-6.3,11.9s-6.3-6.3-6.3-11.9c0-3.5,2.8-6.3,6.3-6.3S24.35,3.55,24.35,7.05z"/>
	<circle class="st2" cx="18.05" cy="7.05" r="2.6"/>
</g>
<g id="right-arrow_x60_8x15">
	<polyline class="st3" points="0.75,0.75 7.089,7.089 0.75,13.428 	"/>
</g>
<g id="framework-map_x60_175x125">
	<polygon class="st4" points="23.83,43.904 101.414,83.947 174.343,46.572 96.755,6.528 	"/>
	<polygon class="st5" points="101.414,84.043 23.83,44.001 23.83,55.657 101.414,95.699 	"/>
	<polygon class="st6" points="101.414,84.043 174.343,46.572 174.343,58.228 101.414,95.699 	"/>
	<polygon class="st7" points="86.738,69.191 99.559,75.985 124.895,62.704 112.152,55.86 	"/>
	<polygon class="st8" points="124.848,62.702 112.152,55.859 112.152,64.331 117.291,66.477 	"/>
	<polyline class="st9" points="112.152,55.86 112.152,64.333 95.005,73.574 86.738,69.191 	"/>
	<polygon class="st7" points="115.843,53.795 128.664,60.589 154,47.308 141.257,40.464 	"/>
	<polygon class="st8" points="153.952,47.306 141.257,40.463 141.257,48.935 146.395,51.081 	"/>
	<polyline class="st9" points="141.257,40.464 141.257,48.937 124.11,58.178 115.843,53.795 	"/>
	<polygon class="st7" points="69.994,60.395 82.816,67.19 108.152,53.909 95.409,47.065 	"/>
	<polygon class="st8" points="108.104,53.907 95.409,47.063 95.409,55.536 100.547,57.682 	"/>
	<polyline class="st9" points="95.409,47.065 95.409,55.538 78.262,64.778 69.994,60.395 	"/>
	<polygon class="st7" points="54.338,52.038 67.159,58.833 92.495,45.552 79.752,38.708 	"/>
	<polygon class="st8" points="92.447,45.55 79.752,38.707 79.752,47.179 84.89,49.325 	"/>
	<polygon class="st7" points="38.681,43.682 51.502,50.477 76.838,37.195 64.095,30.352 	"/>
	<polygon class="st8" points="76.79,37.193 64.095,30.35 64.095,38.823 69.233,40.969 	"/>
	<polyline class="st9" points="64.095,30.352 64.095,38.824 46.948,48.065 38.681,43.682 	"/>
	<polyline class="st9" points="79.752,38.708 79.752,47.181 62.605,56.422 54.338,52.038 	"/>
	<polygon class="st4" points="105.502,6.318 80.987,19.198 68.722,12.875 93.244,0 	"/>
	<polygon class="st5" points="105.502,16.017 105.502,6.319 80.987,19.198 80.986,28.588 	"/>
	<polygon class="st8" points="80.987,19.198 68.722,12.875 68.722,22.318 80.986,28.588 	"/>
	<polygon class="st4" points="121.06,14.463 96.545,27.341 84.28,21.019 108.802,8.144 	"/>
	<polygon class="st5" points="121.06,24.161 121.06,14.463 96.545,27.341 96.544,36.732 	"/>
	<polygon class="st8" points="96.545,27.341 84.28,21.019 84.28,30.461 96.544,36.732 	"/>
	<polygon class="st4" points="136.616,22.608 112.103,35.485 99.837,29.162 124.359,16.289 	"/>
	<polygon class="st5" points="136.616,32.305 136.616,22.608 112.103,35.485 112.101,44.877 	"/>
	<polygon class="st8" points="112.103,35.485 99.837,29.162 99.837,38.607 112.101,44.877 	"/>
	<polygon class="st4" points="153.159,30.551 128.645,43.429 116.379,37.105 140.902,24.233 	"/>
	<polygon class="st5" points="153.159,40.248 153.159,30.551 128.645,43.429 128.644,52.821 	"/>
	<polygon class="st8" points="128.645,43.429 116.379,37.105 116.379,46.55 128.644,52.821 	"/>
	<g id="box4_x3E_box">
		<polygon id="_x3E_t_3_" class="st4" points="76.514,21.469 52,34.348 39.735,28.025 64.258,15.152 		"/>
		<polygon id="_x3E_r_3_" class="st5" points="76.514,31.167 76.514,21.469 52,34.348 51.999,43.739 		"/>
		<polygon id="_x3E_l_3_" class="st8" points="52,34.348 39.735,28.025 39.735,37.468 51.999,43.739 		"/>
		<polyline id="_x3E_line_3_" class="st10" points="64.815,20.912 0.715,54.634 0.715,66.516 		"/>
	</g>
	<g id="box3_x3E_box">
		<polygon id="_x3E_t_2_" class="st4" points="92.072,29.614 67.558,42.493 55.293,36.171 79.815,23.297 		"/>
		<polygon id="_x3E_r_2_" class="st5" points="92.072,39.312 92.072,29.614 67.558,42.493 67.557,51.884 		"/>
		<polygon id="_x3E_l_2_" class="st8" points="67.558,42.493 55.293,36.171 55.293,45.613 67.557,51.884 		"/>
		<polyline id="_x3E_line_2_" class="st10" points="78.867,30.519 0.715,71.634 0.715,83.516 		"/>
	</g>
	<g id="box2_x3E_box">
		<polygon id="_x3E_t_1_" class="st4" points="107.63,37.757 83.115,50.636 70.851,44.314 95.373,31.44 		"/>
		<polygon id="_x3E_r_1_" class="st5" points="107.63,47.457 107.63,37.758 83.115,50.636 83.115,60.029 		"/>
		<polygon id="_x3E_l_1_" class="st8" points="83.115,50.636 70.851,44.314 70.851,53.758 83.115,60.029 		"/>
		<polyline id="_x3E_line_1_" class="st10" points="93.469,39.837 0.715,88.634 0.715,100.516 		"/>
	</g>
	<g id="box1_x3E_box">
		<polygon id="_x3E_t" class="st4" points="124.172,45.7 99.657,58.58 87.393,52.257 111.915,39.384 		"/>
		<polygon id="_x3E_r" class="st5" points="124.172,55.4 124.172,45.702 99.657,58.58 99.657,67.973 		"/>
		<polygon id="_x3E_l" class="st8" points="99.657,58.58 87.393,52.257 87.393,61.702 99.657,67.973 		"/>
		<polyline id="_x3E_line" class="st10" points="109.322,47.81 0.5,105.061 0.5,124.817 		"/>
	</g>
</g>
<g id="card-x_x60_17x17">
	<line class="st11" x1="0.495" y1="0.495" x2="15.948" y2="15.948"/>
	<line class="st11" x1="15.948" y1="0.495" x2="0.495" y2="15.948"/>
</g>
<g id="beta-tag_x60_42x19">
	<rect class="st12" width="41.234" height="18.625"/>
	<polygon class="st13" points="41.234,15.207 31.708,5.68 29.179,8.072 26.787,5.68 21.47,6.93 23.991,9.45 23.737,9.65 
		19.767,5.68 15.863,6.186 15.077,8.912 12.351,6.186 8.16,6.016 7.42,12.346 13.59,18.516 41.234,18.616 	"/>
	<path class="st4" d="M7.42,5.68h3.508c1.27,0,1.919,0.81,1.919,1.699c0,0.839-0.52,1.399-1.149,1.529
		c0.709,0.11,1.279,0.799,1.279,1.639c0,0.999-0.67,1.799-1.939,1.799H7.42V5.68z M10.618,8.359c0.479,0,0.78-0.31,0.78-0.74
		c0-0.41-0.3-0.729-0.78-0.729H8.84v1.469H10.618z M10.668,11.137c0.54,0,0.86-0.31,0.86-0.79c0-0.419-0.3-0.779-0.86-0.779H8.84
		v1.569H10.668z"/>
	<path class="st4" d="M15.05,5.68h4.717V6.9h-3.298v1.449h3.228v1.22h-3.228v1.549h3.298v1.229H15.05V5.68z"/>
	<path class="st4" d="M23.419,6.93H21.47V5.68h5.317v1.25h-1.939v5.417h-1.429V6.93z"/>
	<path class="st4" d="M32.307,11.197h-2.979l-0.419,1.149H27.35l2.579-6.667h1.779l2.568,6.667h-1.549L32.307,11.197z M29.709,9.968
		h2.209l-1.1-3.058L29.709,9.968z"/>
</g>
<g id="docs-hand_x60_131x82">
	<path class="st14" d="M76.642,14.662c-1.51,0-2.734,1.224-2.734,2.734v22.565h-3.136V8.703c0-1.805-1.463-3.268-3.268-3.268
		c-1.805,0-3.268,1.463-3.268,3.268v31.259H61.1V3.268C61.1,1.463,59.637,0,57.832,0c-1.805,0-3.268,1.463-3.268,3.268v36.693
		h-3.136V8.703c0-1.805-1.463-3.268-3.268-3.268c-1.805,0-3.268,1.463-3.268,3.268v31.259v7.559v16.919
		c0.012,9.49,7.851,17.179,17.343,17.179s17.13-7.689,17.142-17.179h0.001V48.697v-8.736V17.396
		C79.376,15.886,78.152,14.662,76.642,14.662z"/>
	<path class="st14" d="M42.626,64.439V35.218c0-1.805-1.463-3.268-3.268-3.268c-1.805,0-3.268,1.463-3.268,3.268v29.221
		c0.012,9.49,7.708,17.179,17.201,17.179h6.452C50.249,81.618,42.638,73.928,42.626,64.439z"/>
	<polyline class="st15" points="71.045,60.204 99.3,31.95 107.268,31.95 	"/>
	<polyline class="st15" points="39.825,58.365 28.507,47.047 15.536,47.047 	"/>
	<circle class="st15" cx="111.05" cy="31.95" r="3.782"/>
	<line class="st15" x1="99.774" y1="16.215" x2="123.375" y2="16.215"/>
	<line class="st15" x1="99.774" y1="19.215" x2="123.375" y2="19.215"/>
	<line class="st15" x1="99.774" y1="22.215" x2="123.375" y2="22.215"/>
	<line class="st15" x1="99.774" y1="65.444" x2="123.375" y2="65.444"/>
	<line class="st15" x1="99.774" y1="68.444" x2="123.375" y2="68.444"/>
	<line class="st15" x1="99.774" y1="71.445" x2="123.375" y2="71.445"/>
	<line class="st15" x1="99.654" y1="45.886" x2="112.784" y2="45.886"/>
	<line class="st15" x1="99.654" y1="48.886" x2="112.784" y2="48.886"/>
	<line class="st15" x1="99.654" y1="51.886" x2="112.784" y2="51.886"/>
	<line class="st15" x1="117.235" y1="45.886" x2="130.365" y2="45.886"/>
	<line class="st15" x1="117.235" y1="48.886" x2="130.365" y2="48.886"/>
	<line class="st15" x1="117.235" y1="51.886" x2="130.365" y2="51.886"/>
	<line class="st15" x1="47.988" y1="10.877" x2="26.2" y2="10.877"/>
	<polygon class="st15" points="5.756,43.417 10.646,51.886 0.866,51.886 	"/>
	<circle class="st4" cx="62.124" cy="68.436" r="1.839"/>
	<circle class="st4" cx="39.067" cy="57.607" r="1.839"/>
	<circle class="st4" cx="47.988" cy="10.877" r="1.839"/>
	
		<rect x="15.857" y="6.691" transform="matrix(0.7071 0.7071 -0.7071 0.7071 13.6596 -11.0278)" class="st15" width="8.568" height="8.568"/>
</g>
<g id="services-bundle_x60_70x81">
	<polygon class="st16" points="26.214,5.046 34.953,10.091 34.953,20.181 26.214,15.135 	"/>
	<polygon class="st14" points="43.691,5.046 34.953,10.091 34.953,20.181 43.691,15.135 	"/>
	<polygon class="st17" points="34.953,0 43.691,5.046 34.953,10.091 26.214,5.046 	"/>
	<polygon class="st16" points="39.322,12.641 48.06,17.687 48.06,27.777 39.322,22.731 	"/>
	<polygon class="st14" points="56.798,12.641 48.06,17.687 48.06,27.777 56.798,22.731 	"/>
	<polygon class="st17" points="48.06,7.596 56.798,12.641 48.06,17.687 39.322,12.641 	"/>
	<polygon class="st16" points="13.107,12.614 21.845,17.659 21.845,27.749 13.107,22.704 	"/>
	<polygon class="st14" points="30.584,12.614 21.845,17.659 21.845,27.749 30.584,22.704 	"/>
	<polygon class="st17" points="21.845,7.568 30.584,12.614 21.845,17.659 13.107,12.614 	"/>
	<polygon class="st16" points="26.214,20.21 34.953,25.255 34.953,35.345 26.214,30.299 	"/>
	<polygon class="st14" points="43.691,20.21 34.953,25.255 34.953,35.345 43.691,30.299 	"/>
	<polygon class="st17" points="34.953,15.164 43.691,20.21 34.953,25.255 26.214,20.21 	"/>
	<polygon class="st16" points="0,50.418 8.738,55.463 8.738,65.553 0,60.508 	"/>
	<polygon class="st14" points="17.476,50.418 8.738,55.463 8.738,65.553 17.476,60.508 	"/>
	<polygon class="st17" points="8.738,45.372 17.476,50.418 8.738,55.463 0,50.418 	"/>
	<polygon class="st16" points="0,35.3 8.738,40.345 8.738,50.435 0,45.39 	"/>
	<polygon class="st14" points="17.476,35.3 8.738,40.345 8.738,50.435 17.476,45.39 	"/>
	<polygon class="st17" points="8.738,30.254 17.476,35.3 8.738,40.345 0,35.3 	"/>
	<polygon class="st16" points="0,20.182 8.738,25.228 8.738,35.318 0,30.272 	"/>
	<polygon class="st14" points="17.476,20.182 8.738,25.228 8.738,35.318 17.476,30.272 	"/>
	<polygon class="st17" points="8.738,15.137 17.476,20.182 8.738,25.228 0,20.182 	"/>
	<polygon class="st16" points="13.107,58.013 21.845,63.059 21.845,73.149 13.107,68.103 	"/>
	<polygon class="st14" points="30.584,58.013 21.845,63.059 21.845,73.149 30.584,68.103 	"/>
	<polygon class="st17" points="21.845,52.968 30.584,58.013 21.845,63.059 13.107,58.013 	"/>
	<polygon class="st16" points="13.107,42.896 21.845,47.941 21.845,58.031 13.107,52.985 	"/>
	<polygon class="st14" points="30.584,42.896 21.845,47.941 21.845,58.031 30.584,52.985 	"/>
	<polygon class="st17" points="21.845,37.85 30.584,42.896 21.845,47.941 13.107,42.896 	"/>
	<polygon class="st16" points="13.107,27.778 21.845,32.823 21.845,42.913 13.107,37.868 	"/>
	<polygon class="st14" points="30.584,27.778 21.845,32.823 21.845,42.913 30.584,37.868 	"/>
	<polygon class="st17" points="21.845,22.732 30.584,27.778 21.845,32.823 13.107,27.778 	"/>
	<polygon class="st16" points="69.905,50.418 61.167,55.463 61.167,65.553 69.905,60.508 	"/>
	<polygon class="st14" points="52.429,50.418 61.167,55.463 61.167,65.553 52.429,60.508 	"/>
	<polygon class="st17" points="61.167,45.372 52.429,50.418 61.167,55.463 69.905,50.418 	"/>
	<polygon class="st16" points="69.905,35.3 61.167,40.345 61.167,50.435 69.905,45.39 	"/>
	<polygon class="st14" points="52.429,35.3 61.167,40.345 61.167,50.435 52.429,45.39 	"/>
	<polygon class="st17" points="61.167,30.254 52.429,35.3 61.167,40.345 69.905,35.3 	"/>
	<polygon class="st16" points="69.905,20.182 61.167,25.228 61.167,35.318 69.905,30.272 	"/>
	<polygon class="st14" points="52.429,20.182 61.167,25.228 61.167,35.318 52.429,30.272 	"/>
	<polygon class="st17" points="61.167,15.137 52.429,20.182 61.167,25.228 69.905,20.182 	"/>
	<polygon class="st16" points="56.798,58.013 48.06,63.059 48.06,73.149 56.798,68.103 	"/>
	<polygon class="st14" points="39.322,58.013 48.06,63.059 48.06,73.149 39.322,68.103 	"/>
	<polygon class="st17" points="48.06,52.968 39.322,58.013 48.06,63.059 56.798,58.013 	"/>
	<polygon class="st16" points="56.798,42.896 48.06,47.941 48.06,58.031 56.798,52.985 	"/>
	<polygon class="st14" points="39.322,42.896 48.06,47.941 48.06,58.031 39.322,52.985 	"/>
	<polygon class="st17" points="48.06,37.85 39.322,42.896 48.06,47.941 56.798,42.896 	"/>
	<polygon class="st16" points="56.798,27.778 48.06,32.823 48.06,42.913 56.798,37.868 	"/>
	<polygon class="st14" points="39.322,27.778 48.06,32.823 48.06,42.913 39.322,37.868 	"/>
	<polygon class="st17" points="48.06,22.732 39.322,27.778 48.06,32.823 56.798,27.778 	"/>
	<polygon class="st16" points="26.214,65.609 34.953,70.654 34.953,80.744 26.214,75.699 	"/>
	<polygon class="st14" points="43.691,65.609 34.953,70.654 34.953,80.744 43.691,75.699 	"/>
	<polygon class="st17" points="34.953,60.563 43.691,65.609 34.953,70.654 26.214,65.609 	"/>
	<polygon class="st16" points="26.214,50.491 34.953,55.537 34.953,65.627 26.214,60.581 	"/>
	<polygon class="st14" points="43.691,50.491 34.953,55.537 34.953,65.627 43.691,60.581 	"/>
	<polygon class="st17" points="34.953,45.446 43.691,50.491 34.953,55.537 26.214,50.491 	"/>
	<polygon class="st16" points="26.214,35.373 34.953,40.419 34.953,50.509 26.214,45.463 	"/>
	<polygon class="st14" points="43.691,35.373 34.953,40.419 34.953,50.509 43.691,45.463 	"/>
	<polygon class="st17" points="34.953,30.328 43.691,35.373 34.953,40.419 26.214,35.373 	"/>
</g>
<g id="from-scratch_x60_34x31">
	<path class="st18" d="M23.199,21.727c0,3.76-2.687,7.308-6.447,7.308s-6.447-3.547-6.447-7.308s2.687-10.336,6.447-10.336
		S23.199,17.966,23.199,21.727z"/>
	<line class="st18" x1="16.752" y1="8.479" x2="16.752" y2="0"/>
	<line class="st18" x1="21.622" y1="9.537" x2="24.07" y2="4.168"/>
	<line class="st18" x1="25.176" y1="12.9" x2="32.015" y2="6.962"/>
	<line class="st18" x1="26.805" y1="17.245" x2="33.372" y2="15.307"/>
	<line class="st18" x1="11.883" y1="9.537" x2="9.434" y2="4.168"/>
	<line class="st18" x1="8.521" y1="13.066" x2="1.489" y2="6.962"/>
	<line class="st18" x1="7.141" y1="17.376" x2="0.283" y2="15.351"/>
</g>
<g id="go-arrow_x60_14x11">
	<line class="st19" x1="0" y1="5.077" x2="11.96" y2="5.077"/>
	<polyline class="st19" points="7.646,0.53 12.192,5.077 7.646,9.624 	"/>
</g>
<g id="snippet-file_x60_56x76">
	<polygon class="st20" points="18.618,0 0.196,18.775 0.196,75 55.196,75 55.196,0 	"/>
	<polygon class="st21" points="0,18.881 18.513,18.881 18.513,0.263 	"/>
	<polyline class="st21" points="16.051,45.333 44.419,75.197 55.062,75.197 55.169,48.234 39.012,32.077 	"/>
	<polygon class="st4" points="16.051,32.077 27.531,25.449 39.012,32.077 39.012,45.333 27.531,51.962 16.051,45.333 	"/>
</g>
<g id="copy-snippet_x60_17x18">
	<line class="st22" x1="12.745" y1="3.252" x2="12.745" y2="8.299"/>
	<polyline class="st22" points="12.745,12.996 12.745,16.417 0.75,16.417 0.75,3.252 	"/>
	<line class="st22" x1="16.062" y1="10.572" x2="4.742" y2="10.572"/>
	<polyline class="st22" points="7.467,13.483 4.555,10.572 7.467,7.66 	"/>
	<polygon class="st23" points="8.461,2.361 7.947,0.75 5.277,0.75 4.763,2.361 2.739,2.361 3.832,5.263 9.663,5.263 10.756,2.361 	
		"/>
</g>
<g id="view-snippet_x60_22x9">
	<path class="st24" d="M20.888,5.816C18.565,2.745,14.891,0.75,10.743,0.75c-4.148,0-7.821,1.995-10.144,5.066"/>
	<path class="st24" d="M4.635,8.003C3.055,7.132,1.68,5.935,0.598,4.504"/>
	<path class="st24" d="M20.888,4.504C19.727,6.04,18.227,7.306,16.5,8.189"/>
	<path class="st24" d="M15.536,2.085c0,2.648-2.146,4.794-4.793,4.794S5.95,4.732,5.95,2.085"/>
	<circle class="st25" cx="10.743" cy="2.603" r="1.863"/>
</g>
<g id="blue-logo_x60_71x82">
	<polygon class="st12" points="70.681,61.211 35.34,81.615 0,61.211 0,20.404 35.34,0 70.681,20.404 	"/>
	<polyline class="st13" points="20.066,58.292 40.639,78.533 70.681,61.211 70.681,43.445 49.973,22.737 35.34,22.737 35.34,48.28 	
		"/>
	<polygon class="st4" points="49.973,56.239 35.212,63.812 20.066,56.11 34.827,48.409 	"/>
	<polygon class="st26" points="43.683,53.03 34.955,57.522 26.099,52.901 34.827,48.409 	"/>
	<polygon class="st27" points="35.212,63.812 49.973,56.239 49.973,58.421 35.212,65.994 	"/>
	<polygon class="st28" points="35.212,63.812 20.066,56.11 20.066,58.292 35.212,65.994 	"/>
	<polygon class="st27" points="35.34,51.489 47.406,45.328 47.406,47.125 35.34,53.286 	"/>
	<polygon class="st28" points="35.34,51.489 23.275,45.328 23.275,47.125 35.34,53.286 	"/>
	<polygon class="st4" points="47.406,45.328 35.34,51.489 23.275,45.328 35.34,39.167 	"/>
	<polygon class="st26" points="44.197,43.66 35.34,48.28 26.484,43.66 35.34,39.167 	"/>
	<polygon class="st27" points="35.34,41.863 49.973,34.29 49.973,36.6 35.34,44.045 	"/>
	<polygon class="st28" points="35.34,41.863 20.708,34.29 20.708,36.6 35.34,44.045 	"/>
	<polygon class="st4" points="49.973,34.29 35.34,41.863 20.708,34.29 35.34,26.845 	"/>
	<polygon class="st26" points="46.122,32.364 35.34,37.884 24.558,32.364 35.34,26.845 	"/>
	<polygon class="st4" points="49.973,22.737 35.212,30.31 20.451,22.737 35.212,15.164 	"/>
	<polygon class="st27" points="35.212,30.31 49.973,22.737 49.973,25.048 35.212,32.621 	"/>
	<polygon class="st28" points="35.212,30.31 20.451,22.737 20.451,25.048 35.212,32.621 	"/>
</g>
<g id="github-plus_x60_22x83">
	<rect x="5.255" class="st4" width="10.91" height="82.6"/>
	<path class="st29" d="M12.31,53.971H9.111V43.794H0v-2.907h9.111v-9.838h3.198v9.838h9.111v2.907H12.31V53.971z"/>
</g>
<g id="basic-language_x60_74x85">
	<polygon class="st30" points="72.28,62.816 36.51,83.466 0.75,62.816 0.75,21.516 36.51,0.866 72.28,21.516 	"/>
	<polygon class="st30" points="44.567,46.815 36.514,51.465 28.463,46.815 28.463,37.517 36.514,32.867 44.567,37.517 	"/>
	<line class="st30" x1="40.328" y1="21.496" x2="50.117" y2="27.147"/>
	<line class="st30" x1="52.489" y1="55.842" x2="42.714" y2="61.517"/>
	<line class="st30" x1="32.655" y1="62.836" x2="22.859" y2="57.199"/>
	<circle class="st30" cx="36.561" cy="19.14" r="4.423"/>
	<circle class="st30" cx="36.569" cy="64.897" r="4.423"/>
	<circle class="st30" cx="56.293" cy="30.775" r="4.423"/>
	<circle class="st30" cx="56.293" cy="53.608" r="4.423"/>
	<circle class="st30" cx="16.717" cy="30.775" r="4.423"/>
	<circle class="st30" cx="16.59" cy="53.608" r="4.423"/>
	<line class="st30" x1="56.308" y1="35.154" x2="56.356" y2="46.456"/>
	<line class="st30" x1="16.646" y1="49.184" x2="16.693" y2="37.882"/>
	<line class="st30" x1="20.497" y1="28.54" x2="30.295" y2="22.907"/>
</g>
<g id="heart_x60_29x28">
	<polygon class="st31" points="14.422,6.853 21.882,1.44 27.775,5.616 27.775,15.776 14.422,25.859 1.069,15.776 1.069,5.616 
		6.807,1.327 	"/>
	<polyline class="st31" points="14.345,25.859 14.345,15.574 1.672,6.309 	"/>
	<polyline class="st31" points="20.653,21.29 20.653,11.005 6.751,1.234 	"/>
	<line class="st31" x1="14.345" y1="15.574" x2="27.775" y2="5.616"/>
</g>
</svg>
