<?xml version="1.0" encoding="iso-8859-1"?>
<!-- Generator: Adobe Illustrator 20.1.0, SVG Export Plug-In . SVG Version: 6.00 Build 0)  -->
<svg version="1.1" id="Layer_1" xmlns="http://www.w3.org/2000/svg" xmlns:xlink="http://www.w3.org/1999/xlink" x="0px" y="0px"
	 viewBox="0 0 200 200" style="enable-background:new 0 0 200 200;" xml:space="preserve">
<style type="text/css">
	.st0{fill:#405C70;}
	.st1{fill:#2F4352;}
	.st2{fill:#1C2830;}
	.st3{fill:#19242B;}
	.st4{fill:#0A848F;}
	.st5{fill:#076870;}
	.st6{fill:#4EBFC9;}
	.st7{opacity:0.42;fill:#0B194F;}
	.st8{fill:#43C494;}
	.st9{fill:#4AAA88;}
	.st10{fill:#7FE0BF;}
	.st11{opacity:0.76;fill:#43C4A6;}
	.st12{fill:#FDE5A6;}
	.st13{fill:#E9D399;}
	.st14{fill:#D9BB6F;}
	.st15{fill:#94ACBA;}
	.st16{fill:none;stroke:#2A3D4A;stroke-width:2;stroke-linecap:round;stroke-miterlimit:10;}
	.st17{fill:none;stroke:#809CAD;stroke-width:1.5;stroke-linecap:round;stroke-linejoin:round;stroke-miterlimit:10;}
	.st18{fill:none;stroke:#1884D6;stroke-width:1.5;stroke-linecap:round;stroke-linejoin:round;stroke-miterlimit:10;}
	.st19{fill:#FFFFFF;}
	.st20{fill:#EDF0F2;}
	.st21{fill:#E8EBED;}
	.st22{fill:#EBF3F7;}
	.st23{fill:#E1E5E8;}
	.st24{fill:#E5EAED;}
	.st25{fill:none;stroke:#FFFFFF;stroke-miterlimit:10;}
	.st26{fill:none;stroke:#7B8185;stroke-width:1.4;stroke-miterlimit:10;}
	.st27{fill:#66B5F2;}
	.st28{fill:#4D96D4;}
</style>
<g id="logo_x60_19x33">
	<polygon class="st0" points="18.959,25.987 9.591,30.815 0,25.901 9.368,21.072 	"/>
	<polygon class="st1" points="15.003,23.96 9.498,26.797 3.863,23.91 9.368,21.072 	"/>
	<polygon class="st2" points="9.591,30.828 18.959,26 18.959,27.378 9.591,32.207 	"/>
	<polygon class="st3" points="9.591,30.828 0,25.901 0,27.279 9.591,32.207 	"/>
	<polygon class="st4" points="9.688,23.017 17.325,19.079 17.325,20.228 9.688,24.165 	"/>
	<polygon class="st5" points="9.688,23.017 2.049,19.079 2.049,20.228 9.688,24.165 	"/>
	<polygon class="st6" points="17.325,19.079 9.688,23.017 2.049,19.079 9.688,15.143 	"/>
	<polygon class="st7" points="15.311,18.046 9.688,20.945 4.063,18.046 9.688,15.148 	"/>
	<polygon class="st8" points="9.688,16.896 18.942,12.127 18.942,13.517 9.688,18.287 	"/>
	<polygon class="st9" points="9.688,16.896 0.432,12.127 0.432,13.517 9.688,18.287 	"/>
	<polygon class="st10" points="18.942,12.127 9.688,16.896 0.432,12.127 9.688,7.356 	"/>
	<polygon class="st11" points="16.501,10.873 9.688,14.386 2.873,10.873 9.688,7.361 	"/>
	<polygon class="st12" points="18.94,4.803 9.623,9.604 0.306,4.803 9.623,0 	"/>
	<polygon class="st13" points="9.623,9.604 18.94,4.803 18.94,6.204 9.623,11.006 	"/>
	<polygon class="st14" points="9.623,9.604 0.306,4.803 0.306,6.204 9.623,11.006 	"/>
</g>
<g id="more-arrow_x60_8x5">
	<polygon class="st15" points="0,0 3.603,4.883 7.207,0 	"/>
</g>
<g id="hamburg-menu_x60_25x12">
	<line class="st16" x1="1" y1="1" x2="24" y2="1"/>
	<line class="st16" x1="1" y1="6" x2="24" y2="6"/>
	<line class="st16" x1="1" y1="11" x2="24" y2="11"/>
</g>
<g id="map_x60_37x31">
	<polyline class="st17" points="12.85,11.85 0.75,17.85 4.05,22.95 7.45,21.25 10.95,26.35 14.35,24.75 17.75,29.85 35.35,21.05 
		31.95,15.95 28.65,17.65 25.05,12.45 21.85,14.05 	"/>
	<line class="st17" x1="14.45" y1="24.75" x2="28.55" y2="17.65"/>
	<line class="st17" x1="7.45" y1="21.25" x2="16.15" y2="16.95"/>
	<path class="st17" d="M24.35,7.05c0,5.6-6.3,11.9-6.3,11.9s-6.3-6.3-6.3-11.9c0-3.5,2.8-6.3,6.3-6.3S24.35,3.55,24.35,7.05z"/>
	<circle class="st17" cx="18.05" cy="7.05" r="2.6"/>
</g>
<g id="right-arrow_x60_8x15">
	<polyline class="st18" points="0.75,0.75 7.089,7.089 0.75,13.428 	"/>
</g>
<g id="framework-map_x60_175x125">
	<polygon class="st19" points="23.83,43.904 101.414,83.947 174.343,46.572 96.755,6.528 	"/>
	<polygon class="st20" points="101.414,84.043 23.83,44.001 23.83,55.657 101.414,95.699 	"/>
	<polygon class="st21" points="101.414,84.043 174.343,46.572 174.343,58.228 101.414,95.699 	"/>
	<polygon class="st22" points="86.738,69.191 99.559,75.985 124.895,62.704 112.152,55.86 	"/>
	<polygon class="st23" points="124.848,62.702 112.152,55.859 112.152,64.331 117.291,66.477 	"/>
	<polyline class="st24" points="112.152,55.86 112.152,64.333 95.005,73.574 86.738,69.191 	"/>
	<polygon class="st22" points="115.843,53.795 128.664,60.589 154,47.308 141.257,40.464 	"/>
	<polygon class="st23" points="153.952,47.306 141.257,40.463 141.257,48.935 146.395,51.081 	"/>
	<polyline class="st24" points="141.257,40.464 141.257,48.937 124.11,58.178 115.843,53.795 	"/>
	<polygon class="st22" points="69.994,60.395 82.816,67.19 108.152,53.909 95.409,47.065 	"/>
	<polygon class="st23" points="108.104,53.907 95.409,47.063 95.409,55.536 100.547,57.682 	"/>
	<polyline class="st24" points="95.409,47.065 95.409,55.538 78.262,64.778 69.994,60.395 	"/>
	<polygon class="st22" points="54.338,52.038 67.159,58.833 92.495,45.552 79.752,38.708 	"/>
	<polygon class="st23" points="92.447,45.55 79.752,38.707 79.752,47.179 84.89,49.325 	"/>
	<polygon class="st22" points="38.681,43.682 51.502,50.477 76.838,37.195 64.095,30.352 	"/>
	<polygon class="st23" points="76.79,37.193 64.095,30.35 64.095,38.823 69.233,40.969 	"/>
	<polyline class="st24" points="64.095,30.352 64.095,38.824 46.948,48.065 38.681,43.682 	"/>
	<polyline class="st24" points="79.752,38.708 79.752,47.181 62.605,56.422 54.338,52.038 	"/>
	<polygon class="st19" points="105.502,6.318 80.987,19.198 68.722,12.875 93.244,0 	"/>
	<polygon class="st20" points="105.502,16.017 105.502,6.319 80.987,19.198 80.986,28.588 	"/>
	<polygon class="st23" points="80.987,19.198 68.722,12.875 68.722,22.318 80.986,28.588 	"/>
	<polygon class="st19" points="121.06,14.463 96.545,27.341 84.28,21.019 108.802,8.144 	"/>
	<polygon class="st20" points="121.06,24.161 121.06,14.463 96.545,27.341 96.544,36.732 	"/>
	<polygon class="st23" points="96.545,27.341 84.28,21.019 84.28,30.461 96.544,36.732 	"/>
	<polygon class="st19" points="136.616,22.608 112.103,35.485 99.837,29.162 124.359,16.289 	"/>
	<polygon class="st20" points="136.616,32.305 136.616,22.608 112.103,35.485 112.101,44.877 	"/>
	<polygon class="st23" points="112.103,35.485 99.837,29.162 99.837,38.607 112.101,44.877 	"/>
	<polygon class="st19" points="153.159,30.551 128.645,43.429 116.379,37.105 140.902,24.233 	"/>
	<polygon class="st20" points="153.159,40.248 153.159,30.551 128.645,43.429 128.644,52.821 	"/>
	<polygon class="st23" points="128.645,43.429 116.379,37.105 116.379,46.55 128.644,52.821 	"/>
	<g id="box4_x3E_box">
		<polygon id="_x3E_t_3_" class="st19" points="76.514,21.469 52,34.348 39.735,28.025 64.258,15.152 		"/>
		<polygon id="_x3E_r_3_" class="st20" points="76.514,31.167 76.514,21.469 52,34.348 51.999,43.739 		"/>
		<polygon id="_x3E_l_3_" class="st23" points="52,34.348 39.735,28.025 39.735,37.468 51.999,43.739 		"/>
		<polyline id="_x3E_line_3_" class="st25" points="64.815,20.912 0.715,54.634 0.715,66.516 		"/>
	</g>
	<g id="box3_x3E_box">
		<polygon id="_x3E_t_2_" class="st19" points="92.072,29.614 67.558,42.493 55.293,36.171 79.815,23.297 		"/>
		<polygon id="_x3E_r_2_" class="st20" points="92.072,39.312 92.072,29.614 67.558,42.493 67.557,51.884 		"/>
		<polygon id="_x3E_l_2_" class="st23" points="67.558,42.493 55.293,36.171 55.293,45.613 67.557,51.884 		"/>
		<polyline id="_x3E_line_2_" class="st25" points="78.867,30.519 0.715,71.634 0.715,83.516 		"/>
	</g>
	<g id="box2_x3E_box">
		<polygon id="_x3E_t_1_" class="st19" points="107.63,37.757 83.115,50.636 70.851,44.314 95.373,31.44 		"/>
		<polygon id="_x3E_r_1_" class="st20" points="107.63,47.457 107.63,37.758 83.115,50.636 83.115,60.029 		"/>
		<polygon id="_x3E_l_1_" class="st23" points="83.115,50.636 70.851,44.314 70.851,53.758 83.115,60.029 		"/>
		<polyline id="_x3E_line_1_" class="st25" points="93.469,39.837 0.715,88.634 0.715,100.516 		"/>
	</g>
	<g id="box1_x3E_box">
		<polygon id="_x3E_t" class="st19" points="124.172,45.7 99.657,58.58 87.393,52.257 111.915,39.384 		"/>
		<polygon id="_x3E_r" class="st20" points="124.172,55.4 124.172,45.702 99.657,58.58 99.657,67.973 		"/>
		<polygon id="_x3E_l" class="st23" points="99.657,58.58 87.393,52.257 87.393,61.702 99.657,67.973 		"/>
		<polyline id="_x3E_line" class="st25" points="109.322,47.81 0.5,105.061 0.5,124.817 		"/>
	</g>
</g>
<g id="card-x_x60_17x17">
	<line class="st26" x1="0.495" y1="0.495" x2="15.948" y2="15.948"/>
	<line class="st26" x1="15.948" y1="0.495" x2="0.495" y2="15.948"/>
</g>
<g id="beta-tag_x60_42x19">
	<rect class="st27" width="41.234" height="18.625"/>
	<polygon class="st28" points="41.234,15.207 31.708,5.68 29.179,8.072 26.787,5.68 21.47,6.93 23.991,9.45 23.737,9.65 
		19.767,5.68 15.863,6.186 15.077,8.912 12.351,6.186 8.16,6.016 7.42,12.346 13.59,18.516 41.234,18.616 	"/>
	<path class="st19" d="M7.42,5.68h3.508c1.27,0,1.919,0.81,1.919,1.699c0,0.839-0.52,1.399-1.149,1.529
		c0.709,0.11,1.279,0.799,1.279,1.639c0,0.999-0.67,1.799-1.939,1.799H7.42V5.68z M10.618,8.359c0.479,0,0.78-0.31,0.78-0.74
		c0-0.41-0.3-0.729-0.78-0.729H8.84v1.469H10.618z M10.668,11.137c0.54,0,0.86-0.31,0.86-0.79c0-0.419-0.3-0.779-0.86-0.779H8.84
		v1.569H10.668z"/>
	<path class="st19" d="M15.05,5.68h4.717V6.9h-3.298v1.449h3.228v1.22h-3.228v1.549h3.298v1.229H15.05V5.68z"/>
	<path class="st19" d="M23.419,6.93H21.47V5.68h5.317v1.25h-1.939v5.417h-1.429V6.93z"/>
	<path class="st19" d="M32.307,11.197h-2.979l-0.419,1.149H27.35l2.579-6.667h1.779l2.568,6.667h-1.549L32.307,11.197z
		 M29.709,9.968h2.209l-1.1-3.058L29.709,9.968z"/>
</g>
</svg>
