<?xml version="1.0" encoding="iso-8859-1"?>
<!-- Generator: Adobe Illustrator 20.1.0, SVG Export Plug-In . SVG Version: 6.00 Build 0)  -->
<svg version="1.1" id="Layer_1" xmlns="http://www.w3.org/2000/svg" xmlns:xlink="http://www.w3.org/1999/xlink" x="0px" y="0px"
	 viewBox="0 0 200 200" style="enable-background:new 0 0 200 200;" xml:space="preserve">
<style type="text/css">
	.st0{fill:#405C70;}
	.st1{fill:#2F4352;}
	.st2{fill:#1C2830;}
	.st3{fill:#19242B;}
	.st4{fill:#0A848F;}
	.st5{fill:#076870;}
	.st6{fill:#4EBFC9;}
	.st7{opacity:0.42;fill:#0B194F;}
	.st8{fill:#43C494;}
	.st9{fill:#4AAA88;}
	.st10{fill:#7FE0BF;}
	.st11{opacity:0.76;fill:#43C4A6;}
	.st12{fill:#FDE5A6;}
	.st13{fill:#E9D399;}
	.st14{fill:#D9BB6F;}
	.st15{fill:#94ACBA;}
	.st16{fill:none;stroke:#2A3D4A;stroke-width:2;stroke-linecap:round;stroke-miterlimit:10;}
	.st17{fill:none;stroke:#809CAD;stroke-width:1.5;stroke-linecap:round;stroke-linejoin:round;stroke-miterlimit:10;}
	.st18{fill:none;stroke:#1884D6;stroke-width:1.5;stroke-linecap:round;stroke-linejoin:round;stroke-miterlimit:10;}
</style>
<g id="logo_x60_19x33">
	<polygon class="st0" points="18.959,25.987 9.591,30.815 0,25.901 9.368,21.072 	"/>
	<polygon class="st1" points="15.003,23.96 9.498,26.797 3.863,23.91 9.368,21.072 	"/>
	<polygon class="st2" points="9.591,30.828 18.959,26 18.959,27.378 9.591,32.207 	"/>
	<polygon class="st3" points="9.591,30.828 0,25.901 0,27.279 9.591,32.207 	"/>
	<polygon class="st4" points="9.688,23.017 17.325,19.079 17.325,20.228 9.688,24.165 	"/>
	<polygon class="st5" points="9.688,23.017 2.049,19.079 2.049,20.228 9.688,24.165 	"/>
	<polygon class="st6" points="17.325,19.079 9.688,23.017 2.049,19.079 9.688,15.143 	"/>
	<polygon class="st7" points="15.311,18.046 9.688,20.945 4.063,18.046 9.688,15.148 	"/>
	<polygon class="st8" points="9.688,16.896 18.942,12.127 18.942,13.517 9.688,18.287 	"/>
	<polygon class="st9" points="9.688,16.896 0.432,12.127 0.432,13.517 9.688,18.287 	"/>
	<polygon class="st10" points="18.942,12.127 9.688,16.896 0.432,12.127 9.688,7.356 	"/>
	<polygon class="st11" points="16.501,10.873 9.688,14.386 2.873,10.873 9.688,7.361 	"/>
	<polygon class="st12" points="18.94,4.803 9.623,9.604 0.306,4.803 9.623,0 	"/>
	<polygon class="st13" points="9.623,9.604 18.94,4.803 18.94,6.204 9.623,11.006 	"/>
	<polygon class="st14" points="9.623,9.604 0.306,4.803 0.306,6.204 9.623,11.006 	"/>
</g>
<g id="more-arrow_x60_8x5">
	<polygon class="st15" points="0,0 3.603,4.883 7.207,0 	"/>
</g>
<g id="hamburg-menu_x60_25x12">
	<line class="st16" x1="1" y1="1" x2="24" y2="1"/>
	<line class="st16" x1="1" y1="6" x2="24" y2="6"/>
	<line class="st16" x1="1" y1="11" x2="24" y2="11"/>
</g>
<g id="map_x60_37x31">
	<polyline class="st17" points="12.85,11.85 0.75,17.85 4.05,22.95 7.45,21.25 10.95,26.35 14.35,24.75 17.75,29.85 35.35,21.05 
		31.95,15.95 28.65,17.65 25.05,12.45 21.85,14.05 	"/>
	<line class="st17" x1="14.45" y1="24.75" x2="28.55" y2="17.65"/>
	<line class="st17" x1="7.45" y1="21.25" x2="16.15" y2="16.95"/>
	<path class="st17" d="M24.35,7.05c0,5.6-6.3,11.9-6.3,11.9s-6.3-6.3-6.3-11.9c0-3.5,2.8-6.3,6.3-6.3S24.35,3.55,24.35,7.05z"/>
	<circle class="st17" cx="18.05" cy="7.05" r="2.6"/>
</g>
<g id="right-arrow_x60_8x15">
	<polyline class="st18" points="0.75,0.75 7.089,7.089 0.75,13.428 	"/>
</g>
</svg>
