<?xml version="1.0" encoding="iso-8859-1"?>
<!-- Generator: Adobe Illustrator 20.0.0, SVG Export Plug-In . SVG Version: 6.00 Build 0)  -->
<svg version="1.1" id="Layer_1" xmlns="http://www.w3.org/2000/svg" xmlns:xlink="http://www.w3.org/1999/xlink" x="0px" y="0px"
	 viewBox="0 0 200 200" style="enable-background:new 0 0 200 200;" xml:space="preserve">
<style type="text/css">
	.st0{opacity:0.08;fill:url(#SVGID_1_);}
	.st1{opacity:0.08;fill:url(#SVGID_2_);}
	.st2{opacity:0.08;fill:url(#SVGID_3_);}
	.st3{opacity:0.08;fill:url(#SVGID_4_);}
	.st4{fill:#1CACEF;}
	.st5{fill:#0D85BD;}
	.st6{fill:#FFFFFF;}
	.st7{fill:#DEDEDE;}
	.st8{fill:#EBEBEB;}
	.st9{opacity:0.42;fill:#DEDEDE;}
	.st10{fill:#E6E6E6;}
	.st11{fill:none;stroke:#1EB8FF;stroke-width:5;stroke-miterlimit:10;}
	.st12{fill-rule:evenodd;clip-rule:evenodd;fill:#FFFFFF;}
	.st13{fill:#E2E2E2;}
	.st14{fill:#D2D2D2;}
	.st15{fill:#B8BEC1;}
	.st16{fill-rule:evenodd;clip-rule:evenodd;fill:#0D81B8;}
</style>
<g id="download-bg_x60_214x391">
	
		<linearGradient id="SVGID_1_" gradientUnits="userSpaceOnUse" x1="423.3142" y1="123.5842" x2="515.7142" y2="196.8969" gradientTransform="matrix(0.4515 0.8923 -0.8923 0.4515 18.8387 -176.875)">
		<stop  offset="0" style="stop-color:#8EA5B3"/>
		<stop  offset="0.7169" style="stop-color:#90A8B6;stop-opacity:0.2831"/>
		<stop  offset="1" style="stop-color:#94ACBA;stop-opacity:0"/>
	</linearGradient>
	<polygon class="st0" points="106.834,390.508 28.08,364.672 67.629,244.116 146.383,269.952 	"/>
	
		<linearGradient id="SVGID_2_" gradientUnits="userSpaceOnUse" x1="465.1412" y1="40.916" x2="557.5413" y2="114.2287" gradientTransform="matrix(-0.4515 0.8923 0.8923 0.4515 287.1613 -176.875)">
		<stop  offset="0" style="stop-color:#8EA5B3"/>
		<stop  offset="0.7169" style="stop-color:#90A8B6;stop-opacity:0.2831"/>
		<stop  offset="1" style="stop-color:#94ACBA;stop-opacity:0"/>
	</linearGradient>
	<polygon class="st1" points="106.518,390.508 185.273,364.672 145.724,244.116 66.969,269.952 	"/>
	
		<linearGradient id="SVGID_3_" gradientUnits="userSpaceOnUse" x1="480.6188" y1="-28.2873" x2="573.0188" y2="45.0255" gradientTransform="matrix(-0.2522 0.9677 0.9677 0.2522 261.7402 -202.4636)">
		<stop  offset="0" style="stop-color:#8EA5B3"/>
		<stop  offset="0.7169" style="stop-color:#90A8B6;stop-opacity:0.2831"/>
		<stop  offset="1" style="stop-color:#94ACBA;stop-opacity:0"/>
	</linearGradient>
	<polygon class="st2" points="134.49,387.827 205.987,345.898 141.803,236.453 70.306,278.382 	"/>
	
		<linearGradient id="SVGID_4_" gradientUnits="userSpaceOnUse" x1="267.932" y1="245.3356" x2="360.332" y2="318.6484" gradientTransform="matrix(-0.9757 0.2192 0.2192 0.9757 320.7596 -36.3605)">
		<stop  offset="0" style="stop-color:#8EA5B3"/>
		<stop  offset="0.7169" style="stop-color:#90A8B6;stop-opacity:0.2831"/>
		<stop  offset="1" style="stop-color:#94ACBA;stop-opacity:0"/>
	</linearGradient>
	<polygon class="st3" points="5.261,341.359 75.289,385.697 143.16,278.499 73.132,234.162 	"/>
	<polygon id="_x3E_bg1" class="st4" points="213.446,184.835 106.716,246.452 0,184.835 0,61.611 106.716,0 213.446,61.611 	"/>
	<polygon id="_x3E_bg2" class="st5" points="213.446,184.835 155.299,218.405 106.283,196.054 106.507,115.078 171.993,81.326 
		213.446,102.647 	"/>
	<polygon class="st6" points="39.071,150.319 106.283,184.964 175.099,149.697 107.885,115.051 	"/>
	<polyline class="st7" points="108.672,151.925 108.672,160.143 104.663,162.236 96.814,158.113 	"/>
	<polyline class="st7" points="123.721,144.123 123.721,152.342 119.712,154.434 111.863,150.314 	"/>
	<polygon class="st8" points="106.283,185.054 39.071,150.41 39.071,161.409 106.283,196.054 	"/>
	<polygon class="st7" points="106.283,185.054 175.099,149.697 175.099,160.696 106.283,196.054 	"/>
	<polygon class="st6" points="51.032,149.851 63.426,156.418 75.288,150.301 62.89,143.74 	"/>
	<polygon class="st8" points="75.288,150.224 62.89,143.661 62.89,151.879 67.467,154.335 	"/>
	<polygon class="st7" points="66.081,141.972 89.798,154.434 101.661,148.316 77.939,135.86 	"/>
	<polygon class="st7" points="101.661,148.238 77.939,135.786 77.939,144 93.839,152.347 	"/>
	<polyline class="st7" points="77.939,135.786 77.939,144 73.928,146.095 66.081,141.972 	"/>
	<polygon class="st7" points="81.134,134.172 104.848,146.632 116.711,140.514 92.99,128.061 	"/>
	<polygon class="st7" points="116.711,140.437 92.99,127.982 92.99,136.2 108.888,144.546 	"/>
	<polyline class="st7" points="92.99,127.982 92.99,136.2 88.979,138.294 81.134,134.172 	"/>
	<polygon class="st7" points="96.181,126.292 119.897,138.753 131.762,132.635 108.039,120.182 	"/>
	<polygon class="st7" points="131.762,132.559 108.039,120.104 108.039,128.32 123.938,136.667 	"/>
	<polyline class="st7" points="108.039,120.104 108.039,128.32 104.028,130.416 96.181,126.292 	"/>
	<g>
		<defs>
			<polygon id="SVGID_5_" points="51.032,149.851 63.426,156.418 75.288,150.301 62.89,143.74 			"/>
		</defs>
		<clipPath id="SVGID_6_">
			<use xlink:href="#SVGID_5_"  style="overflow:visible;"/>
		</clipPath>
	</g>
	<polygon class="st6" points="93.842,171.957 106.236,178.524 118.099,172.408 105.701,165.846 	"/>
	<polygon class="st8" points="118.099,172.331 105.701,165.767 105.701,173.986 110.279,176.441 	"/>
	<polygon class="st6" points="108.135,164.008 120.529,170.574 162.494,148.778 150.096,142.217 	"/>
	<polygon class="st8" points="162.494,148.701 150.096,142.137 150.096,150.356 154.673,152.811 	"/>
	<polyline class="st7" points="150.096,142.137 150.096,150.356 115.982,168.154 108.135,164.029 	"/>
	<polyline class="st7" points="105.701,165.767 105.701,173.986 101.69,176.103 93.842,171.979 	"/>
	<polygon class="st6" points="71.703,160.875 84.098,167.442 95.96,161.326 83.562,154.764 	"/>
	<polygon class="st8" points="95.96,161.248 83.562,154.685 83.562,162.903 88.14,165.359 	"/>
	<polyline class="st7" points="83.562,154.685 83.562,162.903 79.551,164.999 71.703,160.875 	"/>
	<polyline class="st7" points="62.881,143.647 62.881,151.866 58.869,153.961 51.022,149.838 	"/>
	<polygon class="st6" points="114.187,113.719 91.054,125.873 79.481,119.907 102.621,107.758 	"/>
	<polygon class="st7" points="114.187,122.872 114.187,113.721 91.054,125.873 91.053,134.733 	"/>
	<polygon class="st8" points="91.054,125.873 79.481,119.907 79.481,128.818 91.053,134.733 	"/>
	<polygon class="st6" points="83.231,119.758 55.476,134.34 41.59,127.181 69.354,112.606 	"/>
	<polygon class="st6" points="128.867,121.405 105.735,133.557 94.162,127.592 117.301,115.443 	"/>
	<polygon class="st7" points="128.867,130.557 128.867,121.406 105.735,133.557 105.734,142.419 	"/>
	<polygon class="st8" points="105.735,133.557 94.162,127.592 94.162,136.501 105.734,142.419 	"/>
	<polygon class="st6" points="143.547,129.091 120.415,141.242 108.841,135.275 131.981,123.129 	"/>
	<polygon class="st7" points="143.547,138.241 143.547,129.091 120.415,141.242 120.414,150.105 	"/>
	<polygon class="st8" points="120.415,141.242 108.841,135.275 108.841,144.188 120.414,150.105 	"/>
	<polygon class="st7" points="83.231,130.739 83.231,119.759 55.476,134.34 55.475,144.974 	"/>
	<polygon class="st8" points="55.476,134.34 41.59,127.181 41.59,137.873 55.475,144.974 	"/>
	<polygon class="st6" points="100.846,128.98 73.091,143.562 59.205,136.404 86.968,121.828 	"/>
	<polygon class="st7" points="100.846,139.96 100.846,128.98 73.091,143.562 73.09,154.195 	"/>
	<polygon class="st8" points="73.091,143.562 59.205,136.404 59.205,147.095 73.09,154.195 	"/>
	<polygon class="st6" points="118.461,138.2 90.705,152.782 76.819,145.624 104.583,131.049 	"/>
	<polygon class="st7" points="116.195,152.539 116.195,143.387 93.062,155.539 93.062,164.402 	"/>
	<polygon class="st8" points="90.705,152.782 76.819,145.624 76.819,156.317 90.705,163.417 	"/>
	<polygon class="st6" points="171.971,126.67 122.208,152.529 110.845,146.675 160.618,120.816 	"/>
	<polygon class="st7" points="171.971,137.366 171.971,126.67 122.208,152.529 122.208,162.942 	"/>
	<polygon class="st8" points="122.208,152.529 110.845,146.675 110.845,157.135 122.208,162.942 	"/>
	<polygon class="st9" points="161.93,125.264 108.259,153.247 103.138,150.614 99.005,152.75 98.988,148.443 85.13,141.262 
		81.268,143.265 81.27,139.262 67.424,132.088 63.583,134.105 63.565,130.091 49.699,122.907 69.377,112.646 74.412,115.214 
		74.406,110.024 102.009,95.629 133.532,111.895 133.673,116.058 137.404,113.893 141.656,116.087 151.279,121.048 151.283,125.475 
		156.773,122.605 	"/>
	<polygon class="st6" points="117.888,154.727 106.535,160.581 95.172,154.727 106.535,148.872 	"/>
	<polygon class="st7" points="117.888,165.422 117.888,154.727 106.535,160.581 106.535,170.993 	"/>
	<polygon class="st8" points="106.535,160.581 95.172,154.727 95.172,165.187 106.535,170.993 	"/>
	<polygon class="st7" points="106.958,138.754 172.005,105.229 172.005,115.009 106.958,148.534 	"/>
	<polygon class="st8" points="106.958,138.754 41.912,105.229 41.912,115.009 106.958,148.534 	"/>
	<polygon class="st6" points="172.005,105.229 106.958,138.754 41.912,105.229 106.958,71.702 	"/>
	<polygon class="st10" points="166.295,102.625 106.958,133.206 47.621,102.625 106.958,72.041 	"/>
	<polygon class="st6" points="171.993,81.326 106.507,115.078 41.021,81.326 106.507,47.571 	"/>
	<polygon class="st8" points="69.794,75.839 56.76,82.547 54.436,81.324 67.472,74.615 	"/>
	<polygon class="st7" points="83.738,72.912 65.396,82.366 63.074,81.144 81.415,71.688 	"/>
	<polygon class="st7" points="87.881,75.049 69.54,84.501 67.217,83.278 85.559,73.824 	"/>
	<polygon class="st7" points="92.025,77.183 73.684,86.638 71.36,85.415 89.702,75.959 	"/>
	<polygon class="st8" points="88.71,85.598 75.676,92.306 73.354,91.084 86.389,84.374 	"/>
	<polygon class="st7" points="102.655,82.673 84.314,92.126 81.991,90.903 100.333,81.448 	"/>
	<polygon class="st7" points="106.799,84.808 88.457,94.262 86.134,93.038 104.475,83.586 	"/>
	<polygon class="st7" points="110.942,86.943 92.6,96.398 90.277,95.174 108.619,85.72 	"/>
	<polygon class="st8" points="106.972,95.009 93.938,101.718 91.615,100.495 104.65,93.786 	"/>
	<polygon class="st7" points="120.916,92.084 102.575,101.538 100.252,100.315 118.594,90.859 	"/>
	<polygon class="st7" points="125.06,94.219 106.719,103.674 104.395,102.45 122.736,92.996 	"/>
	<polygon class="st7" points="129.202,96.355 110.861,105.808 108.539,104.585 126.88,95.132 	"/>
	<polygon class="st8" points="99.075,60.89 86.042,67.6 83.719,66.376 96.752,59.666 	"/>
	<polygon class="st7" points="113.02,57.965 94.678,67.417 92.356,66.194 110.698,56.74 	"/>
	<polygon class="st7" points="117.163,60.1 98.823,69.553 96.499,68.331 114.84,58.876 	"/>
	<polygon class="st7" points="121.306,62.234 102.965,71.689 100.642,70.466 118.985,61.011 	"/>
	<polygon class="st8" points="117.993,70.649 104.958,77.358 102.636,76.135 115.671,69.426 	"/>
	<polygon class="st7" points="131.937,67.724 113.596,77.178 111.273,75.955 129.614,66.5 	"/>
	<polygon class="st7" points="136.081,69.859 117.74,79.314 115.416,78.09 133.757,68.637 	"/>
	<polygon class="st7" points="140.224,71.995 121.882,81.448 119.559,80.226 137.902,70.771 	"/>
	<polygon class="st8" points="136.253,80.059 123.22,86.77 120.897,85.547 133.931,78.837 	"/>
	<polygon class="st7" points="150.198,77.135 131.858,86.59 129.534,85.365 147.875,75.911 	"/>
	<polygon class="st7" points="154.342,79.271 136.001,88.724 133.677,87.501 152.019,78.048 	"/>
	<polygon class="st7" points="158.485,81.406 140.144,90.859 137.82,89.637 156.163,80.182 	"/>
	<polygon class="st7" points="106.507,115.078 171.993,81.326 171.993,91.172 106.507,124.925 	"/>
	<polygon class="st8" points="106.507,115.078 41.021,81.326 41.021,91.172 106.507,124.925 	"/>
	<circle class="st6" cx="106.701" cy="258.283" r="41.388"/>
	<polyline id="_x3E_arrow_1_" class="st11" points="130.598,257.132 106.723,281.007 82.848,257.132 	"/>
	<line id="_x3E_arrow" class="st11" x1="106.723" y1="281.007" x2="106.723" y2="231.559"/>
</g>
<g id="logo-windows_x60_47x48">
	<polygon class="st6" points="46.777,22.665 46.777,0 20.743,3.797 20.743,22.665 	"/>
	<polygon class="st6" points="18.908,4.065 0,6.823 0,22.665 18.908,22.665 	"/>
	<polygon class="st6" points="0,24.501 0,40.542 18.908,43.333 18.908,24.501 	"/>
	<polygon class="st6" points="20.743,43.604 46.777,47.444 46.777,24.501 20.743,24.501 	"/>
</g>
<g id="logo-apple_x60_47x58">
	<path class="st12" d="M25.859,5.004C29.64,0.025,34.894,0,34.894,0s0.777,4.681-2.973,9.197c-4.009,4.809-8.56,4.02-8.56,4.02
		S22.504,9.432,25.859,5.004z"/>
	<path class="st12" d="M23.84,16.497c1.948,0,5.546-2.669,10.244-2.669c8.084,0,11.258,5.749,11.258,5.749
		s-6.215,3.178-6.215,10.889c0,8.703,7.746,11.703,7.746,11.703S41.46,57.407,34.147,57.407c-3.36,0-5.972-2.262-9.511-2.262
		c-3.607,0-7.183,2.347-9.516,2.347C8.435,57.492,0,43.036,0,31.417c0-11.431,7.141-17.431,13.844-17.431
		C18.196,13.986,21.58,16.497,23.84,16.497z"/>
</g>
<g id="cube_x60_85x98">
	<polygon id="_x3E_top" class="st13" points="0,24.251 42.011,0 84.019,24.251 84.019,72.759 42.011,97.012 0,72.759 	"/>
	<polygon id="_x3E_left" class="st14" points="0,24.677 42.009,48.928 42.009,97.012 0,72.759 	"/>
	<polygon id="_x3E_right" class="st15" points="84.017,24.677 42.009,48.928 42.009,97.012 84.017,72.759 	"/>
</g>
<g id="logo-linux_x60_52x58">
	<path class="st12" d="M21.093,3.286c0,0,3.695,0.068,6.871,0.001s3.503,8.057,3.503,8.057l8.624,20.222l3.712,12.029l4.345,6.173
		l-9.605,7.173l-13.565-5.591l-3.021,3.342l-7.407,2.725l-14.402-4.37l0.565-8.597l5.03-0.491l0.866-5.784L17.68,16.399L15.901,8.89
		L21.093,3.286z"/>
	<path id="_x3E_logo-bg" class="st16" d="M16.999,49.019c2.057-0.213,2.329-2.394,1.361-3.346c-0.801-0.785-5.209-4.055-6.358-5.345
		c-0.535-0.596-1.261-0.888-1.565-1.561c-0.706-1.543-1.2-3.747-0.304-5.329c0.161-0.285,0.265-0.158,0.141,0.438
		c-0.701,3.375,1.494,6.134,1.979,4.719c0.333-0.976,0.024-2.726,0.204-4.116c0.319-2.451,2.556-7.173,3.537-7.444
		c-1.516-2.806,1.774-4.999,1.738-7.469c-0.029-1.599,1.405,1.973,2.843,2.73c1.611,0.842,3.378-1.592,5.888-2.83
		c0.711-0.353,1.623-0.754,1.56-1.053c-0.292-1.441-3.296,1.779-5.978,1.884c-1.224,0.051-1.675-0.24-2.152-0.694
		c-1.426-1.383,0.146-0.231,2.273-0.613c0.942-0.17,1.261-0.33,2.261-0.733c1-0.407,2.149-1.005,3.281-1.312
		c0.791-0.217,0.723-0.809,0.418-0.988c-0.177-0.102-0.44-0.092-0.65,0.265c-0.484,0.842-2.77,1.329-3.485,1.548
		c-0.915,0.278-1.933,0.54-3.281,0.487c-2.045-0.083-1.568-1.02-3.031-1.86c-0.428-0.248-0.314-0.893,0.256-1.465
		c0.302-0.297,1.12-0.469,1.526-1.149c0.056-0.095,0.579-0.643,0.991-0.925c0.141-0.097,0.156-2.595-1.129-2.648
		c-1.085-0.044-1.397,0.799-1.353,1.641c0.046,0.842,0.492,1.536,0.789,1.531c0.57-0.005,0.036,0.63-0.28,0.73
		c-0.472,0.153-1.127-1.872-1.049-2.847c0.078-1.014,0.606-2.808,1.889-2.774c1.154,0.028,1.993,1.478,1.95,3.975
		c-0.007,0.427,1.874-0.2,2.505,0.465c0.448,0.474-1.538-4.43,2.887-4.768c1.163,0.224,2.283,0.613,2.75,3.293
		c-0.175,0.278,0.29,2.148-0.428,2.373c-0.881,0.265-1.424-0.039-0.915-0.876c0.351-0.842,0.01-2.979-1.767-2.851
		c-1.777,0.128-1.543,3.282-1.056,3.346c0.487,0.058,1.714,0.933,2.57,1.095c2.814,0.55,0.749,2.164,1.112,4.116
		c0.411,2.203,1.862,1.621,3.167,7.455c0.272,0.354,1.353,0.691,2.405,5.172c0.949,4.033-0.394,6.966,1.884,6.723
		c0.513-0.051,1.261-0.197,1.589-1.339c0.852-2.987-0.428-6.548-1.719-8.945c-0.752-1.402-1.458-2.356-1.835-2.68
		c1.48,0.869,3.371,3.667,3.809,5.739c0.575,2.724,0.981,3.878,0.112,6.757c0.501,0.253,1.752,0.779,1.752,1.375
		c-1.302-1.067-5.275-1.256-5.374,1.295c-0.681,0.012-1.193,0.069-1.626,0.586c-1.602,1.896-0.117,5.703-0.28,7.745
		c-0.144,1.796-0.64,3.576-0.92,5.377c-0.952-0.032-0.857-0.73-0.553-1.706c0.268-0.859,0.704-1.94,0.733-2.977
		c0.027-0.935-0.078-1.522-0.314-1.667c-0.239-0.147-0.606,0.149-1.115,0.974c-1.093,1.757-3.456,2.529-5.664,2.804
		c-2.208,0.279-4.257,0.056-5.343-1.156c-0.375-0.42-0.988,0.109-1.061,0.224c-0.097,0.146,0.355,0.433,0.704,1.066
		c0.504,0.925,0.983,2.327-0.212,2.965C19.08,51.196,18.05,51.006,16.999,49.019L16.999,49.019z M16.208,48.935
		c0.794,1.241,3.58,6.482-1.307,7.163c-1.633,0.228-4.262-0.952-6.808-1.575c-2.293-0.56-4.62-0.891-5.92-1.256
		c-0.781-0.219-1.112-0.501-1.178-0.83c-0.18-0.869,0.954-2.091,1.008-3.118c0.058-1.032-0.377-1.568-0.73-2.407
		c-0.355-0.845-0.445-1.473-0.163-1.838c0.222-0.275,0.669-0.395,1.404-0.324c0.922,0.09,2.04-0.1,2.646-0.465
		c1.01-0.617,1.487-1.885,1.03-3.41c0,1.497-0.487,2.059-1.716,2.743c-1.154,0.64-2.938,0.122-3.761,0.83
		c-0.986,0.858,0.353,3.069,0.244,4.695c-0.083,1.246-1.388,2.653-0.808,3.902c0.586,1.258,3.308,1.392,6.148,1.988
		c4.031,0.842,6.387,2.315,8.254,2.382c2.719,0.1,3.133-2.691,7.407-2.725c1.246-0.068,2.463-0.107,3.68-0.124
		c1.383-0.016,2.755-0.005,4.172,0.029c2.843,0.068,1.865,1.552,3.71,2.5c1.553,0.798,4.352,0.482,5.024-0.156
		c0.903-0.862,3.334-2.94,5.199-3.878c2.322-1.172,7.774-3.187,3.814-5.64c-0.923-0.574-3.104-1.18-3.289-5.37
		c-0.823,0.735-0.725,4.642,1.577,5.411c2.573,0.867,4.182,2.315-0.603,3.948c-3.169,1.086-3.707,1.421-6.217,3.507
		c-2.536,2.113-6.304,1.273-5.647-3.174c0.346-2.315,0.54-4.233-0.034-6.248c-0.282-0.985-0.423-2.247-0.231-3.13
		c0.377-1.721,1.307-2.239,2.218-0.59c0.575,1.037,0.776,2.253,2.828,2.352c3.225,0.151,3.86-3.118,4.892-3.268
		c0.686-0.098,1.378-2.043,0.852-5.188c-0.56-3.374-2.544-8.692-5.087-11.389c-2.113-2.246-3.442-4.209-4.281-7.015
		c-0.704-2.359-1.095-4.651-0.952-6.842c0.19-2.845-1.387-6.801-3.894-8.662c-1.572-1.165-4.036-1.788-6.268-1.766
		c-1.249,0.017-2.427,0.199-3.332,0.686c-3.719,2.018-4.24,4.907-4.187,8.203c0.054,3.094,0.161,6.628,0.511,9.984
		c-0.414,1.541-2.58,4.464-3.972,6.243c-1.864,1.847-2.804,5.406-4.011,8.516c-0.643,1.66-1.731,2.406-1.82,4.541
		c-0.027,0.596-0.005,2.14,0.565,1.699C9.353,38.188,12.084,42.439,16.208,48.935L16.208,48.935z M27.533,4.331
		c-0.114,0.352-0.601,0.646-0.295,0.891c0.309,0.248,0.484-0.341,1.105-0.565c0.156-0.056,0.901,0.022,1.037-0.331
		c0.058-0.15-0.38-0.326-0.648-0.579c-0.263-0.251-0.521-0.475-0.769-0.46C27.324,3.325,27.638,4.021,27.533,4.331L27.533,4.331z
		 M21.093,13.204c-1.02-0.078-1.088,0.659-0.752,0.649C20.681,13.84,20.472,13.268,21.093,13.204L21.093,13.204z M19.34,11.321
		c0.122-0.029,0.294,0.177,0.239,0.465c-0.071,0.399-0.037,0.647,0.239,0.651c0.044,0,0.095-0.008,0.109-0.113
		c0.131-0.797-0.282-1.381-0.448-1.421C19.087,10.803,19.136,11.361,19.34,11.321L19.34,11.321z M26.771,10.98
		c0.255,0.076,0.506,0.528,0.56,1.01c0.005,0.044,0.341-0.068,0.343-0.173c0.022-0.783-0.648-1.149-0.82-1.132
		C26.455,10.72,26.567,10.925,26.771,10.98L26.771,10.98z M22.962,13.295c0.927-0.428,1.253,0.24,0.932,0.344
		C23.568,13.753,23.563,13.142,22.962,13.295L22.962,13.295z M11.753,29.106c-0.438-0.052,0.129-0.381,0.37-0.795
		c0.263-0.458,0.212-1.025,0.487-0.942c0.282,0.084,0.126,0.402-0.066,0.925C12.384,28.739,11.919,29.126,11.753,29.106
		L11.753,29.106z"/>
</g>
</svg>
