<?xml version="1.0" standalone="no"?>
<!DOCTYPE svg PUBLIC "-//W3C//DTD SVG 1.1//EN" "http://www.w3.org/Graphics/SVG/1.1/DTD/svg11.dtd" >
<svg xmlns="http://www.w3.org/2000/svg">
<metadata></metadata>
<defs>
<font id="oregonregular" horiz-adv-x="1163" >
<font-face units-per-em="2048" ascent="1638" descent="-410" />
<missing-glyph horiz-adv-x="409" />
<glyph horiz-adv-x="0" />
<glyph horiz-adv-x="682" />
<glyph unicode=" "  horiz-adv-x="409" />
<glyph unicode="&#x09;" horiz-adv-x="409" />
<glyph unicode="&#xa0;" horiz-adv-x="409" />
<glyph unicode="!" horiz-adv-x="481" d="M120 1397q0 78 78 79q43 1 86 0q76 -1 77 -76v-173q-6 -158 -11 -676q0 -52 -5 -119q-1 -29 -19 -46.5t-47 -19.5q-38 -3 -77 0q-57 5 -65 62q-1 8 -1 47q-2 133 -6 398.5t-6 398.5q0 13 -2 57.5t-2 67.5zM121 62q-3 53 0 107q2 31 21.5 49t51.5 20q49 3 98 0 q32 -1 50 -20t20 -51v-51v-56q-2 -27 -19.5 -44.5t-44.5 -18.5q-56 -3 -111 0q-61 3 -66 65z" />
<glyph unicode="&#x22;" horiz-adv-x="780" d="M95 1116q1 11 7 29q31 80 26 193q-2 34 0 69q2 29 19 47.5t45 20.5q51 5 102 0q62 -5 67 -71q1 -10 1 -59v-39q1 -67 -51 -107q-22 -17 -158 -117q-27 -19 -43 -8q-19 12 -15 42zM382 1117q2 17 4 21q35 88 28 231q-4 65 22.5 88t85.5 19h27.5t27.5 -1q66 -6 71 -71 q2 0 1 -30l-1 -30h1v-39q1 -66 -52 -107q-22 -17 -158 -117q-26 -18 -43 -7q-18 12 -14 43z" />
<glyph unicode="#" horiz-adv-x="1433" d="M65 445q10 48 17 71q18 64 84 65q16 1 48 0t47 0q57 2 71 56q37 149 46 192q12 61 -53 64q-12 1 -36.5 1h-36.5q-78 3 -63 77q7 39 18 79q18 66 87 69h85q37 1 55 15t27 50q8 34 23.5 102.5t23.5 102.5q12 50 33.5 67t73.5 17h20.5h24.5h20q38 -2 54 -22.5t8 -57.5 q-7 -35 -22.5 -99t-20.5 -84q-6 -23 -6 -25q-5 -35 7 -50t47 -16q0 -1 35 -1l34 1h60q38 1 55 14t26 50q33 134 48 209q8 39 34 62t69 19q10 -1 34 -0.5t34 0.5q38 -2 54 -22t9 -57q-10 -48 -43 -187q-6 -21 -7 -34q-4 -50 46 -53q13 -1 36.5 -1h36.5q37 -2 53.5 -23 t8.5 -57q-6 -31 -17 -76q-17 -69 -89 -70h-81q-57 0 -71 -51q-24 -91 -49 -204q-4 -22 8.5 -38t36.5 -18q13 -1 36.5 -1h36.5q79 -3 62 -82q-10 -50 -17 -75q-18 -66 -87 -69q-14 -1 -41 0t-40 0q-33 -1 -50 -14.5t-25 -46.5q-8 -34 -24.5 -104.5t-25.5 -104.5 q-12 -50 -34 -67t-74 -17h-60q-84 2 -65 84q25 105 43 179q1 5 3.5 14.5t3.5 14.5q11 59 -45 61q-77 3 -154 0q-52 -1 -65 -58q-8 -34 -24.5 -104t-25.5 -104q-2 -13 -8 -29q-21 -57 -77 -58q-45 -1 -90 0q-35 2 -51 22.5t-9 54.5q7 30 44 183q5 20 8 34q11 56 -47 59 q-23 1 -69 1q-47 1 -64.5 22.5t-7.5 67.5zM567 645q-6 -28 7 -45.5t41 -18.5h73h64q66 1 80 63q39 168 42 179q18 68 -54 70h-128q-35 -1 -53.5 -14t-27.5 -46q-16 -62 -44 -188z" />
<glyph unicode="$" horiz-adv-x="1118" d="M108 1076q-6 128 82 242q69 89 161 132q26 12 46 22q45 26 44 72q-1 34 0 69q3 72 75 75q52 2 77 1q73 -3 74 -76q1 -30 0 -60q-4 -63 58 -90q73 -32 128 -77q32 -26 70 -75q40 -52 -11 -89q-41 -31 -106 -57q-31 -13 -64 13q-8 6 -21 18t-17 16q-62 53 -144.5 57 t-152.5 -48q-54 -42 -68.5 -102t9 -114t74.5 -83q52 -30 144 -52q174 -40 269 -107q166 -115 175 -319q13 -267 -246 -405q-3 -2 -16 -7q-94 -29 -81 -127v-25q-3 -74 -78 -77h-32q-67 -4 -93.5 22.5t-23.5 89.5q2 42 -12 60t-57 31q-128 37 -215 127q-30 31 -29 55.5 t34 52.5q37 30 65 49q28 20 49.5 19.5t47.5 -23.5q79 -68 179 -74q158 -8 244 98q52 65 35.5 149.5t-89.5 128.5q-58 35 -152 56q-108 26 -160 47q-262 108 -272 385z" />
<glyph unicode="%" horiz-adv-x="1572" d="M98 1043.5q1 143.5 92 243.5q87 97 203 88t193 -117q64 -88 70 -221q-9 -157 -99 -250q-82 -84 -187 -82t-182 90q-91 105 -90 248.5zM289 1043.5q-2 -79.5 46 -122.5q43 -39 86 2q41 40 43 119q-4 82 -50 121q-36 30 -73 0q-50 -40 -52 -119.5zM301.5 28 q-11.5 22 4.5 53l207 390q96 180 290 540q35 64 104 192.5t103 192.5q16 32 35 50q31 29 64 29h112q39 -1 51.5 -24.5t-6.5 -57.5q-96 -180 -288.5 -539t-288.5 -538q-54 -103 -122 -227q-11 -21 -22 -37q-38 -53 -94 -49h-43q-40 0 -60 1q-35 2 -46.5 24zM917 443 q10 156 97 247q82 86 189 83.5t184 -92.5q89 -104 88.5 -244.5t-88.5 -240.5q-86 -100 -203.5 -93t-196.5 116q-65 90 -70 224zM1109 438q4 -80 45 -119t83 0q51 47 46 132q-4 71 -46 107q-42 37 -83 -1q-42 -40 -45 -119z" />
<glyph unicode="&#x26;" horiz-adv-x="1105" d="M110 402.5q-2 88.5 29.5 172t91.5 139.5q14 14 22 26q19 27 1 52l-18 24q-114 142 -90.5 313.5t171.5 278.5q45 32 85 49q66 27 60 93q-1 13 1 60q5 69 73 72q14 1 43 1v-1h13.5h16h13.5q61 -5 66 -65q2 -30 0 -60q-4 -67 62 -92q72 -27 142 -86q26 -21 66 -73 q38 -53 -14 -88q-19 -12 -98 -53q-30 -16 -64 8q-7 5 -14 11t-15 13.5t-13 11.5q-76 67 -176 58t-160 -87q-43 -56 -34 -128t64 -116q66 -54 146 -55q31 0 47 -1q71 -5 76 -77q1 -35 0 -69q-1 -40 -20 -59t-59 -20q-75 -3 -131 -22q-89 -29 -130 -100t-19 -161 q18 -75 105 -125q80 -46 174.5 -37.5t167.5 67.5q35 28 57 28.5t57 -24.5q47 -34 62 -47q28 -25 29 -47.5t-25 -50.5q-78 -84 -201 -127q-2 -1 -13 -4t-16 -5q-54 -24 -53 -75q2 -30 0 -60q-5 -62 -65 -67q-45 -3 -90 0q-30 2 -48.5 20t-21.5 48q-1 9 -1 56q0 44 -12 62.5 t-52 34.5q-52 21 -105 58q-88 60 -134.5 148.5t-48.5 177z" />
<glyph unicode="'" horiz-adv-x="499" d="M98 1112q2 18 7 33q31 85 26 181q-2 36 0 73q3 72 75 75q47 2 85 -1q69 -5 74 -73v-56v-42q1 -63 -50 -104q-23 -17 -161 -120q-23 -17 -40 -7q-20 12 -16 41z" />
<glyph unicode="(" horiz-adv-x="585" d="M133 739q0 210 1 236q7 203 51 329q48 138 145 223q62 54 102 -16q8 -15 21.5 -43.5t16.5 -33.5q23 -47 -8 -84q-57 -68 -78.5 -151t-23.5 -187q-2 -111 0 -553q2 -102 30 -199q23 -76 64 -125q43 -51 11 -107q-5 -9 -14.5 -28l-14.5 -29q-23 -42 -50 -46.5t-62 27.5 q-110 98 -158 284q-26 101 -32 267q-1 39 -1 236z" />
<glyph unicode=")" horiz-adv-x="585" d="M115 39q-22 48 9 85q56 67 77.5 149.5t24.5 188.5q2 110 0 549q0 101 -27 195q-24 83 -67 132t-11 107q6 10 16.5 32t16.5 33q40 70 101 18q118 -102 165 -289q27 -106 32 -268v-235v-232q-7 -206 -50 -329q-48 -140 -140 -223q-36 -32 -62.5 -28t-49.5 46q-24 46 -35 69 z" />
<glyph unicode="*" horiz-adv-x="755" d="M138 1109q-10 20 1 42t35 31q11 4 32 11t32 11q1 0 6.5 1t8 2.5t2.5 5.5t-3 6t-8.5 3t-6.5 1q-9 3 -28.5 10t-29.5 10q-32 11 -41 36t8 54l18 30q16 23 39.5 26.5t44.5 -14.5q12 -10 33 -28.5t28 -24.5q5 -5 9 -3q1 3 -2 24q-2 11 -6.5 32.5t-6.5 32.5q-5 23 12 44t40 22 h11.5h13h10.5q31 3 57 -33q10 -15 6 -34q-4 -17 -13 -64q-1 -4 -2 -13.5t-2 -14.5q12 7 28 22t21 18q1 1 23 20q20 17 44 14t39 -24q16 -24 27 -46q10 -20 -1.5 -43t-34.5 -31q-11 -4 -34 -11.5t-34 -11.5q-1 0 -5 -1t-6 -2.5t-2 -4.5q0 -4 13 -9q14 -5 64 -22 q30 -11 39.5 -34.5t-5.5 -51.5q-6 -11 -20 -33t-39.5 -26.5t-46.5 15.5q-13 13 -57 50q-7 7 -10 5q-3 -1 -1 -11q2 -13 7 -38.5t8 -38.5q5 -23 -12.5 -44t-40.5 -22q-23 0 -34 -1q-33 -3 -59 36q-8 12 -5 30q5 21 16 79q3 8 -1 10q-3 1 -4 1t-3 -2.5t-3 -2.5 q-10 -8 -30 -25.5t-30 -26.5q-20 -17 -43.5 -14.5t-38.5 24.5q-14 21 -27 47z" />
<glyph unicode="+" horiz-adv-x="890" d="M118 693q-1 28 1 86q3 64 67 69q15 1 40.5 1h40.5q34 1 49 16.5t16 50.5v38.5t1 38.5q3 64 67 69q49 4 85 1q68 -5 73 -75q1 -14 1 -38.5v-38.5q2 -32 15.5 -46.5t44.5 -15.5h38.5t38.5 -1q72 -5 76 -75q2 -55 0 -82q-5 -64 -69 -67q-23 -1 -69 -1q-44 -1 -59.5 -16.5 t-16.5 -60.5v-56q-2 -42 -21 -61t-61 -20h-34h-13.5h-16h-13.5q-29 2 -47 19.5t-19 46.5q-1 15 -1 40.5v40.5q-3 64 -66 67q-13 1 -38.5 1h-38.5q-68 3 -71 69z" />
<glyph unicode="," horiz-adv-x="499" d="M98 -114q2 12 4 17q15 37 22 80t7.5 81.5t-0.5 82.5v30q5 62 66 67q49 3 98 0q65 -5 70 -73v-60v-38q1 -65 -53 -107q-43 -33 -154 -114q-28 -19 -43 -11q-21 12 -17 45z" />
<glyph unicode="-" horiz-adv-x="655" d="M108 702q-2 49 0 73q5 71 74 73h295q32 -1 50 -19.5t20 -51.5q2 -54 1 -81q-3 -70 -73 -72q-49 -1 -145 -1h-142q-40 1 -59 20t-21 59z" />
<glyph unicode="." horiz-adv-x="499" d="M133 66v56v51q3 66 66 71q49 3 98 0q30 -2 48.5 -20.5t20.5 -48.5q3 -53 0 -107q-2 -29 -20 -46t-47 -19q-51 -3 -103 0q-27 1 -44 18.5t-19 44.5z" />
<glyph unicode="/" horiz-adv-x="737" d="M96.5 52q-0.5 8 0 12.5t3.5 15.5t3 13q123 525 298 1277q15 63 40.5 85t92.5 18h38q84 -2 66 -83l-27 -117l-249 -1065q-24 -102 -32 -137q-7 -30 -31.5 -51.5t-58.5 -18.5q-12 1 -26.5 1t-32 -0.5t-27.5 -0.5q-36 0 -54 37q-3 6 -3.5 14z" />
<glyph unicode="0" d="M109 409q-3 326 0 652q1 196 166 324q122 95 287.5 104t305.5 -87q183 -135 187 -354v-315q0 -2 0.5 -151t-0.5 -151q-1 -170 -111.5 -296.5t-279.5 -148.5q-260 -35 -442 148q-111 113 -113 275zM334 443q-5 -86 43 -143.5t126 -81.5q69 -22 130 -10t106 45.5t70 88.5 t21 119q-3 47 -3 97.5t1 115.5t1 98v264q0 99 -74 167q-76 71 -203 59q-99 -9 -158.5 -73t-59.5 -163v-294v-285v-4z" />
<glyph unicode="1" horiz-adv-x="661" d="M108 1106q-8 51 0 102q8 45 54 62q93 33 127 140q19 61 86 62h20.5h24.5h20q42 -2 61 -21t19 -61v-523v-133v-634v-19q1 -19 0 -19q-3 -27 -19 -43.5t-42 -17.5q-33 -2 -99 0q-26 1 -43 16.5t-21 41.5q-1 6 -1 51q0 145 -0.5 435t-0.5 435v13.5v16v13.5q-4 54 -57 43 l-54 -12q-29 -5 -50 9.5t-25 42.5z" />
<glyph unicode="2" horiz-adv-x="1128" d="M134 86q-15 222 86 432q99 208 314 303q135 61 201 149q48 65 39 134q-6 47 -57 97t-105 57q-129 17 -212 -66q-34 -34 -56.5 -37t-65.5 20q-46 24 -66 39q-48 36 -16 82q70 99 175.5 147.5t211 43.5t204 -61t156.5 -154q57 -100 44.5 -224.5t-87.5 -217.5 q-99 -122 -262 -195q-214 -94 -270 -338q-17 -74 58 -74q342 -2 467 1q63 1 84.5 -25t18.5 -80v-18.5t-1 -19.5q-2 -41 -21 -59.5t-59 -18.5q-59 0 -176 -0.5t-175 -0.5h-343q-48 0 -66 17.5t-21 66.5z" />
<glyph unicode="3" horiz-adv-x="1105" d="M128 144q-34 42 1 77q43 43 99 74q39 21 86 -20q58 -52 142 -65q113 -17 203 34q116 65 109 188q-6 127 -123 186q-66 33 -141 33q-23 0 -34 1q-28 3 -45 21t-19 47q-2 45 0 90q2 27 18 44.5t43 21.5q20 3 47 1q51 -3 111 26q110 51 113 173q3 102 -109 165 q-61 33 -135.5 23.5t-128.5 -57.5q-52 -46 -72 -48t-82 30q-28 14 -41 22q-63 40 -18 97q139 180 381 184q267 -13 383 -232q115 -217 -34 -431q-37 -51 -36.5 -68t42.5 -61q52 -55 80 -133.5t27 -163t-43 -170t-123 -146.5q-151 -115 -348 -105.5t-330 137.5q-16 16 -23 25 z" />
<glyph unicode="4" horiz-adv-x="1157" d="M118 432q3 85 37 143q80 139 240.5 417.5t241.5 417.5q36 63 105 62h53.5h53.5q46 -1 65.5 -21t19.5 -66q1 0 0 -193v-193l1 -185q1 -184 -1 -184q-1 -37 11.5 -58.5t47.5 -30.5q48 -13 46 -69q-1 -38 0 -77q2 -59 -49 -72q-58 -15 -56 -83q2 -51 0 -154 q-1 -47 -20.5 -66t-65.5 -19h-64q-39 1 -56.5 19t-18.5 58q-1 57 -1 171q0 36 -19 55q-16 16 -56 16q-358 0 -403 -1q-68 -1 -91 23.5t-21 89.5zM430 563q13 -20 47 -18q17 1 154 1q43 0 59.5 16t17.5 60v193v188q0 30 -4 38q-6 13 -17 14.5t-21 -8.5q-4 -4 -11 -18 q-206 -387 -220 -412q-18 -34 -5 -54z" />
<glyph unicode="5" horiz-adv-x="1105" d="M119.5 187.5q0.5 28.5 49.5 66.5q37 28 49 36q47 33 94 -2l17.5 -14t19.5 -14q147 -89 304 -18q91 40 113 142q18 85 -1 198q-16 96 -104 144q-69 41 -151.5 34.5t-141.5 -65.5q-24 -24 -56 -34.5t-57.5 -10t-63.5 6.5q-46 6 -51 61q-1 9 -1 56v291v309q0 29 3 43 q9 50 62 55q0 1 13 0h13h613h21q64 -5 67 -68q2 -41 0 -82q-3 -69 -73 -70h-197q-149 0 -223 -1q-72 0 -73 -69v-189v-8q6 -59 62 -39q81 25 158 24t147 -32t125 -80.5t90.5 -121t44.5 -153.5q14 -138 9 -195q-19 -220 -224 -335q-143 -82 -315 -64.5t-297 129.5 q-46 41 -45.5 69.5z" />
<glyph unicode="6" d="M109 404v75v53.5t5 75.5q15 84 72 182q59 102 177 306.5t177 306.5q43 77 122 71h85q28 0 44 -15q27 -24 5 -62l-117 -204q-15 -25 -44.5 -76.5t-43.5 -76.5q-36 -65 38 -71q149 -12 262 -106q155 -128 164 -336q5 -83 -5 -157q-19 -148 -128.5 -258t-257.5 -129 q-234 -31 -408 115q-147 124 -147 306zM335 415q-3 -89 71 -149q101 -82 233 -59q72 13 125.5 68t61.5 125q10 84 -2 152q-23 134 -150 177q-145 49 -266 -47q-77 -62 -73 -157q1 0 1 -28l-1 -28v-54z" />
<glyph unicode="7" horiz-adv-x="1003" d="M114 1327v69q2 73 73 76q0 2 58 1l58 -1h201h296q39 0 54 -9q36 -20 36 -59q2 -149 -26 -232q-35 -102 -337 -1026q-3 -9 -11.5 -37.5t-14.5 -43.5q-23 -63 -91 -64h-90q-82 2 -55 78q52 150 125 356q43 123 129.5 368t130.5 367q1 3 4.5 10.5t4 10.5t1.5 11.5t-2 12.5 q-12 31 -56 31q0 -1 -120 0h-120h-167q-43 1 -61.5 20t-19.5 61z" />
<glyph unicode="8" horiz-adv-x="1177" d="M110 341q-37 224 117 375q24 24 28 33q13 30 -14 62q-64 74 -84 176q-36 182 58.5 316t273.5 176q49 12 102 10q224 -3 364 -178q56 -69 70 -171q25 -181 -80 -319q-30 -39 -29.5 -56.5t36.5 -50.5q99 -90 119 -239t-53 -269q-109 -176 -333 -219q-164 -31 -318 39 q-221 100 -257 315zM330 413q-6 -69 56 -129q73 -73 187.5 -79t194.5 59q54 43 70 90q14 51 11 101t-37.5 98t-93.5 74q-118 51 -234 11q-154 -55 -154 -225zM373 1082q0 -101 63 -150q73 -56 139 -60.5t139 39.5q55 32 78 88t10 115t-60 99q-88 76 -204 53 q-66 -14 -117.5 -64t-47.5 -120z" />
<glyph unicode="9" d="M108 945q-5 128 15 207q36 144 158 240.5t271 99.5q236 5 390 -154q113 -117 112 -274v-73q11 -86 -12.5 -164.5t-76.5 -167.5q-115 -196 -341 -590q-45 -78 -125 -70q-10 2 -45 1.5t-45 -0.5q-36 2 -47.5 22.5t6.5 52.5q64 112 192 334l9 15q21 37 13 53.5t-51 22.5 q-131 17 -217 75q-195 133 -206 370zM336 934q10 -81 58.5 -134t126.5 -69q131 -27 237 59q71 57 70 145v58q0 11 -0.5 34t-0.5 35q-1 73 -54 126q-88 87 -228 77q-75 -5 -131.5 -55.5t-72.5 -123.5q-15 -69 -5 -152z" />
<glyph unicode=":" horiz-adv-x="499" d="M133 66v56v17.5v20.5v17q2 28 18 46t43 20q54 5 107 0q29 -2 46.5 -20.5t18.5 -47.5q3 -53 0 -107q-2 -29 -20 -46t-47 -19q-51 -3 -103 0q-27 1 -44 18.5t-19 44.5zM133 694v51v56q2 27 19 44.5t44 18.5q52 3 103 0q28 -2 46 -18t20 -43q5 -57 0 -115 q-2 -28 -20.5 -45.5t-47.5 -19.5q-49 -3 -98 0q-63 5 -66 71z" />
<glyph unicode=";" horiz-adv-x="499" d="M98 -114q2 12 4 17q33 82 29 240v29q5 66 70 71q45 3 90 0q69 -5 74 -73v-60v-38q1 -65 -53 -107q-43 -33 -154 -114q-27 -19 -43 -10q-21 12 -17 45zM131 689v17.5v21v17.5v17.5v20.5v17q2 27 19.5 44.5t44.5 18.5q51 3 102 0q29 -2 47 -19t20 -46q2 -44 -1 -107 q-2 -30 -20.5 -48.5t-48.5 -20.5q-49 -3 -98 0q-60 5 -65 67z" />
<glyph unicode="&#x3c;" horiz-adv-x="610" d="M132 671v69v60q-2 66 60 90q90 36 213 77q26 9 47 -4.5t24 -41.5q4 -36 0 -90q-4 -37 -49 -66q-24 -16 -25 -28t23 -28q57 -37 53 -100v-28t-1 -28q-4 -30 -25 -43.5t-49 -3.5q-107 37 -210 77q-62 24 -61 88z" />
<glyph unicode="=" horiz-adv-x="890" d="M160 601q3 67 72 69h67.5h79h67.5h205q79 0 80 -78l1 -34q0 -34 -1 -34q-1 -77 -80 -80h-30h-355q-29 0 -43 2q-27 4 -44 21t-18 44q-3 40 -1 90zM160 961q3 67 72 69h67.5h79h67.5h102q102 1 103 0q79 0 80 -78v-73q-3 -70 -72 -74h-47h-347q-35 0 -42 1q-27 4 -44 21 t-18 44q-3 40 -1 90z" />
<glyph unicode="&#x3e;" horiz-adv-x="610" d="M133 857v30t1 30q4 30 24.5 44t48.5 4q119 -41 209 -76q66 -26 63 -92v-20v-24.5v-20.5v-64q0 -62 -59 -86q-70 -28 -214 -78q-27 -9 -47 4t-24 41q-7 52 0 94q6 34 48 63q26 18 25.5 29.5t-26.5 28.5q-53 34 -49 93z" />
<glyph unicode="?" horiz-adv-x="1013" d="M112 1309q139 178 354 182q142 3 255.5 -68t167.5 -194q60 -137 13 -275q-38 -114 -125 -213q-39 -44 -66 -67q-91 -76 -102 -208q-6 -68 -25 -85.5t-86 -17.5q-23 0 -34 1q-29 2 -46.5 19.5t-19.5 46.5v51q3 184 131 315q10 10 38 37t46 47t33 41q55 78 51 155 q-3 63 -45.5 113t-107.5 67q-128 33 -227 -57q-23 -21 -32 -27q-38 -27 -77 -5q-11 6 -38 19.5t-41 22.5q-64 40 -17 100zM386 62v55v52q5 62 64 67q67 4 111 0q27 -2 45 -19t20 -44q5 -64 1 -116q-2 -27 -19.5 -44t-45.5 -18q-56 -3 -112 0q-28 1 -45 19.5t-19 47.5z" />
<glyph unicode="@" horiz-adv-x="1679" d="M88 801q16 237 176 424q198 233 499 263q311 30 552 -166q239 -196 274 -507q17 -159 -34 -296q-35 -94 -107.5 -147t-164.5 -52q-93 0 -162 66q-48 47 -112 14q-71 -37 -149 -41.5t-147 21.5t-126 74t-91.5 121t-36.5 158q-4 144 87.5 250t230.5 131q73 14 149.5 -5.5 t140.5 -66t107 -126.5t46 -179q2 -92 13 -127q12 -37 34 -54q15 -12 26.5 -12t26.5 12q26 20 34 58q40 186 -35 345t-230 244q-132 72 -246 62q-118 4 -229.5 -48t-192 -153t-102.5 -228q-20 -114 5.5 -221t85 -187t146.5 -135t187 -74q159 -29 290 28q39 17 62.5 9 t45.5 -45q17 -30 37 -67q29 -56 -23 -88q-15 -10 -34 -16q-432 -158 -772 128q-287 242 -261 633zM685 743q-4 -59 41 -107t107 -52q62 -1 109 41t51 107q4 60 -38 108t-108 52q-61 4 -109.5 -39t-52.5 -110z" />
<glyph unicode="A" horiz-adv-x="1228" d="M102 76q57 215 143 530q35 128 105.5 384.5t105.5 384.5q8 33 10 37q24 61 85 61h115q43 -1 66.5 -19t35.5 -60t35 -126.5t34 -126.5q46 -170 138.5 -509t138.5 -508q14 -54 15 -58q1 -7 1 -13q0 -17 -10 -31q-14 -19 -38 -20q-30 -2 -58 -2q-34 0 -66 3q-52 4 -67 62 q-13 50 -37 150q-1 4 -2.5 11t-3 12.5t-3.5 9.5q-22 53 -75 53h-159h-146q-36 -1 -56 -16.5t-29 -50.5q-3 -13 -39 -158q-11 -40 -32.5 -57.5t-61.5 -17.5q-60 0 -90 1q-35 2 -49 22q-9 12 -9 29q0 10 3 23zM472 611q-6 -25 -6 -42q0 -19 8 -29q14 -18 67 -18h72q83 0 99 1 q28 1 42 18q10 13 10 33q0 6 -1 12q-1 5 -5 20q-19 78 -57.5 235t-57.5 236q-4 18 -8 24q-7 13 -19.5 13t-20.5 -13q-6 -10 -10 -28l-18 -75q-16 -65 -47.5 -194t-47.5 -193z" />
<glyph unicode="B" horiz-adv-x="1148" d="M113 92q1 107 1 643v630v38q3 63 68 69q13 1 38 1q354 0 386 1q8 0 17 1q73 0 137 -25q70 -27 118 -75t78.5 -104.5t44.5 -120.5q11 -52 11 -104q0 -114 -55 -220q-2 -3 -4.5 -8l-3.5 -7q-14 -22 -14 -44q0 -27 22 -54q77 -94 92 -219q5 -38 5 -74q0 -200 -142 -331 q-96 -88 -222 -88q-129 1 -232 1q-155 0 -252 -2h-4q-48 0 -68 22q-20 24 -21 70zM340 290q2 -67 66 -68q84 -1 147 -1t105 1q103 1 148 99q23 49 23 102q0 38 -12 78q-17 59 -59.5 91.5t-104.5 34.5q-40 1 -101.5 1t-142.5 -1q-68 -1 -69 -68v-42v-49v-42v-136zM340 914 q2 -64 63 -65q82 -1 136.5 -1t82.5 1q93 3 139 93q24 49 24 104q0 28 -6 59q-13 63 -61 105q-42 37 -103 38q-9 0 -17 -1q-25 -2 -54 -2t-64 1t-54 1q-55 0 -70.5 -16t-15.5 -73v-111v-133z" />
<glyph unicode="C" horiz-adv-x="1101" d="M105 428q-1 2 1 298q0 98 1 165q0 132 -2 134v12q-1 77 23 145q26 74 71 127.5t101.5 91.5t121.5 58q92 29 177 29q185 0 344 -133q17 -13 30 -30q20 -24 20 -46q0 -26 -27 -50q-32 -28 -72 -55q-20 -15 -41 -15q-22 0 -46 17q-3 2 -9.5 7.5t-9.5 8.5q-91 72 -192 72 q-68 0 -139 -33q-127 -58 -126 -197q1 -1 1 -68v-83q0 -149 -1 -151v-290q0 -99 56 -161.5t155 -75.5q25 -3 49 -3q118 0 206 77q30 27 51.5 27t54.5 -24q44 -32 64 -50q28 -26 28 -49q0 -21 -24 -47q-118 -131 -307 -155q-40 -5 -78 -5q-129 0 -238 58q-243 130 -243 394z " />
<glyph unicode="D" d="M130 89v1295q0 48 20 68.5t68 20.5q38 0 118 1q53 1 99 1q23 -1 43 -1q62 0 118 -2q282 -11 411 -237q50 -89 50 -202v-95.5v-112.5v-96l1 -148q0 -148 -1 -148q-3 -162 -80 -271q-113 -161 -298 -161h-2h-459q-49 0 -68.5 19.5t-19.5 68.5zM356 296q0 -39 17.5 -56.5 t55.5 -17.5q56 -1 111.5 -1t111.5 1q123 2 164 121q15 45 15 84v604q-1 121 -114 184q-51 29 -97 30q-55 2 -118 2q-42 0 -88 -1q-24 0 -39 -14.5t-18 -38.5q-1 -7 -1 -39v-416v-442z" />
<glyph unicode="E" horiz-adv-x="1064" d="M129 88v648v626q0 35 1 42q6 60 67 66q10 1 30 1h630q24 0 35 -1q60 -8 63 -68q0 -22 0.5 -45t-0.5 -45q-2 -27 -18 -44.5t-43 -21.5q-7 -1 -43 -1q-69 0 -208 -0.5t-208 -0.5q-46 0 -63 -16.5t-17 -61.5v-244q0 -40 17.5 -58t58.5 -18h218q50 0 69.5 -19t20.5 -71l1 -30 q0 -30 -1 -30q-3 -76 -78 -77q-69 -1 -206 -1h-19q-19 1 -19 0q-58 -3 -61 -59q-1 -15 -1 -90v-171q0 -43 17.5 -60.5t59.5 -17.5h425q25 0 38 -1q25 -2 41.5 -17.5t17.5 -39.5q2 -34 2 -63q0 -22 -1 -40q-1 -26 -18 -41.5t-44 -17.5q-9 -1 -26 -1h-647q-51 0 -71 19t-20 70 z" />
<glyph unicode="F" horiz-adv-x="1064" d="M129 106v630v622q0 29 1 43q5 65 72 70q9 1 25 1h631q23 0 34 -1q60 -8 63 -69q0 -22 0.5 -43t-0.5 -43q-1 -31 -18.5 -49t-47.5 -21q-14 -1 -43 -1h-412q-45 0 -62 -16.5t-17 -62.5v-241q0 -43 17.5 -60.5t59.5 -17.5h223q44 0 63.5 -19t20.5 -64q1 -16 1 -32t-1 -33 q-3 -79 -80 -80h-223q-47 0 -64 -17t-17 -65v-442q0 -31 -1 -38q-3 -24 -18 -39.5t-38 -16.5q-26 -2 -53 -1.5t-54 1.5q-24 1 -40 17t-20 41q-2 15 -2 47z" />
<glyph unicode="G" horiz-adv-x="1167" d="M110 738v285v18q0 75 22 141q25 75 70.5 128.5t101.5 91t120 57.5q94 30 182 30q186 0 344 -134q12 -10 32 -34q17 -21 17 -41q0 -22 -21 -43q-36 -36 -92 -70q-26 -16 -57 0q-15 9 -35 25q-92 72 -193 72q-66 0 -137 -31q-128 -56 -128 -200q1 -222 1 -370l-1 -226 q0 -99 55 -154q56 -56 142 -74q34 -7 64 -7q100 0 172 74q56 56 60 133q2 30 2 78q0 31 -1 71q-1 58 -62 59h-133q-49 1 -68.5 20t-20.5 67v34q-1 35 0 35q3 71 72 72h67.5h79h67.5l75 1q75 0 75 -1q75 -1 75 -74q1 -98 1 -176q0 -117 -2 -191q-3 -145 -101 -262.5 t-246 -149.5q-69 -15 -132 -15q-223 0 -380 186q-84 99 -86 255q-1 109 -1 320z" />
<glyph unicode="H" horiz-adv-x="1189" d="M134 62v5v15v19v634v630v35q3 66 69 71q14 1 34.5 1t47.5 -1q73 -3 74 -76v-154v-313q0 -46 17 -63.5t62 -17.5h317q41 0 58 17t17 58q0 74 0.5 220.5t0.5 220.5q0 36 1 43q3 28 19.5 45t43.5 19q24 2 49 2l49 -2q28 -2 44.5 -20.5t18.5 -48.5v-10.5v-12.5v-11v-1265v-30 q-3 -71 -71 -72q-20 -1 -41 -1l-41 1q-66 1 -72 69q-1 0 -1 19l1 19v420q0 26 -1 39q-6 50 -56 53h-56h-279q-50 0 -65 -15.5t-15 -65.5v-433q0 -37 -2 -47q-10 -55 -64 -57q-24 -1 -47.5 -1t-47.5 1q-59 3 -64 61z" />
<glyph unicode="I" horiz-adv-x="491" d="M133 68v39v630v626v38q3 65 67 70q22 2 45 1l45 -1q62 -5 68 -69v-39q0 -837 1 -1256q-1 -61 -21 -87q-17 -22 -64 -21q-11 0 -23 1h-26h-25q-64 3 -67 68z" />
<glyph unicode="J" horiz-adv-x="1044" d="M111 219q-10 21 -10 38q0 36 42 54q24 11 97 33q9 3 17 3q24 0 46 -22q15 -15 32 -39q41 -53 99 -72q28 -10 58 -10t60 10q58 19 95.5 68t41.5 112q1 19 1 56v915q0 65 20 85.5t85 20.5h13.5h16h13.5q40 -2 58.5 -21.5t18.5 -59.5q0 -85 0.5 -255t0.5 -255 q0 -317 -1 -478q-1 -154 -97 -270t-248 -146q-40 -8 -80 -8q-97 0 -190 47q-130 66 -189 194z" />
<glyph unicode="K" horiz-adv-x="1173" d="M133 110v626v626q0 29 1 43q6 61 66 66q21 2 45 2q16 0 33 -1q42 -1 61.5 -20.5t19.5 -61.5v-382v-56q0 -16 7 -29q17 -29 38 -4l36 48q212 294 318 442q45 63 115 63h8q0 -2 49 -1l49 1q22 0 38 -8q19 -10 23.5 -26.5t-7.5 -33.5q-11 -15 -23.5 -31.5t-28 -36.5 t-23.5 -31q-46 -59 -137 -176.5t-136 -176.5q-5 -8 -10 -13q-26 -30 -26 -64q0 -26 16 -55q23 -41 145 -268q42 -78 125.5 -232t125.5 -231q1 -2 5.5 -10t6.5 -13q5 -12 5 -23t-6 -21q-11 -20 -37 -21q-21 -1 -51 -1q-40 0 -95 2q-31 1 -59 39q-6 8 -25 44 q-45 90 -135.5 270.5t-135.5 270.5q-25 49 -45 51h-2q-20 0 -52 -42q-21 -27 -32 -40.5t-21.5 -32.5t-13.5 -23t-6.5 -24.5t-3 -24t0.5 -34v-43.5v-313q0 -24 -1 -35q-5 -61 -65 -64q-40 -1 -67 -1h-23q-61 2 -69 63q-1 8 -1 47z" />
<glyph unicode="L" horiz-adv-x="1064" d="M128 105v634v631q0 25 1 38q5 60 63 63q16 1 40 1t55 -1q58 -3 66 -61q1 -9 1 -51v-1038q0 -64 16 -79.5t81 -15.5h400q36 0 43 -1q26 -4 42.5 -20.5t18.5 -41.5q2 -20 2 -44.5t-2 -54.5q-2 -27 -19 -44t-44 -20h-4h-11h-15h-637q-29 0 -34 1q-57 8 -62 65q-1 13 -1 39z " />
<glyph unicode="M" horiz-adv-x="1363" d="M131 1368q1 58 21 84q17 22 65 23q9 0 19 -1q16 -1 95 -1q43 0 64.5 -16.5t33.5 -58.5q13 -46 52 -190q28 -102 83.5 -306t83.5 -306q1 -5 3.5 -14.5t4.5 -14.5q0 -1 1.5 -6.5t2.5 -9t3 -8.5t4 -8.5t4.5 -7t5.5 -5t7 -1.5q8 0 13 8t8.5 22.5t4.5 16.5q3 9 9 29 q35 128 105 384.5t105 384.5q12 43 16 53q23 54 75 54l70 1q71 0 71 -1q70 -1 71 -73q1 -60 1 -180v-484v-626q0 -26 -1 -39q-2 -29 -18.5 -47.5t-44.5 -20.5q-31 -2 -58 -2q-20 0 -36 1q-29 1 -46.5 19t-20.5 47q-1 14 -1 43v558q0 15 -2 43q0 1 -0.5 7.5t-1 10.5t-3.5 9 t-8 6q-6 1 -10 -2t-5.5 -7t-2.5 -10.5t-2 -8.5q-10 -30 -14 -45q-25 -101 -71 -297t-65 -275q-1 -4 -2.5 -11t-3 -12.5t-3.5 -9.5q-24 -57 -82 -57h-91q-74 1 -91 74q-14 56 -29.5 119t-34.5 140t-29 119q-6 26 -23.5 103.5t-26.5 114.5q0 2 -1 4.5t-1 3.5q-2 4 -6 21 t-9.5 27t-13.5 9q-11 -2 -14.5 -13t-3 -30t0.5 -22v-34v-554q0 -51 -19.5 -70t-70.5 -20h-69q-60 5 -66 66q-1 13 -1 39q0 841 -1 1261z" />
<glyph unicode="N" horiz-adv-x="1193" d="M124 106v1264v35q6 67 72 68h43.5t42.5 1h6q45 0 78 -42q13 -15 25 -40q65 -126 194.5 -379t194.5 -380q17 -33 22 -42q10 -14 26 -10q13 4 15 19q1 14 1 43l1 363v201q0 161 -1 161q0 58 20 84q17 22 66 23q9 0 19 -1h28t28 -1q60 -3 65 -65v-5v-15v-19v-630v-626v-34 q-1 -74 -77 -77h-36.5t-36.5 -1h-6q-52 0 -88 50q-2 3 -19 34q-66 129 -197 386t-197 385q-16 30 -22 37q-9 10 -20.5 8t-16.5 -15q-4 -10 -4 -47v-729q0 -25 -1 -38q-2 -30 -18 -48.5t-44 -20.5q-20 -2 -44.5 -2t-54.5 2q-56 5 -63 64q-1 13 -1 39z" />
<glyph unicode="O" d="M109 409q-2 163 -1.5 326t1.5 326q1 196 166 324q121 95 287 104q14 1 29 1q149 0 277 -88q183 -135 187 -354v-315q1 -2 1 -151v-83q0 -67 -1 -68q-1 -170 -111.5 -296.5t-279.5 -148.5q-42 -6 -81 -6q-208 0 -361 154q-111 113 -113 275zM334 443v-16q0 -75 43 -127 q48 -58 126 -82q45 -14 86 -15q23 0 44 5q61 12 106 45.5t70 88.5q22 47 22 102q0 9 -1 17q-3 47 -3 97.5t1 115.5t1 98v264q0 99 -74 167q-65 61 -167 61q-17 0 -36 -2q-99 -9 -158.5 -73t-59.5 -163v-294v-285v-4z" />
<glyph unicode="P" horiz-adv-x="1134" d="M124 78v38v622v625q0 39 1 47q4 29 22 46t47 17q108 1 190 1q164 0 221 -3q77 -4 151 -35.5t134.5 -86t97.5 -137t37 -178.5q0 -22 1 -66t1 -71t-2 -64.5t-7 -68.5q-30 -194 -177 -296q-80 -56 -181 -56q-26 0 -105 -1h-47q-41 0 -58 1h-10q-52 0 -72 -18 q-19 -18 -19 -69v-15q1 -24 1 -219q0 -50 -20 -69t-71 -20h-60q-70 3 -75 76zM350 700q2 -65 67 -67q52 -1 105 -1l105 1q105 1 151 106q22 50 22 109v88v66v22q1 93 -57 150.5t-136 70.5q-42 7 -179 7q-43 0 -60.5 -17t-17.5 -60v-231v-77v-90.5v-76.5z" />
<glyph unicode="Q" d="M109 412q-1 147 -1 286q0 186 2 358q4 272 264 387q115 51 222 51q144 0 274 -93q180 -130 185 -351q1 -1 1 -71v-87q-1 -157 -1 -158v-294q0 -215 -163 -353q-52 -43 -52 -63t39 -68q38 -47 38 -71q0 -26 -52 -69q-28 -24 -43 -35q-23 -17 -45 -17q-26 0 -50 24 q-7 7 -52 63q-30 36 -56 71q-43 57 -114 67q-168 26 -281 144t-115 279zM334 440v-7q0 -77 40 -129q42 -55 115 -80q51 -19 98 -19q18 0 36 3q64 10 111.5 43t73.5 90q23 48 23 103q0 10 -1 21q-3 38 -3 78.5t1 93t1 79.5v315q0 109 -79 178q-62 55 -163 55q-18 0 -38 -2 q-97 -10 -155.5 -73.5t-58.5 -160.5v-294q0 -261 -1 -294z" />
<glyph unicode="R" horiz-adv-x="1126" d="M124 73v5v16v21v622v622v43q5 71 74 71h76h89h76l79 1q79 0 79 -1q147 -5 265.5 -102t150.5 -237q8 -36 9 -54q0 -10 2 -54t2.5 -59.5t0.5 -52.5t-1 -59t-3.5 -52t-7.5 -57q-29 -169 -161 -269q-5 -3 -13 -11q-24 -22 -27 -40.5t13 -46.5q108 -192 161 -288q1 -1 3.5 -7 t4.5 -8q17 -23 3 -47t-39 -26q-40 -3 -72 -3q-38 0 -65 4q-48 7 -75 59q-22 44 -67 131.5t-68 131.5q-2 4 -8 16.5t-10 18.5q-31 51 -86 51h-2h-86q-71 -1 -71 -71v-253q0 -46 -19.5 -65.5t-66.5 -20.5h-68q-67 5 -72 71zM350 700q1 -65 66 -67q52 -1 105 -1l105 1 q103 1 150 102q10 22 15 49q9 55 9 144q0 59 -4 134q-4 67 -67 125q-47 43 -122 58q-21 4 -46.5 6t-41.5 2t-47.5 -0.5t-43.5 -0.5q-43 0 -60.5 -17.5t-17.5 -59.5v-231v-77v-90.5v-76.5z" />
<glyph unicode="S" horiz-adv-x="1085" d="M100 1163q30 133 139 222q131 107 296 108q10 0 20 -1q177 -7 305 -132q26 -26 47 -56q14 -20 14 -38q0 -22 -22 -41q-42 -36 -112 -62q-9 -4 -19 -4q-22 0 -45 20l-45 39q-65 50 -144 50q-9 0 -17 -1q-89 -6 -151 -71q-49 -51 -50 -122q0 -4 1 -10q4 -78 62 -127 q45 -38 123 -59q21 -6 57.5 -15t67 -17.5t56.5 -17.5q100 -36 168 -93q121 -103 140 -271q3 -26 3 -51q0 -133 -80 -238q-117 -154 -318 -185q-52 -9 -73 -9h-6q-220 8 -360 132q-46 41 -46 70t52 69l42 30q30 22 53 21.5t51 -24.5q65 -54 142 -66q32 -5 62 -5q129 0 211 92 q46 50 46 119q0 9 -1 19q-7 80 -67 128q-62 49 -180 77q-134 31 -214 73q-125 66 -181 190q-37 81 -37 166q0 45 10 91z" />
<glyph unicode="T" horiz-adv-x="1044" d="M110 1328q-1 26 -1 45t1 32q5 68 72 68q170 1 341 1l341 -1q68 0 71 -68q0 -22 0.5 -43.5t-0.5 -42.5q-3 -64 -69 -66h-150q-46 0 -63.5 -18t-17.5 -65l1 -1069q0 -59 -24 -81q-22 -20 -66 -20q-8 0 -16 1t-24 1h-24q-68 5 -72 73q-1 13 -1 39v519v540q0 40 -11 54 q-19 26 -60 26h-150q-39 1 -58 18.5t-20 56.5z" />
<glyph unicode="U" horiz-adv-x="1187" d="M120 897q0 485 1 486q0 20 2 30q10 54 64 57q24 1 47 1l47 -1q60 -3 65 -65q1 -13 1 -39q0 -82 1 -283q1 -134 0 -243v-104q0 -146 -3 -282v-6q0 -110 70 -172q72 -64 173 -69h14q81 0 143 43q67 47 89 129q7 28 7 85v899q0 61 21 87q18 22 66 22q9 0 20 -1q9 -1 27 -1 h28q59 -5 64 -62q1 0 1 -20l-1 -19v-476v-453q-1 -178 -110.5 -304t-285.5 -149q-39 -5 -77 -5q-207 0 -360 154q-113 115 -113 275q-1 1 -1 216v270z" />
<glyph unicode="V" horiz-adv-x="1228" d="M101 1396q-2 10 -2 19q0 19 10 33q15 21 46 23q26 2 53 1.5t54 -1.5q61 -3 78 -73q4 -17 63 -254q30 -124 91 -373t92 -373q1 -2 2 -10t2.5 -11.5t4.5 -8.5t8 -7t13 -2q9 0 14.5 5.5t7 8.5t4 15t2.5 13q79 316 134 541q18 75 54.5 224.5t55.5 224.5q11 45 33.5 62.5 t69.5 18.5h60q52 -1 69 -23q10 -12 10 -34q0 -16 -6 -37q-49 -179 -147 -537.5t-147 -537.5q-10 -37 -29.5 -110t-29.5 -110q-6 -22 -13 -36q-25 -46 -71 -46h-69h-73h-2q-50 0 -74 52q-3 6 -10 32q-59 215 -176.5 645.5t-175.5 645.5q0 1 -2.5 8.5t-3.5 11.5z" />
<glyph unicode="W" horiz-adv-x="1638" d="M104 1395q-2 9 -2 17q0 22 13 38q17 22 51 23q17 1 42.5 1t60.5 -1q71 -2 83 -70q7 -41 19.5 -120.5t13.5 -87.5q18 -121 56 -363.5t56 -364.5q5 -30 7 -34q10 -31 20 -30q7 1 18 34q0 1 3 17q98 620 146 931q7 44 33 68q23 21 56 21q5 0 11 -1q0 -1 30 -1l30 1 q43 -1 65 -19.5t29 -59.5q23 -142 67 -428q13 -84 39.5 -250.5t39.5 -249.5q1 -5 3 -14.5t3 -14.5q8 -34 18 -34q14 -1 21 35q6 31 16 93l132 864q12 77 86 78q24 1 47 1l47 -1q71 -3 71 -63q0 -11 -2 -24q-20 -108 -60 -324.5t-60 -324.5q-20 -107 -59.5 -320t-59.5 -320 q-4 -26 -8 -38q-16 -55 -76 -57h-47h-47h-86q-69 1 -83 65q-2 10 -33 172q-11 62 -34 185.5t-35 185.5q-1 2 -1 6.5t-1 6.5q-1 3 -2.5 10.5t-3 14t-4 13.5t-6 10.5t-8.5 3.5q-15 -1 -23 -52q-15 -71 -23 -118q-47 -257 -79 -425q-8 -43 -29.5 -60.5t-64.5 -17.5h-159 q-43 0 -64 17.5t-29 60.5q-40 208 -59 312q-23 121 -67.5 362.5t-66.5 362.5q-2 13 -22 118t-29 160z" />
<glyph unicode="X" horiz-adv-x="1187" d="M97 24q-5 8 -5 19q0 14 9 32q30 59 94 177q37 70 113 210t113 210q2 3 6.5 12t7.5 14q18 29 18 60q0 30 -17 61q-17 29 -138 254q-132 245 -171 320q-20 38 -6.5 59t58.5 22q9 0 39 -1t46 0h2q71 0 108 -66q22 -41 66 -123.5t66 -124.5q4 -8 22.5 -42t28.5 -52 q18 -32 37.5 -32t36.5 32q59 108 175 326q15 30 34 49q33 33 71 33h107q38 -2 50 -22.5t-6 -54.5q-78 -147 -234 -439q-64 -118 -76 -139q-17 -29 -18 -59q0 -29 17 -58q45 -82 126.5 -235t101.5 -189q70 -130 104 -195q12 -23 12 -39q-1 -11 -5 -19q-12 -20 -55 -21h-43 t-43 -1h-9q-67 0 -103 67q-21 40 -63.5 118t-63.5 118q-13 23 -38 69.5t-37 69.5q-1 2 -3 5.5t-3 5.5q-17 27 -36 27.5t-35 -27.5q-13 -24 -36.5 -69t-29.5 -55q-23 -42 -68.5 -127t-68.5 -128q-6 -13 -13 -22q-34 -52 -84 -52h-7q-16 1 -47 1h-60q-35 1 -47 21z" />
<glyph unicode="Y" horiz-adv-x="1187" d="M88 1430q2 16 17.5 29t34.5 14q50 1 83 1t50 -1q49 -3 73 -64q12 -33 36.5 -100.5t37.5 -100.5q24 -64 71.5 -193t70.5 -193q1 -3 3.5 -11t4.5 -12t5.5 -9.5t9 -7.5t13.5 -2q7 0 12 2.5t8 7.5t5 9t4 11.5t3 10.5q32 89 95 266.5t94 266.5q18 53 26 68q26 52 79 52h2h57.5 t58.5 -1q37 -1 51 -22q7 -11 7 -24.5t-7 -30.5q-154 -372 -232 -558q-22 -52 -66.5 -157.5t-66.5 -158.5q-19 -45 -19 -104v-313q0 -26 -1 -39q-6 -63 -71 -65h-73q-45 1 -63 19t-18 64v172v141v11q0 61 -29 131q-70 166 -354 850q-1 2 -5.5 11.5t-6.5 15.5v8v6z" />
<glyph unicode="Z" horiz-adv-x="1105" d="M123 62q-1 29 -1 55q0 40 2 74q1 31 31 83q84 149 251.5 447t251.5 446q1 2 6 9.5t7 12.5q10 21 1.5 36.5t-31.5 19.5q-7 1 -38 1h-365q-32 0 -38 1q-27 4 -43.5 21.5t-17.5 45.5q0 22 -0.5 45t0.5 45q3 59 65 67q11 1 34 1h630q23 0 34 -1q28 -4 45.5 -21t18.5 -43 q1 -21 1 -41q0 -117 -45 -194q-66 -112 -139 -241.5t-159.5 -284t-136.5 -243.5q-6 -11 -30.5 -53.5t-36.5 -66.5q-13 -26 -3 -42.5t39 -18.5q11 -1 64 -1h378q46 0 65 -19.5t20 -66.5q0 -43 -1 -64q-5 -70 -74 -70h-356h-343q-35 0 -46 5q-39 18 -40 56z" />
<glyph unicode="[" horiz-adv-x="716" d="M138 71v10.5v12.5v11v1264v35q5 67 71 69h150h138q42 -1 60.5 -20.5t20.5 -61.5v-56q-2 -47 -22.5 -67t-67.5 -21h-20h-24h-20q-30 -2 -44 -15t-16 -43v-34v-836v-21q1 -41 15.5 -55.5t57.5 -15.5q43 0 64 -1q73 -5 77 -75q2 -26 0 -77q-3 -70 -73 -72q-148 -1 -296 0 q-33 0 -51 18t-20 51z" />
<glyph unicode="\" horiz-adv-x="737" d="M99 1390q-18 81 66 83h39q67 4 92 -17.5t40 -85.5q175 -752 298 -1277q1 -3 3 -10.5t2.5 -12t1.5 -10.5t0 -11.5t-4 -10.5q-19 -37 -54 -37h-85q-34 -3 -58.5 18.5t-31.5 51.5q-8 35 -32 137l-249 1065q-4 20 -14 59t-14 58z" />
<glyph unicode="]" horiz-adv-x="716" d="M139 70q-1 43 0 86q3 69 73 72h36.5t36.5 1q37 1 52.5 16t15.5 52q1 0 1 120l-1 120v618q0 25 -1 38q-4 51 -54 55q-12 1 -73 1q-46 1 -65.5 20.5t-20.5 65.5v68q3 69 69 71q150 2 300 0q64 -2 70 -66q1 -14 1 -43v-626v-626q0 -31 -2 -47q-4 -28 -21 -44.5t-44 -17.5 q-103 -2 -309 0q-28 1 -45 19t-19 47z" />
<glyph unicode="^" horiz-adv-x="716" d="M112 1202q41 119 76 209q24 63 89 62h68h60q66 2 90 -60q42 -105 78 -213q9 -26 -4.5 -47t-41.5 -24q-36 -4 -90 0q-38 4 -67 49q-16 24 -27.5 24.5t-27.5 -23.5q-37 -56 -101 -52h-27.5t-27.5 1q-30 4 -43.5 25t-3.5 49z" />
<glyph unicode="_" horiz-adv-x="890" d="M117.5 115q-0.5 27 0.5 27q1 43 21.5 62.5t64.5 21.5h47h416q36 0 43 -1q27 -4 44 -21t18 -44q2 -28 0 -86q-2 -73 -75 -73h-253h-240q-46 0 -65.5 19.5t-20.5 66.5q0 1 -0.5 28z" />
<glyph unicode="a" horiz-adv-x="1228" d="M102 76q57 215 143 530q35 128 105.5 384.5t105.5 384.5q8 33 10 37q24 61 85 61h115q43 -1 66.5 -19t35.5 -60t35 -126.5t34 -126.5q46 -170 138.5 -509t138.5 -508q14 -54 15 -58q1 -7 1 -13q0 -17 -10 -31q-14 -19 -38 -20q-30 -2 -58 -2q-34 0 -66 3q-52 4 -67 62 q-13 50 -37 150q-1 4 -2.5 11t-3 12.5t-3.5 9.5q-22 53 -75 53h-159h-146q-36 -1 -56 -16.5t-29 -50.5q-3 -13 -39 -158q-11 -40 -32.5 -57.5t-61.5 -17.5q-60 0 -90 1q-35 2 -49 22q-9 12 -9 29q0 10 3 23zM472 611q-6 -25 -6 -42q0 -19 8 -29q14 -18 67 -18h72q83 0 99 1 q28 1 42 18q10 13 10 33q0 6 -1 12q-1 5 -5 20q-19 78 -57.5 235t-57.5 236q-4 18 -8 24q-7 13 -19.5 13t-20.5 -13q-6 -10 -10 -28l-18 -75q-16 -65 -47.5 -194t-47.5 -193z" />
<glyph unicode="b" horiz-adv-x="1148" d="M113 92q1 107 1 643v630v38q3 63 68 69q13 1 38 1q354 0 386 1q8 0 17 1q73 0 137 -25q70 -27 118 -75t78.5 -104.5t44.5 -120.5q11 -52 11 -104q0 -114 -55 -220q-2 -3 -4.5 -8l-3.5 -7q-14 -22 -14 -44q0 -27 22 -54q77 -94 92 -219q5 -38 5 -74q0 -200 -142 -331 q-96 -88 -222 -88q-129 1 -232 1q-155 0 -252 -2h-4q-48 0 -68 22q-20 24 -21 70zM340 290q2 -67 66 -68q84 -1 147 -1t105 1q103 1 148 99q23 49 23 102q0 38 -12 78q-17 59 -59.5 91.5t-104.5 34.5q-40 1 -101.5 1t-142.5 -1q-68 -1 -69 -68v-42v-49v-42v-136zM340 914 q2 -64 63 -65q82 -1 136.5 -1t82.5 1q93 3 139 93q24 49 24 104q0 28 -6 59q-13 63 -61 105q-42 37 -103 38q-9 0 -17 -1q-25 -2 -54 -2t-64 1t-54 1q-55 0 -70.5 -16t-15.5 -73v-111v-133z" />
<glyph unicode="c" horiz-adv-x="1103" d="M106 428q0 2 2 298v165q0 132 -2 134v12q0 77 24 145q26 74 70.5 127.5t101 91.5t121.5 58q92 29 177 29q185 0 344 -133q16 -13 30 -30q20 -24 20 -46q0 -26 -27 -50q-32 -28 -72 -55q-20 -15 -41 -15q-22 0 -46 17q-3 2 -9.5 7.5t-9.5 8.5q-91 72 -192 72 q-68 0 -139 -33q-127 -58 -126 -197q1 -1 1 -68q-1 -33 -1 -83v-151v-290q0 -99 56 -161.5t155 -75.5q25 -3 49 -3q118 0 206 77q30 27 51.5 27t54.5 -24q44 -32 64 -50q28 -26 28 -49q0 -21 -24 -47q-118 -131 -307 -155q-40 -5 -78 -5q-129 0 -238 58q-243 130 -243 394z " />
<glyph unicode="d" d="M130 89v1295q0 48 20 68.5t68 20.5q38 0 118 1q53 1 99 1q23 -1 43 -1q62 0 118 -2q282 -11 411 -237q50 -89 50 -202v-95.5v-112.5v-96l1 -148q0 -148 -1 -148q-3 -162 -80 -271q-113 -161 -298 -161h-2h-459q-49 0 -68.5 19.5t-19.5 68.5zM356 296q0 -39 17.5 -56.5 t55.5 -17.5q56 -1 111.5 -1t111.5 1q123 2 164 121q15 45 15 84v604q-1 121 -114 184q-51 29 -97 30q-55 2 -118 2q-42 0 -88 -1q-24 0 -39 -14.5t-18 -38.5q-1 -7 -1 -39v-416v-442z" />
<glyph unicode="e" horiz-adv-x="1064" d="M129 88v648v626q0 35 1 42q6 60 67 66q10 1 30 1h630q24 0 35 -1q60 -8 63 -68q0 -22 0.5 -45t-0.5 -45q-2 -27 -18 -44.5t-43 -21.5q-7 -1 -43 -1q-69 0 -208 -0.5t-208 -0.5q-46 0 -63 -16.5t-17 -61.5v-244q0 -40 17.5 -58t58.5 -18h218q50 0 69.5 -19t20.5 -71l1 -30 q0 -30 -1 -30q-3 -76 -78 -77q-69 -1 -206 -1h-19q-19 1 -19 0q-58 -3 -61 -59q-1 -15 -1 -90v-171q0 -43 17.5 -60.5t59.5 -17.5h425q25 0 38 -1q25 -2 41.5 -17.5t17.5 -39.5q2 -34 2 -63q0 -22 -1 -40q-1 -26 -18 -41.5t-44 -17.5q-9 -1 -26 -1h-647q-51 0 -71 19t-20 70 z" />
<glyph unicode="f" horiz-adv-x="1064" d="M129 106v630v622q0 29 1 43q5 65 72 70q9 1 25 1h631q23 0 34 -1q60 -8 63 -69q1 -22 1 -43t-1 -43q-1 -31 -18.5 -49t-47.5 -21q-14 -1 -43 -1h-412q-45 0 -62 -16.5t-17 -62.5v-241q0 -43 17.5 -60.5t59.5 -17.5h223q44 0 63.5 -19t20.5 -64q1 -16 1 -32t-1 -33 q-3 -79 -80 -80h-223q-47 0 -64 -17t-17 -65v-442q0 -31 -1 -38q-3 -24 -18 -39.5t-38 -16.5q-26 -1 -53 -1t-54 1q-24 1 -40 17t-20 41q-2 15 -2 47z" />
<glyph unicode="g" horiz-adv-x="1167" d="M110 738v285v18q0 75 22 141q25 75 70.5 128.5t101.5 91t120 57.5q94 30 182 30q186 0 344 -134q12 -10 32 -34q17 -21 17 -41q0 -22 -21 -43q-36 -36 -92 -70q-26 -16 -57 0q-15 9 -35 25q-92 72 -193 72q-66 0 -137 -31q-128 -56 -128 -200q1 -222 1 -370l-1 -226 q0 -99 55 -154q56 -56 142 -74q34 -7 64 -7q100 0 172 74q56 56 60 133q2 30 2 78q0 31 -1 71q-1 58 -62 59h-133q-49 1 -68.5 20t-20.5 67v34q-1 35 0 35q3 71 72 72h67.5h79h67.5l75 1q75 0 75 -1q75 -1 75 -74q1 -98 1 -176q0 -117 -2 -191q-3 -145 -101 -262.5 t-246 -149.5q-69 -15 -132 -15q-223 0 -380 186q-84 99 -86 255q-1 109 -1 320z" />
<glyph unicode="h" horiz-adv-x="1189" d="M134 62v5v15v19v634v630v35q3 66 69 71q14 1 34.5 1t47.5 -1q73 -3 74 -76v-154v-313q0 -46 17 -63.5t62 -17.5h317q41 0 58 17t17 58q0 74 0.5 220.5t0.5 220.5q0 36 1 43q3 28 19.5 45t43.5 19q24 2 49 2l49 -2q28 -2 44.5 -20.5t18.5 -48.5v-10.5v-12.5v-11v-1265v-30 q-3 -71 -71 -72q-20 -1 -41 -1l-41 1q-66 1 -72 69q-1 0 -1 19l1 19v420q0 26 -1 39q-6 50 -56 53h-56h-279q-50 0 -65 -15.5t-15 -65.5v-433q0 -37 -2 -47q-10 -55 -64 -57q-24 -1 -47.5 -1t-47.5 1q-59 3 -64 61z" />
<glyph unicode="i" horiz-adv-x="491" d="M133 68v39v630v626v38q3 65 67 70q22 2 45 1l45 -1q62 -5 68 -69v-39q0 -837 1 -1256q-1 -61 -21 -87q-17 -22 -64 -21q-11 0 -23 1h-26h-25q-64 3 -67 68z" />
<glyph unicode="j" horiz-adv-x="1044" d="M111 219q-10 21 -10 38q0 36 42 54q24 11 97 33q9 3 17 3q24 0 46 -22q15 -15 32 -39q41 -53 99 -72q28 -10 58 -10t60 10q58 19 95.5 68t41.5 112q1 19 1 56v915q0 65 20 85.5t85 20.5h13.5h16h13.5q40 -2 58.5 -21.5t18.5 -59.5q0 -85 0.5 -255t0.5 -255 q0 -317 -1 -478q-1 -154 -97 -270t-248 -146q-40 -8 -80 -8q-97 0 -190 47q-130 66 -189 194z" />
<glyph unicode="k" horiz-adv-x="1173" d="M133 110v626v626q0 29 1 43q6 61 66 66q21 2 45 2q16 0 33 -1q42 -1 61.5 -20.5t19.5 -61.5v-382v-56q0 -16 7 -29q17 -29 38 -4l36 48q212 294 318 442q45 63 115 63h8q0 -2 49 -1l49 1q22 0 38 -8q19 -10 23.5 -26.5t-7.5 -33.5q-11 -15 -23.5 -31.5t-28 -36.5 t-23.5 -31q-46 -59 -137 -176.5t-136 -176.5q-5 -8 -10 -13q-26 -30 -26 -64q0 -26 16 -55q23 -41 145 -268q42 -78 125.5 -232t125.5 -231q1 -2 5.5 -10t6.5 -13q5 -12 5 -23t-6 -21q-11 -20 -37 -21q-21 -1 -51 -1q-40 0 -95 2q-31 1 -59 39q-6 8 -25 44 q-45 90 -135.5 270.5t-135.5 270.5q-25 49 -45 51h-2q-20 0 -52 -42q-21 -27 -32 -40.5t-21.5 -32.5t-13.5 -23t-6.5 -24.5t-3 -24t0.5 -34v-43.5v-313q0 -24 -1 -35q-5 -61 -65 -64q-40 -1 -67 -1h-23q-61 2 -69 63q-1 8 -1 47z" />
<glyph unicode="l" horiz-adv-x="1085" d="M128 105v634v631q0 25 1 38q5 60 63 63q16 1 40 1t55 -1q58 -3 66 -61q1 -9 1 -51v-1038q0 -64 16 -79.5t81 -15.5h400q36 0 43 -1q26 -4 42.5 -20.5t18.5 -41.5q2 -20 2 -44.5t-2 -54.5q-2 -27 -19 -44t-44 -20h-4h-11h-15h-637q-29 0 -34 1q-57 8 -62 65q-1 13 -1 39z " />
<glyph unicode="m" horiz-adv-x="1363" d="M131 1368q1 58 21 84q17 22 65 23q9 0 19 -1q16 -1 95 -1q43 0 64.5 -16.5t33.5 -58.5q13 -46 52 -190q28 -102 83.5 -306t83.5 -306q1 -5 3.5 -14.5t4.5 -14.5q0 -1 1.5 -6.5t2.5 -9t3 -8.5t4 -8.5t4.5 -7t5.5 -5t7 -1.5q8 0 13 8t8.5 22.5t4.5 16.5q3 9 9 29 q35 128 105 384.5t105 384.5q12 43 16 53q23 54 75 54l70 1q71 0 71 -1q70 -1 71 -73q1 -60 1 -180v-484v-626q0 -26 -1 -39q-2 -29 -18.5 -47.5t-44.5 -20.5q-31 -2 -58 -2q-20 0 -36 1q-29 1 -46.5 19t-20.5 47q-1 14 -1 43v558q0 15 -2 43q0 1 -0.5 7.5t-1 10.5t-3.5 9 t-8 6q-6 1 -10 -2t-5.5 -7t-2.5 -10.5t-2 -8.5q-10 -30 -14 -45q-25 -101 -71 -297t-65 -275q-1 -4 -2.5 -11t-3 -12.5t-3.5 -9.5q-24 -57 -82 -57h-91q-74 1 -91 74q-14 56 -29.5 119t-34.5 140t-29 119q-6 26 -23.5 103.5t-26.5 114.5q0 2 -1 4.5t-1 3.5q-2 4 -6 21 t-9.5 27t-13.5 9q-11 -2 -14.5 -13t-3 -30t0.5 -22v-34v-554q0 -51 -19.5 -70t-70.5 -20h-69q-60 5 -66 66q-1 13 -1 39q0 841 -1 1261z" />
<glyph unicode="n" horiz-adv-x="1193" d="M124 106v1264v35q6 67 72 68h43.5t42.5 1h6q45 0 78 -42q13 -15 25 -40q65 -126 194.5 -379t194.5 -380q17 -33 22 -42q10 -14 26 -10q13 4 15 19q1 14 1 43l1 363v201q0 161 -1 161q0 58 20 84q17 22 66 23q9 0 19 -1h28t28 -1q60 -3 65 -65v-5v-15v-19v-630v-626v-34 q-1 -74 -77 -77h-36.5t-36.5 -1h-6q-52 0 -88 50q-2 3 -19 34q-66 129 -197 386t-197 385q-16 30 -22 37q-9 10 -20.5 8t-16.5 -15q-4 -10 -4 -47v-729q0 -25 -1 -38q-2 -30 -18 -48.5t-44 -20.5q-20 -2 -44.5 -2t-54.5 2q-56 5 -63 64q-1 13 -1 39z" />
<glyph unicode="o" d="M109 409q-2 163 -1.5 326t1.5 326q1 196 166 324q121 95 287 104q14 1 29 1q149 0 277 -88q183 -135 187 -354v-315q1 -2 1 -151v-83q0 -67 -1 -68q-1 -170 -111.5 -296.5t-279.5 -148.5q-42 -6 -81 -6q-208 0 -361 154q-111 113 -113 275zM334 443v-16q0 -75 43 -127 q48 -58 126 -82q45 -14 86 -15q23 0 44 5q61 12 106 45.5t70 88.5q22 47 22 102q0 9 -1 17q-3 47 -3 97.5t1 115.5t1 98v264q0 99 -74 167q-65 61 -167 61q-17 0 -36 -2q-99 -9 -158.5 -73t-59.5 -163v-294v-285v-4z" />
<glyph unicode="p" horiz-adv-x="1134" d="M124 78v38v622v625q0 39 1 47q4 29 22 46t47 17q108 1 190 1q164 0 221 -3q77 -4 151 -35.5t134.5 -86t97.5 -137t37 -178.5q0 -22 1 -66t1 -71t-2 -64.5t-7 -68.5q-30 -194 -177 -296q-80 -56 -181 -56q-26 0 -105 -1h-47q-41 0 -58 1h-10q-52 0 -72 -18 q-19 -19 -19 -69v-15q1 -24 1 -219q0 -50 -20 -69t-71 -20h-60q-70 3 -75 76zM350 700q2 -65 67 -67q53 -1 105 -1l105 1q105 1 151 106q22 50 22 109v88v66v22q1 93 -57 150.5t-136 70.5q-42 7 -179 7q-43 0 -60.5 -17t-17.5 -60v-231v-77v-90.5v-76.5z" />
<glyph unicode="q" d="M109 412q-1 147 -1 286q0 186 2 358q4 272 264 387q115 51 222 51q144 0 274 -93q180 -130 185 -351q1 -1 1 -71v-87q-1 -157 -1 -158v-294q0 -215 -163 -353q-52 -43 -52 -63t39 -68q38 -47 38 -71q0 -26 -52 -69q-28 -24 -43 -35q-23 -17 -45 -17q-26 0 -50 24 q-7 7 -52 63q-30 36 -56 71q-43 57 -114 67q-168 26 -281 144t-115 279zM334 440v-7q0 -77 40 -129q42 -55 115 -80q51 -19 98 -19q18 0 36 3q64 10 111.5 43t73.5 90q23 48 23 103q0 10 -1 21q-3 38 -3 78.5t1 93t1 79.5v315q0 109 -79 178q-62 55 -163 55q-18 0 -38 -2 q-97 -10 -155.5 -73.5t-58.5 -160.5v-294q0 -261 -1 -294z" />
<glyph unicode="r" horiz-adv-x="1126" d="M124 73v5v16v21v622v622v43q5 71 74 71h76h89h76l79 1q79 0 79 -1q147 -5 265.5 -102t150.5 -237q8 -36 9 -54q0 -10 2 -54t2.5 -59.5t0.5 -52.5t-1 -59t-3.5 -52t-7.5 -57q-29 -169 -161 -269q-5 -3 -13 -11q-24 -22 -27 -40.5t13 -46.5q108 -192 161 -288q1 -1 3.5 -7 t4.5 -8q17 -23 3 -47t-39 -26q-40 -3 -72 -3q-38 0 -65 4q-48 7 -75 59q-22 44 -67 131.5t-68 131.5q-2 4 -8 16.5t-10 18.5q-31 51 -86 51h-2h-86q-71 -1 -71 -71v-253q0 -46 -19.5 -65.5t-66.5 -20.5h-68q-67 5 -72 71zM350 700q1 -65 66 -67q52 -1 105 -1l105 1 q103 1 150 102q10 22 15 49q9 55 9 144q0 59 -4 134q-4 67 -67 125q-47 43 -122 58q-21 4 -46.5 6t-41.5 2t-47.5 -0.5t-43.5 -0.5q-43 0 -60.5 -17.5t-17.5 -59.5v-231v-77v-90.5v-76.5z" />
<glyph unicode="s" horiz-adv-x="1085" d="M100 1163q30 133 139 222q131 107 296 108q10 0 20 -1q177 -7 305 -132q26 -26 47 -56q14 -20 14 -38q0 -22 -22 -41q-42 -36 -112 -62q-9 -4 -19 -4q-22 0 -45 20l-45 39q-65 50 -144 50q-9 0 -17 -1q-89 -6 -151 -71q-49 -51 -50 -122q0 -4 1 -10q4 -78 62 -127 q45 -38 123 -59q21 -6 57.5 -15t67 -17.5t56.5 -17.5q100 -36 168 -93q121 -103 140 -271q3 -26 3 -51q0 -133 -80 -238q-117 -154 -318 -185q-52 -9 -73 -9h-6q-220 8 -360 132q-46 41 -46 70t52 69l42 30q30 22 53 21.5t51 -24.5q65 -54 142 -66q32 -5 62 -5q129 0 211 92 q46 50 46 119q0 9 -1 19q-7 80 -67 128q-62 49 -180 77q-134 31 -214 73q-125 66 -181 190q-37 81 -37 166q0 45 10 91z" />
<glyph unicode="t" horiz-adv-x="1044" d="M110 1328q-1 26 -1 45t1 32q5 68 72 68q170 1 341 1l341 -1q68 0 71 -68q0 -22 0.5 -43.5t-0.5 -42.5q-3 -64 -69 -66h-150q-46 0 -63.5 -18t-17.5 -65l1 -1069q0 -59 -24 -81q-22 -20 -66 -20q-8 0 -16 1t-24 1h-24q-68 5 -72 73q-1 13 -1 39v519v540q0 40 -11 54 q-19 26 -60 26h-150q-39 1 -58 18.5t-20 56.5z" />
<glyph unicode="u" horiz-adv-x="1187" d="M120 897q0 485 1 486q0 20 2 30q10 54 64 57q24 1 47 1l47 -1q60 -3 65 -65q1 -13 1 -39q0 -82 1 -283q1 -134 0 -243v-104q0 -146 -3 -282v-6q0 -110 70 -172q72 -64 173 -69h14q81 0 143 43q67 47 89 129q7 28 7 85v899q0 61 21 87q18 22 66 22q9 0 20 -1q9 -1 27 -1 h28q59 -5 64 -62q1 0 1 -20l-1 -19v-476v-453q-1 -178 -110.5 -304t-285.5 -149q-39 -5 -77 -5q-207 0 -360 154q-113 115 -113 275q-1 1 -1 216v270z" />
<glyph unicode="v" horiz-adv-x="1228" d="M101 1396q-2 10 -2 19q0 19 10 33q15 21 46 23q26 2 53 1.5t54 -1.5q61 -3 78 -73q4 -17 63 -254q30 -124 91 -373t92 -373q1 -2 2 -10t2.5 -11.5t4.5 -8.5t8 -7t13 -2q9 0 14.5 5.5t7 8.5t4 15t2.5 13q79 316 134 541q18 75 54.5 224.5t55.5 224.5q11 45 33.5 62.5 t69.5 18.5h60q52 -1 69 -23q10 -12 10 -34q0 -16 -6 -37q-49 -179 -147 -537.5t-147 -537.5q-10 -37 -29.5 -110t-29.5 -110q-6 -22 -13 -36q-25 -46 -71 -46h-69h-73h-2q-50 0 -74 52q-3 6 -10 32q-59 215 -176.5 645.5t-175.5 645.5q0 1 -2.5 8.5t-3.5 11.5z" />
<glyph unicode="w" horiz-adv-x="1638" d="M104 1395q-2 9 -2 17q0 22 13 38q17 22 51 23q17 1 42.5 1t60.5 -1q71 -2 83 -70q7 -41 19.5 -120.5t13.5 -87.5q18 -121 56 -363.5t56 -364.5q5 -30 7 -34q10 -31 20 -30q7 1 18 34q0 1 3 17q98 620 146 931q7 44 33 68q23 21 56 21q5 0 11 -1q0 -1 30 -1l30 1 q43 -1 65 -19.5t29 -59.5q23 -142 67 -428q13 -84 39.5 -250.5t39.5 -249.5q1 -5 3 -14.5t3 -14.5q8 -34 18 -34q14 -1 21 35q6 31 16 93l132 864q12 77 86 78q24 1 47 1l47 -1q71 -3 71 -63q0 -11 -2 -24q-20 -108 -60 -324.5t-60 -324.5q-20 -107 -59.5 -320t-59.5 -320 q-4 -26 -8 -38q-16 -55 -76 -57h-47h-47h-86q-69 1 -83 65q-2 10 -33 172q-11 62 -34 185.5t-35 185.5q-1 2 -1 6.5t-1 6.5q-1 3 -2.5 10.5t-3 14t-4 13.5t-6 10.5t-8.5 3.5q-15 -1 -23 -52q-15 -71 -23 -118q-47 -257 -79 -425q-8 -43 -29.5 -60.5t-64.5 -17.5h-159 q-43 0 -64 17.5t-29 60.5q-40 208 -59 312q-23 121 -67.5 362.5t-66.5 362.5q-2 13 -22 118t-29 160z" />
<glyph unicode="x" horiz-adv-x="1187" d="M97 24q-5 8 -5 19q0 14 9 32q30 59 94 177q37 70 113 210t113 210q2 3 6.5 12t7.5 14q18 29 18 60q0 30 -17 61q-17 29 -138 254q-132 245 -171 320q-20 38 -6.5 59t58.5 22q9 0 39 -1t46 0h2q71 0 108 -66q22 -41 66 -123.5t66 -124.5q4 -8 22.5 -42t28.5 -52 q18 -32 37.5 -32t36.5 32q59 108 175 326q15 30 34 49q33 33 71 33h107q38 -2 50 -22.5t-6 -54.5q-78 -147 -234 -439q-64 -118 -76 -139q-17 -29 -18 -59q0 -29 17 -58q45 -82 126.5 -235t101.5 -189q70 -130 104 -195q12 -23 12 -39q-1 -11 -5 -19q-12 -20 -55 -21h-43 t-43 -1h-9q-67 0 -103 67q-21 40 -63.5 118t-63.5 118q-13 23 -38 69.5t-37 69.5q-1 2 -3 5.5t-3 5.5q-17 27 -36 27.5t-35 -27.5q-13 -24 -36.5 -69t-29.5 -55q-23 -42 -68.5 -127t-68.5 -128q-6 -13 -13 -22q-34 -52 -84 -52h-7q-16 1 -47 1h-60q-35 1 -47 21z" />
<glyph unicode="y" horiz-adv-x="1187" d="M88 1430q2 16 17.5 29t34.5 14q50 1 83 1t50 -1q49 -3 73 -64q12 -33 36.5 -100.5t37.5 -100.5q24 -64 71.5 -193t70.5 -193q1 -3 3.5 -11t4.5 -12t5.5 -9.5t9 -7.5t13.5 -2q7 0 12 2.5t8 7.5t5 9t4 11.5t3 10.5q32 89 95 266.5t94 266.5q18 53 26 68q26 52 79 52h2h57.5 t58.5 -1q37 -1 51 -22q7 -11 7 -24.5t-7 -30.5q-154 -372 -232 -558q-22 -52 -66.5 -157.5t-66.5 -158.5q-19 -45 -19 -104v-313q0 -26 -1 -39q-6 -63 -71 -65h-73q-45 1 -63 19t-18 64v172v141v11q0 61 -29 131q-70 166 -354 850q-1 2 -5.5 11.5t-6.5 15.5v8v6z" />
<glyph unicode="z" horiz-adv-x="1105" d="M123 62q-1 29 -1 55q0 40 2 74q1 31 31 83q84 149 251.5 447t251.5 446q1 2 6 9.5t7 12.5q10 21 1.5 36.5t-31.5 19.5q-7 1 -38 1h-365q-32 0 -38 1q-27 4 -43.5 21.5t-17.5 45.5q0 22 -0.5 45t0.5 45q3 59 65 67q11 1 34 1h630q23 0 34 -1q28 -4 45.5 -21t18.5 -43 q1 -21 1 -41q0 -117 -45 -194q-66 -112 -139 -241.5t-159.5 -284t-136.5 -243.5q-6 -11 -30.5 -53.5t-36.5 -66.5q-13 -26 -3 -42.5t39 -18.5q11 -1 64 -1h378q46 0 65 -19.5t20 -66.5q0 -43 -1 -64q-5 -70 -74 -70h-356h-343q-35 0 -46 5q-39 18 -40 56z" />
<glyph unicode="|" horiz-adv-x="491" d="M132 46l1 20v671v667v38q3 65 67 70q45 3 90 0q62 -5 68 -69v-39q0 -919 1 -1338q0 -60 -20.5 -86.5t-87.5 -20.5q-9 1 -26 0t-25 0q-64 3 -67 68q-1 0 -1 19z" />
<glyph unicode="&#xa1;" horiz-adv-x="481" d="M120 -4q0 -79 78 -80q43 -1 86 0q76 1 77 77v173q-6 158 -11 675q0 53 -5 120q-1 29 -19 46.5t-47 19.5q-38 3 -77 0q-57 -5 -65 -62q-1 -8 -1 -48q-2 -133 -6 -398.5t-6 -398.5q0 -13 -2 -57t-2 -67zM121 1224q2 -32 21.5 -50.5t51.5 -19.5q49 -3 98 0q32 1 50 20.5 t20 51.5v51v56q-2 27 -19.5 44.5t-44.5 18.5q-56 3 -111 0q-61 -3 -66 -65q-3 -53 0 -107z" />
<glyph unicode="&#xa9;" horiz-adv-x="499" />
<glyph unicode="&#xaa;" horiz-adv-x="780" d="M132 1316q1 8 1 77q1 43 19.5 62.5t60.5 20.5h34h43q73 -5 76 -76q3 -44 1 -99q-3 -83 22 -152q11 -32 10 -45q-2 -21 -15.5 -29.5t-32.5 0.5q-9 4 -25 16q-22 16 -65.5 49t-65.5 49q-71 53 -63 127zM419 1316q1 11 1 24t-0.5 28.5t-0.5 24.5q1 43 20 62t61 21h34h43 q73 -5 76 -76q2 -33 0 -99q-3 -81 23 -152q11 -32 10 -45q-2 -21 -15.5 -29.5t-32.5 0.5q-9 4 -25 16q-22 16 -65.5 49t-65.5 49q-71 53 -63 127z" />
<glyph unicode="&#xac;" horiz-adv-x="1433" />
<glyph unicode="&#xad;" horiz-adv-x="655" d="M108 702q-2 49 0 73q5 71 74 73h295q32 -1 50 -19.5t20 -51.5q2 -54 1 -81q-3 -70 -73 -72q-49 -1 -145 -1h-142q-40 1 -59 20t-21 59z" />
<glyph unicode="&#xba;" horiz-adv-x="780" d="M95 1116q1 11 7 29q31 80 26 193q-2 34 0 69q2 29 19 47.5t45 20.5q51 5 102 0q62 -5 67 -71q1 -10 1 -59v-39q1 -67 -51 -107q-22 -17 -158 -117q-27 -19 -43 -8q-19 12 -15 42zM382 1117q2 17 4 21q35 88 28 231q-4 65 22.5 88t85.5 19h27.5t27.5 -1q66 -6 71 -71 q2 0 1 -30l-1 -30h1v-39q1 -66 -52 -107q-22 -17 -158 -117q-26 -18 -43 -7q-18 12 -14 43z" />
<glyph unicode="&#xbf;" horiz-adv-x="1013" d="M112 451q38 114 125 213q39 44 66 67q91 76 102 208q6 67 25 84.5t86 17.5h34q60 -5 65 -66q1 -17 1 -51q-3 -183 -132 -315q-8 -8 -37 -36.5t-46.5 -48t-32.5 -40.5q-56 -80 -52 -155q3 -63 46 -113t108 -67q127 -33 226 57q21 19 33 27q38 27 77 5q10 -6 37.5 -20 t41.5 -23q64 -40 17 -100q-138 -177 -354 -181q-142 -3 -255.5 68t-167.5 194q-60 137 -13 275zM387 1348q2 27 19.5 44t45.5 18q56 3 111 0q28 -1 45.5 -19.5t19.5 -47.5v-55v-16.5v-19v-16.5q-5 -62 -64 -67q-67 -4 -111 0q-27 2 -45 19t-20 44q-5 64 -1 116z" />
<glyph unicode="&#xc0;" horiz-adv-x="1228" d="M102 76q57 215 143 530q35 128 105.5 384.5t105.5 384.5q8 33 10 37q24 61 85 61h115q43 -1 66.5 -19t35.5 -60t35 -126.5t34 -126.5q46 -170 138.5 -509t138.5 -508q14 -54 15 -58q5 -25 -8.5 -44t-38.5 -20q-65 -5 -124 1q-52 4 -67 62q-13 50 -37 150q-1 4 -2.5 11 t-3 12.5t-3.5 9.5q-22 53 -75 53h-159h-146q-36 -1 -56 -16.5t-29 -50.5q-3 -13 -39 -158q-11 -40 -32.5 -57.5t-61.5 -17.5q-60 0 -90 1q-35 2 -49.5 21.5t-5.5 52.5zM395 1841q8 26 53 26h22h75q61 1 83 -56q12 -30 36.5 -76.5t36.5 -82.5q8 -25 -4.5 -44t-38.5 -22 q-30 -3 -74 0q-21 1 -41.5 14t-32.5 31q-3 4 -17 22q-112 142 -98 188zM472 611q-13 -52 1.5 -70.5t67.5 -18.5h72q83 0 99 1q28 1 41.5 18t9.5 45q-1 5 -5 20q-19 78 -57.5 235t-57.5 236q-4 18 -8 24q-7 13 -19.5 13t-20.5 -13q-6 -10 -10 -28l-18 -75q-16 -65 -47.5 -194 t-47.5 -193z" />
<glyph unicode="&#xc1;" horiz-adv-x="1228" d="M102 76q57 215 143 530q35 128 105.5 384.5t105.5 384.5q8 33 10 37q24 61 85 61h115q43 -1 66.5 -19t35.5 -60t35 -126.5t34 -126.5q46 -170 138.5 -509t138.5 -508q14 -54 15 -58q5 -25 -8.5 -44t-38.5 -20q-65 -5 -124 1q-52 4 -67 62q-13 50 -37 150q-1 4 -2.5 11 t-3 12.5t-3.5 9.5q-22 53 -75 53h-159h-146q-36 -1 -56 -16.5t-29 -50.5q-3 -13 -39 -158q-11 -40 -32.5 -57.5t-61.5 -17.5q-60 0 -90 1q-35 2 -49.5 21.5t-5.5 52.5zM472 611q-13 -52 1.5 -70.5t67.5 -18.5h72q83 0 99 1q28 1 41.5 18t9.5 45q-1 5 -5 20q-19 78 -57.5 235 t-57.5 236q-4 18 -8 24q-7 13 -19.5 13t-20.5 -13q-6 -10 -10 -28l-18 -75q-16 -65 -47.5 -194t-47.5 -193zM528 1652q12 36 36 83t36 76q22 58 84 56h74h23q124 0 -37 -204q-23 -29 -25 -32q-12 -18 -33 -31t-42 -14q-44 -3 -73 0q-26 3 -38.5 22t-4.5 44z" />
<glyph unicode="&#xc2;" horiz-adv-x="1228" d="M102 76q57 215 143 530q35 128 105.5 384.5t105.5 384.5q8 33 10 37q24 61 85 61h115q43 -1 66.5 -19t35.5 -60t35 -126.5t34 -126.5q46 -170 138.5 -509t138.5 -508q14 -54 15 -58q5 -25 -8.5 -44t-38.5 -20q-65 -5 -124 1q-52 4 -67 62q-13 50 -37 150q-1 4 -2.5 11 t-3 12.5t-3.5 9.5q-22 53 -75 53h-159h-146q-36 -1 -56 -16.5t-29 -50.5q-3 -13 -39 -158q-11 -40 -32.5 -57.5t-61.5 -17.5q-60 0 -90 1q-35 2 -49.5 21.5t-5.5 52.5zM400 1654q12 34 35.5 80.5t35.5 75.5q23 58 83 57h63h56q62 2 84 -56q12 -29 36 -76t36 -83 q8 -25 -4 -44t-38 -22q-34 -4 -84 0q-34 2 -62 45q-15 23 -26.5 23.5t-25.5 -21.5q-34 -53 -94 -49h-26t-26 1q-28 4 -40 23.5t-3 45.5zM472 611q-13 -52 1.5 -70.5t67.5 -18.5h72q83 0 99 1q28 1 41.5 18t9.5 45q-1 5 -5 20q-19 78 -57.5 235t-57.5 236q-4 18 -8 24 q-7 13 -19.5 13t-20.5 -13q-6 -10 -10 -28l-18 -75q-16 -65 -47.5 -194t-47.5 -193z" />
<glyph unicode="&#xc4;" horiz-adv-x="1228" d="M102 76q57 215 143 530q35 128 105.5 384.5t105.5 384.5q8 33 10 37q24 61 85 61h115q43 -1 66.5 -19t35.5 -60t35 -126.5t34 -126.5q46 -170 138.5 -509t138.5 -508q14 -54 15 -58q5 -25 -8.5 -44t-38.5 -20q-65 -5 -124 1q-52 4 -67 62q-13 50 -37 150q-1 4 -2.5 11 t-3 12.5t-3.5 9.5q-22 53 -75 53h-159h-146q-36 -1 -56 -16.5t-29 -50.5q-3 -13 -39 -158q-11 -40 -32.5 -57.5t-61.5 -17.5q-60 0 -90 1q-35 2 -49.5 21.5t-5.5 52.5zM307 1670v17.5v21v17.5v55q2 28 18 46t43 20q53 5 107 0q29 -2 46.5 -20.5t18.5 -47.5q3 -54 0 -107 q-2 -29 -20 -46t-47 -19q-52 -3 -103 0q-27 1 -44 18.5t-19 44.5zM472 611q-13 -52 1.5 -70.5t67.5 -18.5h72q83 0 99 1q28 1 41.5 18t9.5 45q-1 5 -5 20q-19 78 -57.5 235t-57.5 236q-4 18 -8 24q-7 13 -19.5 13t-20.5 -13q-6 -10 -10 -28l-18 -75q-16 -65 -47.5 -194 t-47.5 -193zM688 1670v17.5v21v17.5v17.5v20.5v17q2 28 18 46t43 20q53 5 107 0q29 -2 46.5 -20.5t18.5 -47.5q3 -54 0 -107q-2 -29 -20 -46t-47 -19q-51 -3 -103 0q-27 1 -44 18.5t-19 44.5z" />
<glyph unicode="&#xc6;" horiz-adv-x="1486" d="M102 74q57 215 143 530q35 128 105.5 384.5t105.5 384.5q8 33 10 37q24 61 85 61h115h63h548q24 0 35 -1q60 -8 63 -68q1 -45 0 -90q-2 -27 -18 -44.5t-43 -21.5q-7 -1 -43 -1h-334q-46 0 -63 -16.5t-17 -62.5v-77v-90.5v-76.5q0 -40 17.5 -58t58.5 -18h136 q50 0 69.5 -19t20.5 -71v-60q-3 -76 -78 -77q-11 -1 -83 -0.5t-82 0.5h-3q14 0 5 -1q-57 -3 -60 -58q-1 -15 -1 -90v-172q0 -43 17.5 -60.5t59.5 -17.5h343q25 0 38 -1q25 -2 41.5 -17.5t17.5 -39.5q3 -51 0 -103q-3 -54 -61 -59q-9 -1 -26 -1h-565q-51 0 -71 19.5t-20 70.5 v160q0 21 -14.5 36t-35.5 15h-116q-68 -1 -85 -68q-3 -13 -39 -158q-11 -40 -32.5 -57t-61.5 -17h-90q-35 2 -49.5 21.5t-5.5 52.5zM472 610q-13 -53 1.5 -71.5t67.5 -18.5q5 0 23 0.5t28 0.5q16 0 27.5 11t11.5 27v177v354q0 15 -14.5 19t-21.5 -9q-6 -10 -10 -29 q-3 -13 -9 -37.5t-9 -36.5q-16 -65 -47.5 -194t-47.5 -193z" />
<glyph unicode="&#xc7;" horiz-adv-x="1103" d="M104 428q0 3 1.5 298.5t-1.5 298.5q-2 84 23.5 157.5t70.5 127t101.5 91.5t121.5 58q289 90 521 -104q16 -13 30 -30q44 -52 -7 -96q-32 -28 -72 -55q-42 -30 -87 2q-4 2 -10.5 7.5t-9.5 8.5q-153 120 -330 39q-127 -58 -126 -197q1 -3 0.5 -148t-0.5 -148v-296 q0 -99 56 -161.5t155 -75.5q149 -19 255 74q30 27 51.5 27t54.5 -24q44 -32 64 -50q21 -19 22 -47t-18 -49q-118 -131 -307 -155q-1 0 -5 -0.5t-5 -0.5q-10 -2 -4 -10l17 -21q41 -55 41 -133q0 -80 -56 -132t-146 -60q-32 -3 -55 18q-20 18 -20 59v13q0 48 14 64t48 19h1 q2 0 6 1t9 6t5 12q0 18 -37 60v1q-47 57 -54 102q-3 24 -25 32q-30 12 -50 23q-243 130 -243 394z" />
<glyph unicode="&#xc8;" horiz-adv-x="1064" d="M129 88v648v626q0 35 1 42q6 60 67 66q10 1 30 1h630q24 0 35 -1q60 -8 63 -68q1 -45 0 -90q-2 -27 -18 -44.5t-43 -21.5q-7 -1 -43 -1q-69 0 -208 -0.5t-208 -0.5q-46 0 -63 -16.5t-17 -61.5v-244q0 -40 17.5 -58t58.5 -18h218q50 0 69.5 -19t20.5 -71l1 -30 q0 -30 -1 -30q-3 -76 -78 -77q-69 -1 -206 -1h-19q-19 1 -19 0q-58 -3 -61 -59q-1 -15 -1 -90v-171q0 -43 17.5 -60.5t59.5 -17.5h425q25 0 38 -1q25 -2 41.5 -17.5t17.5 -39.5q4 -60 1 -103q-1 -26 -18 -41.5t-44 -17.5q-9 -1 -26 -1h-647q-51 0 -71 19t-20 70zM324 1842 q9 25 53 25h22h22h30h22q62 2 84 -56q12 -29 36 -76t36 -83q8 -25 -4.5 -44t-38.5 -22q-29 -3 -73 0q-21 1 -42 14t-33 31q-3 4 -16 21q-114 144 -98 190z" />
<glyph unicode="&#xc9;" horiz-adv-x="1064" d="M129 88v648v626q0 35 1 42q6 60 67 66q10 1 30 1h630q24 0 35 -1q60 -8 63 -68q1 -45 0 -90q-2 -27 -18 -44.5t-43 -21.5q-7 -1 -43 -1q-69 0 -208 -0.5t-208 -0.5q-46 0 -63 -16.5t-17 -61.5v-244q0 -40 17.5 -58t58.5 -18h218q50 0 69.5 -19t20.5 -71l1 -30 q0 -30 -1 -30q-3 -76 -78 -77q-69 -1 -206 -1h-19q-19 1 -19 0q-58 -3 -61 -59q-1 -15 -1 -90v-171q0 -43 17.5 -60.5t59.5 -17.5h425q25 0 38 -1q25 -2 41.5 -17.5t17.5 -39.5q4 -60 1 -103q-1 -26 -18 -41.5t-44 -17.5q-9 -1 -26 -1h-647q-51 0 -71 19t-20 70zM456 1652 q12 36 36.5 82.5t36.5 76.5q22 57 83 56h75h22q124 0 -37 -204q-23 -29 -25 -32q-12 -18 -32.5 -31t-41.5 -14q-44 -3 -74 0q-26 3 -38.5 22t-4.5 44z" />
<glyph unicode="&#xca;" horiz-adv-x="1064" d="M129 88v648v626q0 35 1 42q6 60 67 66q10 1 30 1h630q24 0 35 -1q60 -8 63 -68q1 -45 0 -90q-2 -27 -18 -44.5t-43 -21.5q-7 -1 -43 -1q-69 0 -208 -0.5t-208 -0.5q-46 0 -63 -16.5t-17 -61.5v-244q0 -40 17.5 -58t58.5 -18h218q50 0 69.5 -19t20.5 -71l1 -30 q0 -30 -1 -30q-3 -76 -78 -77q-69 -1 -206 -1h-19q-19 1 -19 0q-58 -3 -61 -59q-1 -15 -1 -90v-171q0 -43 17.5 -60.5t59.5 -17.5h425q25 0 38 -1q25 -2 41.5 -17.5t17.5 -39.5q4 -60 1 -103q-1 -26 -18 -41.5t-44 -17.5q-9 -1 -26 -1h-647q-51 0 -71 19t-20 70zM328 1654 q12 34 35.5 80.5t35.5 75.5q23 58 83 57h64h56q61 1 83 -56q12 -30 36.5 -76.5t36.5 -82.5q8 -25 -4.5 -44t-38.5 -22q-34 -4 -84 0q-34 2 -62 45q-15 23 -26.5 23.5t-25.5 -21.5q-34 -53 -93 -49h-26t-26 1q-28 4 -40.5 23.5t-3.5 45.5z" />
<glyph unicode="&#xcb;" horiz-adv-x="1064" d="M129 88v648v626q0 35 1 42q6 60 67 66q10 1 30 1h630q24 0 35 -1q60 -8 63 -68q1 -45 0 -90q-2 -27 -18 -44.5t-43 -21.5q-7 -1 -43 -1q-69 0 -208 -0.5t-208 -0.5q-46 0 -63 -16.5t-17 -61.5v-244q0 -40 17.5 -58t58.5 -18h218q50 0 69.5 -19t20.5 -71l1 -30 q0 -30 -1 -30q-3 -76 -78 -77q-69 -1 -206 -1h-19q-19 1 -19 0q-58 -3 -61 -59q-1 -15 -1 -90v-171q0 -43 17.5 -60.5t59.5 -17.5h425q25 0 38 -1q25 -2 41.5 -17.5t17.5 -39.5q4 -60 1 -103q-1 -26 -18 -41.5t-44 -17.5q-9 -1 -26 -1h-647q-51 0 -71 19t-20 70zM235 1726 v55q2 28 18.5 46t43.5 20q53 5 106 0q29 -2 46.5 -20.5t18.5 -47.5q3 -54 0 -107q-2 -29 -20 -46t-47 -19q-51 -3 -102 0q-27 1 -44 18.5t-19 44.5q-1 18 -1 56zM616 1670v17.5v21v17.5v17.5v20.5v17q2 28 18.5 46t43.5 20q53 5 106 0q29 -2 46.5 -20.5t18.5 -47.5 q3 -54 0 -107q-2 -29 -20 -46t-47 -19q-51 -3 -102 0q-27 1 -44.5 18.5t-19.5 44.5z" />
<glyph unicode="&#xcc;" horiz-adv-x="491" d="M27 1842q9 25 53 25h22h22h30h22q62 2 84 -56q12 -29 36 -76t36 -83q8 -25 -4.5 -44t-38.5 -22q-29 -3 -73 0q-21 1 -42 14t-33 31q-3 4 -16 21q-114 144 -98 190zM133 68v39v630v626v38q3 65 67 70q45 3 90 0q62 -5 68 -69v-39q0 -837 1 -1256q0 -60 -20.5 -86.5 t-87.5 -20.5h-26h-25q-64 3 -67 68z" />
<glyph unicode="&#xcd;" horiz-adv-x="491" d="M133 68v39v630v626v38q3 65 67 70q45 3 90 0q62 -5 68 -69v-39q0 -837 1 -1256q0 -60 -20.5 -86.5t-87.5 -20.5h-26h-25q-64 3 -67 68zM159 1652q12 36 36.5 82.5t36.5 76.5q22 57 83 56h75h22q124 0 -37 -204q-23 -29 -25 -32q-12 -18 -32.5 -31t-41.5 -14q-44 -3 -74 0 q-26 3 -38.5 22t-4.5 44z" />
<glyph unicode="&#xce;" horiz-adv-x="491" d="M31 1654q12 34 35.5 80.5t35.5 75.5q23 58 83 57h64h56q61 1 83 -56q12 -30 36.5 -76.5t36.5 -82.5q8 -25 -4.5 -44t-38.5 -22q-34 -4 -84 0q-34 2 -62 45q-15 23 -26.5 23.5t-25.5 -21.5q-34 -53 -93 -49h-26t-26 1q-28 4 -40.5 23.5t-3.5 45.5zM133 68v39v630v626v38 q3 65 67 70q45 3 90 0q62 -5 68 -69v-39q0 -837 1 -1256q0 -60 -20.5 -86.5t-87.5 -20.5h-26h-25q-64 3 -67 68z" />
<glyph unicode="&#xcf;" horiz-adv-x="491" d="M-62 1726q0 37 1 55q2 28 18 46t43 20q53 5 106 0q29 -2 46.5 -20.5t18.5 -47.5q3 -53 0 -107q-5 -62 -66 -65q-51 -3 -103 0q-27 1 -44 18.5t-19 44.5q-1 18 -1 56zM133 68v39v630v626v38q3 65 67 70q45 3 90 0q62 -5 68 -69v-39q0 -837 1 -1256q0 -60 -20.5 -86.5 t-87.5 -20.5h-26h-25q-64 3 -67 68zM319 1670v17.5v21v17.5v55q2 28 18.5 46t43.5 20q53 5 106 0q29 -2 46.5 -20.5t18.5 -47.5q3 -54 0 -107q-2 -29 -20 -46t-47 -19q-51 -3 -102 0q-27 1 -44.5 18.5t-19.5 44.5z" />
<glyph unicode="&#xd1;" horiz-adv-x="1193" d="M125 106v1264v35q6 67 72 68h43.5t42.5 1q50 3 85 -42q10 -12 24 -40q65 -126 194.5 -379t194.5 -380q17 -33 22 -42q10 -14 26 -10q13 4 15 19q1 14 1 43l1 363q0 362 -1 362q0 58 20.5 84.5t84.5 21.5h28t28 -1q60 -3 65 -65q1 0 1 -20l-1 -19v-630v-626v-34 q-1 -74 -77 -77h-36.5t-36.5 -1q-56 -3 -94 50q-2 3 -19 34q-66 129 -197 386t-197 385q-16 30 -22 37q-9 10 -20.5 8t-16.5 -15q-4 -10 -4 -47v-729q0 -25 -1 -38q-2 -30 -18 -48.5t-44 -20.5q-40 -4 -99 0q-56 5 -63 64q-1 13 -1 39zM285 1661q9 89 63.5 145.5t134.5 56.5 q57 0 94.5 -10.5t80.5 -46.5h1q42 -37 59 -37q7 0 12 5t6.5 9t1.5 6v1q3 34 18.5 48t63.5 14h14q41 0 59 -20q21 -23 18 -55q-8 -90 -60.5 -146t-132.5 -56q-56 0 -91.5 10t-77.5 44l-5 3q-46 35 -61 35q-23 0 -26 -21q-4 -32 -22 -46t-61 -14h-12q-42 0 -59 19 q-21 24 -18 56z" />
<glyph unicode="&#xd2;" d="M109 409q-3 326 0 652q1 196 166 324q122 95 287.5 104t305.5 -87q183 -135 187 -354v-309l1 -154q0 -154 -1 -154q-1 -170 -111.5 -296.5t-279.5 -148.5q-260 -35 -442 148q-111 113 -113 275zM334 443q-5 -86 43 -143.5t126 -81.5q69 -22 130 -10t106 45.5t70 88.5 t21 119q-3 47 -3 96t1 112.5t1 96.5v270q0 99 -74 167q-76 71 -203 59q-99 -9 -158.5 -73t-59.5 -163v-288v-291v-4zM363 1836q9 25 53 25h22h22h30h22q62 2 84 -56q12 -29 36 -76t36 -83q8 -25 -4.5 -44t-38.5 -22q-35 -4 -73 -1q-21 1 -42 14.5t-33 31.5q-3 4 -16 21 q-114 144 -98 190z" />
<glyph unicode="&#xd3;" d="M109 409q-3 326 0 652q1 196 166 324q122 95 287.5 104t305.5 -87q183 -135 187 -354v-309l1 -154q0 -154 -1 -154q-1 -170 -111.5 -296.5t-279.5 -148.5q-260 -35 -442 148q-111 113 -113 275zM334 443q-5 -86 43 -143.5t126 -81.5q69 -22 130 -10t106 45.5t70 88.5 t21 119q-3 47 -3 96t1 112.5t1 96.5v270q0 99 -74 167q-76 71 -203 59q-99 -9 -158.5 -73t-59.5 -163v-288v-291v-4zM495 1646q12 36 36.5 82.5t36.5 76.5q22 57 83 56h75h22q124 0 -37 -204q-23 -29 -25 -32q-12 -18 -32.5 -31.5t-41.5 -14.5q-39 -3 -74 1q-26 3 -38.5 22 t-4.5 44z" />
<glyph unicode="&#xd4;" d="M109 409q-3 326 0 652q1 196 166 324q122 95 287.5 104t305.5 -87q183 -135 187 -354v-315q0 -2 0.5 -151t-0.5 -151q-1 -170 -111.5 -296.5t-279.5 -148.5q-260 -35 -442 148q-111 113 -113 275zM334 443q-5 -86 43 -143.5t126 -81.5q69 -22 130 -10t106 45.5t70 88.5 t21 119q-3 47 -3 97.5t1 115.5t1 98v264q0 99 -74 167q-76 71 -203 59q-99 -9 -158.5 -73t-59.5 -163v-294v-285v-4zM367 1648q12 34 35.5 80.5t35.5 75.5q23 58 83 57h64h56q61 1 83 -56q12 -30 36.5 -76.5t36.5 -82.5q8 -25 -4.5 -44t-38.5 -22q-39 -4 -84 -1 q-34 2 -62 46q-15 23 -26.5 23.5t-25.5 -21.5q-34 -53 -93 -49h-26t-26 1q-28 4 -40.5 23.5t-3.5 45.5z" />
<glyph unicode="&#xd6;" d="M109 409q-3 326 0 652q1 196 166 324q122 95 287.5 104t305.5 -87q183 -135 187 -354v-309l1 -154q0 -154 -1 -154q-1 -170 -111.5 -296.5t-279.5 -148.5q-260 -35 -442 148q-111 113 -113 275zM274 1664v56v55q2 28 18 46t43 20q53 5 107 0q29 -2 46.5 -20.5t18.5 -47.5 q3 -53 0 -107q-2 -29 -20 -46t-47 -19q-51 -3 -102 0q-27 1 -44.5 18.5t-19.5 44.5zM334 443q-5 -86 43 -143.5t126 -81.5q69 -22 130 -10t106 45.5t70 88.5t21 119q-3 47 -3 99t1 118.5t1 99.5v258q0 99 -74 167q-76 71 -203 59q-99 -9 -158.5 -73t-59.5 -163v-288v-291v-4 zM655 1664v56v55q2 28 18 46t43 20q54 5 107 0q29 -2 46.5 -20.5t18.5 -47.5q3 -53 0 -107q-2 -29 -20 -46t-47 -19q-51 -3 -102 0q-27 1 -44.5 18.5t-19.5 44.5z" />
<glyph unicode="&#xd8;" d="M109 409q-3 326 0 652q1 196 166 324q122 95 287.5 104t305.5 -87q183 -135 187 -354v-309l1 -154q0 -154 -1 -154q-1 -170 -111.5 -296.5t-279.5 -148.5q-260 -35 -442 148q-111 113 -113 275zM267 25q11 42 34 119.5t30 102.5q55 190 172.5 594.5t171.5 594.5 q10 40 22 54q28 34 70 31q15 -1 32 0t32 0q87 -6 64 -88q-15 -55 -53.5 -182t-51.5 -172q-50 -175 -150 -524.5t-150 -524.5q-17 -58 -39 -73.5t-85 -15.5h-19h-19q-38 4 -54.5 26t-6.5 58zM334 443q-5 -86 43 -143.5t126 -81.5q69 -22 130 -10t106 45.5t70 88.5t21 119 q-3 47 -3 96t1 112.5t1 96.5v270q0 99 -74 167q-76 71 -203 59q-99 -9 -158.5 -73t-59.5 -163v-288v-291v-4z" />
<glyph unicode="&#xd9;" horiz-adv-x="1187" d="M120.5 897q0.5 485 0.5 486q0 20 2 30q10 54 64 57q47 2 94 0q60 -3 65 -65q1 -13 1 -39q0 -82 1 -283t0.5 -346.5t-3.5 -282.5q-2 -114 70 -178t173 -69q90 -4 157 43t89 129q7 28 7 85v899q0 61 21 87t86 21q9 -1 27 -1h28q59 -5 64 -62q1 0 1 -20l-1 -19v-476v-453 q-1 -178 -110.5 -304t-285.5 -149q-256 -33 -437 149q-113 115 -113 275q-1 1 -0.5 486zM375 1841q8 26 53 26h22h22h30h22q62 2 84 -56q12 -29 36 -76t36 -83q8 -25 -4.5 -44t-38.5 -22q-29 -3 -73 0q-21 1 -41.5 14t-32.5 31q-3 4 -17 22q-112 142 -98 188z" />
<glyph unicode="&#xda;" horiz-adv-x="1187" d="M120.5 897q0.5 485 0.5 486q0 20 2 30q10 54 64 57q47 2 94 0q60 -3 65 -65q1 -13 1 -39q0 -82 1 -283t0.5 -346.5t-3.5 -282.5q-2 -114 70 -178t173 -69q90 -4 157 43t89 129q7 28 7 85v899q0 61 21 87t86 21q9 -1 27 -1h28q59 -5 64 -62q1 0 1 -20l-1 -19v-470v-459 q-1 -178 -110.5 -304t-285.5 -149q-256 -33 -437 149q-113 115 -113 275q-1 1 -0.5 486zM507 1652q12 36 36.5 82.5t36.5 76.5q22 58 84 56h74h22q124 0 -37 -204q-23 -29 -25 -32q-12 -18 -32.5 -31t-41.5 -14q-44 -3 -74 0q-26 3 -38.5 22t-4.5 44z" />
<glyph unicode="&#xdb;" horiz-adv-x="1187" d="M120.5 897q0.5 485 0.5 486q0 20 2 30q10 54 64 57q47 2 94 0q60 -3 65 -65q1 -13 1 -39q0 -82 1 -283t0.5 -346.5t-3.5 -282.5q-2 -114 70 -178t173 -69q90 -4 157 43t89 129q7 28 7 85v899q0 61 21 87t86 21q9 -1 27 -1h28q59 -5 64 -62q1 0 1 -20l-1 -19v-476v-453 q-1 -178 -110.5 -304t-285.5 -149q-256 -33 -437 149q-113 115 -113 275q-1 1 -0.5 486zM379 1654q12 34 35.5 80.5t35.5 75.5q23 58 83 57h64h56q62 2 84 -56q12 -29 36 -76t36 -83q8 -25 -4.5 -44t-38.5 -22q-34 -4 -84 0q-34 2 -62 45q-15 23 -26.5 23.5t-25.5 -21.5 q-34 -53 -93 -49h-26t-26 1q-28 4 -40.5 23.5t-3.5 45.5z" />
<glyph unicode="&#xdc;" horiz-adv-x="1187" d="M120.5 897q0.5 485 0.5 486q0 20 2 30q10 54 64 57q47 2 94 0q60 -3 65 -65q1 -13 1 -39q0 -82 1 -283t0.5 -346.5t-3.5 -282.5q-2 -114 70 -178t173 -69q90 -4 157 43t89 129q7 28 7 85v899q0 61 21 87t86 21q9 -1 27 -1h28q59 -5 64 -62q1 0 1 -20l-1 -19v-476v-453 q-1 -178 -110.5 -304t-285.5 -149q-256 -33 -437 149q-113 115 -113 275q-1 1 -0.5 486zM286 1726q0 37 1 55q2 28 18 46t43 20q54 5 107 0q28 -2 45 -20.5t19 -47.5q3 -54 0 -107q-5 -62 -66 -65q-51 -3 -103 0q-27 1 -44 18.5t-19 44.5q-1 18 -1 56zM667 1726q0 37 1 55 q2 28 18 46t43 20q53 5 107 0q28 -2 45 -20.5t19 -47.5q3 -54 0 -107q-5 -62 -66 -65q-51 -3 -103 0q-27 1 -44 18.5t-19 44.5q-1 18 -1 56z" />
<glyph unicode="&#xe0;" horiz-adv-x="1228" d="M102 76q57 215 143 530q35 128 105.5 384.5t105.5 384.5q8 33 10 37q24 61 85 61h115q43 -1 66.5 -19t35.5 -60t35 -126.5t34 -126.5q46 -170 138.5 -509t138.5 -508q14 -54 15 -58q5 -25 -8.5 -44t-38.5 -20q-65 -5 -124 1q-52 4 -67 62q-13 50 -37 150q-1 4 -2.5 11 t-3 12.5t-3.5 9.5q-22 53 -75 53h-159h-146q-36 -1 -56 -16.5t-29 -50.5q-3 -13 -39 -158q-11 -40 -32.5 -57.5t-61.5 -17.5q-60 0 -90 1q-35 2 -49.5 21.5t-5.5 52.5zM395 1841q8 26 53 26h22h75q61 1 83 -56q12 -30 36.5 -76.5t36.5 -82.5q8 -25 -4.5 -44t-38.5 -22 q-30 -3 -74 0q-21 1 -41.5 14t-32.5 31q-3 4 -17 22q-112 142 -98 188zM472 611q-13 -52 1.5 -70.5t67.5 -18.5h72q83 0 99 1q28 1 41.5 18t9.5 45q-1 5 -5 20q-19 78 -57.5 235t-57.5 236q-4 18 -8 24q-7 13 -19.5 13t-20.5 -13q-6 -10 -10 -28l-18 -75q-16 -65 -47.5 -194 t-47.5 -193z" />
<glyph unicode="&#xe1;" horiz-adv-x="1228" d="M102 76q57 215 143 530q35 128 105.5 384.5t105.5 384.5q8 33 10 37q24 61 85 61h115q43 -1 66.5 -19t35.5 -60t35 -126.5t34 -126.5q46 -170 138.5 -509t138.5 -508q14 -54 15 -58q5 -25 -8.5 -44t-38.5 -20q-65 -5 -124 1q-52 4 -67 62q-13 50 -37 150q-1 4 -2.5 11 t-3 12.5t-3.5 9.5q-22 53 -75 53h-159h-146q-36 -1 -56 -16.5t-29 -50.5q-3 -13 -39 -158q-11 -40 -32.5 -57.5t-61.5 -17.5q-60 0 -90 1q-35 2 -49.5 21.5t-5.5 52.5zM472 611q-13 -52 1.5 -70.5t67.5 -18.5h72q83 0 99 1q28 1 41.5 18t9.5 45q-1 5 -5 20q-19 78 -57.5 235 t-57.5 236q-4 18 -8 24q-7 13 -19.5 13t-20.5 -13q-6 -10 -10 -28l-18 -75q-16 -65 -47.5 -194t-47.5 -193zM528 1652q12 36 36 83t36 76q22 58 84 56h74h23q124 0 -37 -204q-23 -29 -25 -32q-12 -18 -33 -31t-42 -14q-44 -3 -73 0q-26 3 -38.5 22t-4.5 44z" />
<glyph unicode="&#xe2;" horiz-adv-x="1228" d="M102 76q57 215 143 530q35 128 105.5 384.5t105.5 384.5q8 33 10 37q24 61 85 61h115q43 -1 66.5 -19t35.5 -60t35 -126.5t34 -126.5q46 -170 138.5 -509t138.5 -508q14 -54 15 -58q5 -25 -8.5 -44t-38.5 -20q-65 -5 -124 1q-52 4 -67 62q-13 50 -37 150q-1 4 -2.5 11 t-3 12.5t-3.5 9.5q-22 53 -75 53h-159h-146q-36 -1 -56 -16.5t-29 -50.5q-3 -13 -39 -158q-11 -40 -32.5 -57.5t-61.5 -17.5q-60 0 -90 1q-35 2 -49.5 21.5t-5.5 52.5zM400 1654q12 34 35.5 80.5t35.5 75.5q23 58 83 57h63h56q62 2 84 -56q12 -29 36 -76t36 -83 q8 -25 -4 -44t-38 -22q-34 -4 -84 0q-34 2 -62 45q-15 23 -26.5 23.5t-25.5 -21.5q-34 -53 -94 -49h-26t-26 1q-28 4 -40 23.5t-3 45.5zM472 611q-13 -52 1.5 -70.5t67.5 -18.5h72q83 0 99 1q28 1 41.5 18t9.5 45q-1 5 -5 20q-19 78 -57.5 235t-57.5 236q-4 18 -8 24 q-7 13 -19.5 13t-20.5 -13q-6 -10 -10 -28l-18 -75q-16 -65 -47.5 -194t-47.5 -193z" />
<glyph unicode="&#xe4;" horiz-adv-x="1228" d="M102 76q57 215 143 530q35 128 105.5 384.5t105.5 384.5q8 33 10 37q24 61 85 61h115q43 -1 66.5 -19t35.5 -60t35 -126.5t34 -126.5q46 -170 138.5 -509t138.5 -508q14 -54 15 -58q5 -25 -8.5 -44t-38.5 -20q-65 -5 -124 1q-52 4 -67 62q-13 50 -37 150q-1 4 -2.5 11 t-3 12.5t-3.5 9.5q-22 53 -75 53h-159h-146q-36 -1 -56 -16.5t-29 -50.5q-3 -13 -39 -158q-11 -40 -32.5 -57.5t-61.5 -17.5q-60 0 -90 1q-35 2 -49.5 21.5t-5.5 52.5zM307 1670v17.5v21v17.5v55q2 28 18 46t43 20q53 5 107 0q29 -2 46.5 -20.5t18.5 -47.5q3 -54 0 -107 q-2 -29 -20 -46t-47 -19q-52 -3 -103 0q-27 1 -44 18.5t-19 44.5zM472 611q-13 -52 1.5 -70.5t67.5 -18.5h72q83 0 99 1q28 1 41.5 18t9.5 45q-1 5 -5 20q-19 78 -57.5 235t-57.5 236q-4 18 -8 24q-7 13 -19.5 13t-20.5 -13q-6 -10 -10 -28l-18 -75q-16 -65 -47.5 -194 t-47.5 -193zM688 1670v17.5v21v17.5v17.5v20.5v17q2 28 18 46t43 20q53 5 107 0q29 -2 46.5 -20.5t18.5 -47.5q3 -54 0 -107q-2 -29 -20 -46t-47 -19q-51 -3 -103 0q-27 1 -44 18.5t-19 44.5z" />
<glyph unicode="&#xe6;" horiz-adv-x="1486" d="M102 74q57 215 143 530q35 128 105.5 384.5t105.5 384.5q8 33 10 37q24 61 85 61h115h63h548q24 0 35 -1q60 -8 63 -68q1 -45 0 -90q-2 -27 -18 -44.5t-43 -21.5q-7 -1 -43 -1h-334q-46 0 -63 -16.5t-17 -62.5v-77v-90.5v-76.5q0 -40 17.5 -58t58.5 -18h136 q50 0 69.5 -19t20.5 -71v-60q-3 -76 -78 -77q-11 -1 -83 -0.5t-82 0.5h-3q14 0 5 -1q-57 -3 -60 -58q-1 -15 -1 -90v-172q0 -43 17.5 -60.5t59.5 -17.5h343q25 0 38 -1q25 -2 41.5 -17.5t17.5 -39.5q3 -51 0 -103q-3 -54 -61 -59q-9 -1 -26 -1h-565q-51 0 -71 19.5t-20 70.5 v160q0 21 -14.5 36t-35.5 15h-116q-68 -1 -85 -68q-3 -13 -39 -158q-11 -40 -32.5 -57t-61.5 -17h-90q-35 2 -49.5 21.5t-5.5 52.5zM472 610q-13 -53 1.5 -71.5t67.5 -18.5q5 0 23 0.5t28 0.5q16 0 27.5 11t11.5 27v177v354q0 15 -14.5 19t-21.5 -9q-6 -10 -10 -29 q-3 -13 -9 -37.5t-9 -36.5q-16 -65 -47.5 -194t-47.5 -193z" />
<glyph unicode="&#xe7;" horiz-adv-x="1103" d="M104 428q0 3 1.5 298.5t-1.5 298.5q-2 84 23.5 157.5t70.5 127t101.5 91.5t121.5 58q289 90 521 -104q16 -13 30 -30q44 -52 -7 -96q-32 -28 -72 -55q-42 -30 -87 2q-4 2 -10.5 7.5t-9.5 8.5q-153 120 -330 39q-127 -58 -126 -197q1 -3 0.5 -148t-0.5 -148v-296 q0 -99 56 -161.5t155 -75.5q149 -19 255 74q30 27 51.5 27t54.5 -24q44 -32 64 -50q21 -19 22 -47t-18 -49q-118 -131 -307 -155q-1 0 -5 -0.5t-5 -0.5q-10 -2 -4 -10l17 -21q41 -55 41 -133q0 -80 -56 -132t-146 -60q-32 -3 -55 18q-20 18 -20 59v13q0 48 14 64t48 19h1 q2 0 6 1t9 6t5 12q0 18 -37 60v1q-47 57 -54 102q-3 24 -25 32q-30 12 -50 23q-243 130 -243 394z" />
<glyph unicode="&#xe8;" horiz-adv-x="1064" d="M129 88v648v626q0 35 1 42q6 60 67 66q10 1 30 1h630q24 0 35 -1q60 -8 63 -68q1 -45 0 -90q-2 -27 -18 -44.5t-43 -21.5q-7 -1 -43 -1q-69 0 -208 -0.5t-208 -0.5q-46 0 -63 -16.5t-17 -61.5v-244q0 -40 17.5 -58t58.5 -18h218q50 0 69.5 -19t20.5 -71l1 -30 q0 -30 -1 -30q-3 -76 -78 -77q-69 -1 -206 -1h-19q-19 1 -19 0q-58 -3 -61 -59q-1 -15 -1 -90v-171q0 -43 17.5 -60.5t59.5 -17.5h425q25 0 38 -1q25 -2 41.5 -17.5t17.5 -39.5q4 -60 1 -103q-1 -26 -18 -41.5t-44 -17.5q-9 -1 -26 -1h-647q-51 0 -71 19t-20 70zM324 1842 q9 25 53 25h22h22h30h22q62 2 84 -56q12 -29 36 -76t36 -83q8 -25 -4.5 -44t-38.5 -22q-29 -3 -73 0q-21 1 -42 14t-33 31q-3 4 -16 21q-114 144 -98 190z" />
<glyph unicode="&#xe9;" horiz-adv-x="1064" d="M129 88v648v626q0 35 1 42q6 60 67 66q10 1 30 1h630q24 0 35 -1q60 -8 63 -68q1 -45 0 -90q-2 -27 -18 -44.5t-43 -21.5q-7 -1 -43 -1q-69 0 -208 -0.5t-208 -0.5q-46 0 -63 -16.5t-17 -61.5v-244q0 -40 17.5 -58t58.5 -18h218q50 0 69.5 -19t20.5 -71l1 -30 q0 -30 -1 -30q-3 -76 -78 -77q-69 -1 -206 -1h-19q-19 1 -19 0q-58 -3 -61 -59q-1 -15 -1 -90v-171q0 -43 17.5 -60.5t59.5 -17.5h425q25 0 38 -1q25 -2 41.5 -17.5t17.5 -39.5q4 -60 1 -103q-1 -26 -18 -41.5t-44 -17.5q-9 -1 -26 -1h-647q-51 0 -71 19t-20 70zM456 1652 q12 36 36.5 82.5t36.5 76.5q22 57 83 56h75h22q124 0 -37 -204q-23 -29 -25 -32q-12 -18 -32.5 -31t-41.5 -14q-44 -3 -74 0q-26 3 -38.5 22t-4.5 44z" />
<glyph unicode="&#xea;" horiz-adv-x="1064" d="M129 88v648v626q0 35 1 42q6 60 67 66q10 1 30 1h630q24 0 35 -1q60 -8 63 -68q1 -45 0 -90q-2 -27 -18 -44.5t-43 -21.5q-7 -1 -43 -1q-69 0 -208 -0.5t-208 -0.5q-46 0 -63 -16.5t-17 -61.5v-244q0 -40 17.5 -58t58.5 -18h218q50 0 69.5 -19t20.5 -71l1 -30 q0 -30 -1 -30q-3 -76 -78 -77q-69 -1 -206 -1h-19q-19 1 -19 0q-58 -3 -61 -59q-1 -15 -1 -90v-171q0 -43 17.5 -60.5t59.5 -17.5h425q25 0 38 -1q25 -2 41.5 -17.5t17.5 -39.5q4 -60 1 -103q-1 -26 -18 -41.5t-44 -17.5q-9 -1 -26 -1h-647q-51 0 -71 19t-20 70zM328 1654 q12 34 35.5 80.5t35.5 75.5q23 58 83 57h64h56q61 1 83 -56q12 -30 36.5 -76.5t36.5 -82.5q8 -25 -4.5 -44t-38.5 -22q-34 -4 -84 0q-34 2 -62 45q-15 23 -26.5 23.5t-25.5 -21.5q-34 -53 -93 -49h-26t-26 1q-28 4 -40.5 23.5t-3.5 45.5z" />
<glyph unicode="&#xeb;" horiz-adv-x="1064" d="M129 88v648v626q0 35 1 42q6 60 67 66q10 1 30 1h630q24 0 35 -1q60 -8 63 -68q1 -45 0 -90q-2 -27 -18 -44.5t-43 -21.5q-7 -1 -43 -1q-69 0 -208 -0.5t-208 -0.5q-46 0 -63 -16.5t-17 -61.5v-244q0 -40 17.5 -58t58.5 -18h218q50 0 69.5 -19t20.5 -71l1 -30 q0 -30 -1 -30q-3 -76 -78 -77q-69 -1 -206 -1h-19q-19 1 -19 0q-58 -3 -61 -59q-1 -15 -1 -90v-171q0 -43 17.5 -60.5t59.5 -17.5h425q25 0 38 -1q25 -2 41.5 -17.5t17.5 -39.5q4 -60 1 -103q-1 -26 -18 -41.5t-44 -17.5q-9 -1 -26 -1h-647q-51 0 -71 19t-20 70zM235 1726 v55q2 28 18.5 46t43.5 20q53 5 106 0q29 -2 46.5 -20.5t18.5 -47.5q3 -54 0 -107q-2 -29 -20 -46t-47 -19q-51 -3 -102 0q-27 1 -44 18.5t-19 44.5q-1 18 -1 56zM616 1670v17.5v21v17.5v17.5v20.5v17q2 28 18.5 46t43.5 20q53 5 106 0q29 -2 46.5 -20.5t18.5 -47.5 q3 -54 0 -107q-2 -29 -20 -46t-47 -19q-51 -3 -102 0q-27 1 -44.5 18.5t-19.5 44.5z" />
<glyph unicode="&#xec;" horiz-adv-x="491" d="M27 1842q9 25 53 25h22h22h30h22q62 2 84 -56q12 -29 36 -76t36 -83q8 -25 -4.5 -44t-38.5 -22q-29 -3 -73 0q-21 1 -42 14t-33 31q-3 4 -16 21q-114 144 -98 190zM133 68v39v630v626v38q3 65 67 70q45 3 90 0q62 -5 68 -69v-39q0 -837 1 -1256q0 -60 -20.5 -86.5 t-87.5 -20.5h-26h-25q-64 3 -67 68z" />
<glyph unicode="&#xed;" horiz-adv-x="491" d="M133 68v39v630v626v38q3 65 67 70q45 3 90 0q62 -5 68 -69v-39q0 -837 1 -1256q0 -60 -20.5 -86.5t-87.5 -20.5h-26h-25q-64 3 -67 68zM159 1652q12 36 36.5 82.5t36.5 76.5q22 57 83 56h75h22q124 0 -37 -204q-23 -29 -25 -32q-12 -18 -32.5 -31t-41.5 -14q-44 -3 -74 0 q-26 3 -38.5 22t-4.5 44z" />
<glyph unicode="&#xee;" horiz-adv-x="491" d="M31 1654q12 34 35.5 80.5t35.5 75.5q23 58 83 57h64h56q61 1 83 -56q12 -30 36.5 -76.5t36.5 -82.5q8 -25 -4.5 -44t-38.5 -22q-34 -4 -84 0q-34 2 -62 45q-15 23 -26.5 23.5t-25.5 -21.5q-34 -53 -93 -49h-26t-26 1q-28 4 -40.5 23.5t-3.5 45.5zM133 68v39v630v626v38 q3 65 67 70q45 3 90 0q62 -5 68 -69v-39q0 -837 1 -1256q0 -60 -20.5 -86.5t-87.5 -20.5h-26h-25q-64 3 -67 68z" />
<glyph unicode="&#xef;" horiz-adv-x="491" d="M-62 1726q0 37 1 55q2 28 18 46t43 20q53 5 106 0q29 -2 46.5 -20.5t18.5 -47.5q3 -53 0 -107q-5 -62 -66 -65q-51 -3 -103 0q-27 1 -44 18.5t-19 44.5q-1 18 -1 56zM133 68v39v630v626v38q3 65 67 70q45 3 90 0q62 -5 68 -69v-39q0 -837 1 -1256q0 -60 -20.5 -86.5 t-87.5 -20.5h-26h-25q-64 3 -67 68zM319 1670v17.5v21v17.5v55q2 28 18.5 46t43.5 20q53 5 106 0q29 -2 46.5 -20.5t18.5 -47.5q3 -54 0 -107q-2 -29 -20 -46t-47 -19q-51 -3 -102 0q-27 1 -44.5 18.5t-19.5 44.5z" />
<glyph unicode="&#xf1;" horiz-adv-x="1193" d="M125 106v1264v35q6 67 72 68h43.5t42.5 1q50 3 85 -42q10 -12 24 -40q65 -126 194.5 -379t194.5 -380q17 -33 22 -42q10 -14 26 -10q13 4 15 19q1 14 1 43l1 363q0 362 -1 362q0 58 20.5 84.5t84.5 21.5h28t28 -1q60 -3 65 -65q1 0 1 -20l-1 -19v-630v-626v-34 q-1 -74 -77 -77h-36.5t-36.5 -1q-56 -3 -94 50q-2 3 -19 34q-66 129 -197 386t-197 385q-16 30 -22 37q-9 10 -20.5 8t-16.5 -15q-4 -10 -4 -47v-729q0 -25 -1 -38q-2 -30 -18 -48.5t-44 -20.5q-40 -4 -99 0q-56 5 -63 64q-1 13 -1 39zM285 1661q9 89 63.5 145.5t134.5 56.5 q57 0 94.5 -10.5t80.5 -46.5h1q42 -37 59 -37q7 0 12 5t6.5 9t1.5 6v1q3 34 18.5 48t63.5 14h14q41 0 59 -20q21 -23 18 -55q-8 -90 -60.5 -146t-132.5 -56q-56 0 -91.5 10t-77.5 44l-5 3q-46 35 -61 35q-23 0 -26 -21q-4 -32 -22 -46t-61 -14h-12q-42 0 -59 19 q-21 24 -18 56z" />
<glyph unicode="&#xf2;" d="M109 409q-3 326 0 652q1 196 166 324q122 95 287.5 104t305.5 -87q183 -135 187 -354v-309l1 -154q0 -154 -1 -154q-1 -170 -111.5 -296.5t-279.5 -148.5q-260 -35 -442 148q-111 113 -113 275zM334 443q-5 -86 43 -143.5t126 -81.5q69 -22 130 -10t106 45.5t70 88.5 t21 119q-3 47 -3 96t1 112.5t1 96.5v270q0 99 -74 167q-76 71 -203 59q-99 -9 -158.5 -73t-59.5 -163v-288v-291v-4zM363 1836q9 25 53 25h22h22h30h22q62 2 84 -56q12 -29 36 -76t36 -83q8 -25 -4.5 -44t-38.5 -22q-35 -4 -73 -1q-21 1 -42 14.5t-33 31.5q-3 4 -16 21 q-114 144 -98 190z" />
<glyph unicode="&#xf3;" d="M109 409q-3 326 0 652q1 196 166 324q122 95 287.5 104t305.5 -87q183 -135 187 -354v-309l1 -154q0 -154 -1 -154q-1 -170 -111.5 -296.5t-279.5 -148.5q-260 -35 -442 148q-111 113 -113 275zM334 443q-5 -86 43 -143.5t126 -81.5q69 -22 130 -10t106 45.5t70 88.5 t21 119q-3 47 -3 96t1 112.5t1 96.5v270q0 99 -74 167q-76 71 -203 59q-99 -9 -158.5 -73t-59.5 -163v-288v-291v-4zM495 1646q12 36 36.5 82.5t36.5 76.5q22 57 83 56h75h22q124 0 -37 -204q-23 -29 -25 -32q-12 -18 -32.5 -31.5t-41.5 -14.5q-39 -3 -74 1q-26 3 -38.5 22 t-4.5 44z" />
<glyph unicode="&#xf4;" d="M109 409q-3 326 0 652q1 196 166 324q122 95 287.5 104t305.5 -87q183 -135 187 -354v-315q0 -2 0.5 -151t-0.5 -151q-1 -170 -111.5 -296.5t-279.5 -148.5q-260 -35 -442 148q-111 113 -113 275zM334 443q-5 -86 43 -143.5t126 -81.5q69 -22 130 -10t106 45.5t70 88.5 t21 119q-3 47 -3 97.5t1 115.5t1 98v264q0 99 -74 167q-76 71 -203 59q-99 -9 -158.5 -73t-59.5 -163v-294v-285v-4zM367 1648q12 34 35.5 80.5t35.5 75.5q23 58 83 57h64h56q61 1 83 -56q12 -30 36.5 -76.5t36.5 -82.5q8 -25 -4.5 -44t-38.5 -22q-39 -4 -84 -1 q-34 2 -62 46q-15 23 -26.5 23.5t-25.5 -21.5q-34 -53 -93 -49h-26t-26 1q-28 4 -40.5 23.5t-3.5 45.5z" />
<glyph unicode="&#xf5;" horiz-adv-x="716" />
<glyph unicode="&#xf6;" d="M109 409q-3 326 0 652q1 196 166 324q122 95 287.5 104t305.5 -87q183 -135 187 -354v-309l1 -154q0 -154 -1 -154q-1 -170 -111.5 -296.5t-279.5 -148.5q-260 -35 -442 148q-111 113 -113 275zM274 1664v56v55q2 28 18 46t43 20q53 5 107 0q29 -2 46.5 -20.5t18.5 -47.5 q3 -53 0 -107q-2 -29 -20 -46t-47 -19q-51 -3 -102 0q-27 1 -44.5 18.5t-19.5 44.5zM334 443q-5 -86 43 -143.5t126 -81.5q69 -22 130 -10t106 45.5t70 88.5t21 119q-3 47 -3 99t1 118.5t1 99.5v258q0 99 -74 167q-76 71 -203 59q-99 -9 -158.5 -73t-59.5 -163v-288v-291v-4 zM655 1664v56v55q2 28 18 46t43 20q54 5 107 0q29 -2 46.5 -20.5t18.5 -47.5q3 -53 0 -107q-2 -29 -20 -46t-47 -19q-51 -3 -102 0q-27 1 -44.5 18.5t-19.5 44.5z" />
<glyph unicode="&#xf8;" d="M109 409q-3 326 0 652q1 196 166 324q122 95 287.5 104t305.5 -87q183 -135 187 -354v-309l1 -154q0 -154 -1 -154q-1 -170 -111.5 -296.5t-279.5 -148.5q-260 -35 -442 148q-111 113 -113 275zM267 25q11 42 34 119.5t30 102.5q55 190 172.5 594.5t171.5 594.5 q10 40 22 54q28 34 70 31q15 -1 32 0t32 0q87 -6 64 -88q-15 -55 -53.5 -182t-51.5 -172q-50 -175 -150 -524.5t-150 -524.5q-17 -58 -39 -73.5t-85 -15.5h-19h-19q-38 4 -54.5 26t-6.5 58zM334 443q-5 -86 43 -143.5t126 -81.5q69 -22 130 -10t106 45.5t70 88.5t21 119 q-3 47 -3 96t1 112.5t1 96.5v270q0 99 -74 167q-76 71 -203 59q-99 -9 -158.5 -73t-59.5 -163v-288v-291v-4z" />
<glyph unicode="&#xf9;" horiz-adv-x="1187" d="M120.5 897q0.5 485 0.5 486q0 20 2 30q10 54 64 57q47 2 94 0q60 -3 65 -65q1 -13 1 -39q0 -82 1 -283t0.5 -346.5t-3.5 -282.5q-2 -114 70 -178t173 -69q90 -4 157 43t89 129q7 28 7 85v899q0 61 21 87t86 21q9 -1 27 -1h28q59 -5 64 -62q1 0 1 -20l-1 -19v-476v-453 q-1 -178 -110.5 -304t-285.5 -149q-256 -33 -437 149q-113 115 -113 275q-1 1 -0.5 486zM375 1841q8 26 53 26h22h22h30h22q62 2 84 -56q12 -29 36 -76t36 -83q8 -25 -4.5 -44t-38.5 -22q-29 -3 -73 0q-21 1 -41.5 14t-32.5 31q-3 4 -17 22q-112 142 -98 188z" />
<glyph unicode="&#xfa;" horiz-adv-x="1187" d="M120.5 897q0.5 485 0.5 486q0 20 2 30q10 54 64 57q47 2 94 0q60 -3 65 -65q1 -13 1 -39q0 -82 1 -283t0.5 -346.5t-3.5 -282.5q-2 -114 70 -178t173 -69q90 -4 157 43t89 129q7 28 7 85v899q0 61 21 87t86 21q9 -1 27 -1h28q59 -5 64 -62q1 0 1 -20l-1 -19v-470v-459 q-1 -178 -110.5 -304t-285.5 -149q-256 -33 -437 149q-113 115 -113 275q-1 1 -0.5 486zM507 1652q12 36 36.5 82.5t36.5 76.5q22 58 84 56h74h22q124 0 -37 -204q-23 -29 -25 -32q-12 -18 -32.5 -31t-41.5 -14q-44 -3 -74 0q-26 3 -38.5 22t-4.5 44z" />
<glyph unicode="&#xfb;" horiz-adv-x="1187" d="M120.5 897q0.5 485 0.5 486q0 20 2 30q10 54 64 57q47 2 94 0q60 -3 65 -65q1 -13 1 -39q0 -82 1 -283t0.5 -346.5t-3.5 -282.5q-2 -114 70 -178t173 -69q90 -4 157 43t89 129q7 28 7 85v899q0 61 21 87t86 21q9 -1 27 -1h28q59 -5 64 -62q1 0 1 -20l-1 -19v-476v-453 q-1 -178 -110.5 -304t-285.5 -149q-256 -33 -437 149q-113 115 -113 275q-1 1 -0.5 486zM379 1654q12 34 35.5 80.5t35.5 75.5q23 58 83 57h64h56q62 2 84 -56q12 -29 36 -76t36 -83q8 -25 -4.5 -44t-38.5 -22q-34 -4 -84 0q-34 2 -62 45q-15 23 -26.5 23.5t-25.5 -21.5 q-34 -53 -93 -49h-26t-26 1q-28 4 -40.5 23.5t-3.5 45.5z" />
<glyph unicode="&#xfc;" horiz-adv-x="1187" d="M120.5 897q0.5 485 0.5 486q0 20 2 30q10 54 64 57q47 2 94 0q60 -3 65 -65q1 -13 1 -39q0 -82 1 -283t0.5 -346.5t-3.5 -282.5q-2 -114 70 -178t173 -69q90 -4 157 43t89 129q7 28 7 85v899q0 61 21 87t86 21q9 -1 27 -1h28q59 -5 64 -62q1 0 1 -20l-1 -19v-476v-453 q-1 -178 -110.5 -304t-285.5 -149q-256 -33 -437 149q-113 115 -113 275q-1 1 -0.5 486zM286 1726q0 37 1 55q2 28 18 46t43 20q54 5 107 0q28 -2 45 -20.5t19 -47.5q3 -54 0 -107q-5 -62 -66 -65q-51 -3 -103 0q-27 1 -44 18.5t-19 44.5q-1 18 -1 56zM667 1726q0 37 1 55 q2 28 18 46t43 20q53 5 107 0q28 -2 45 -20.5t19 -47.5q3 -54 0 -107q-5 -62 -66 -65q-51 -3 -103 0q-27 1 -44 18.5t-19 44.5q-1 18 -1 56z" />
<glyph unicode="&#x2000;" horiz-adv-x="933" />
<glyph unicode="&#x2001;" horiz-adv-x="1867" />
<glyph unicode="&#x2002;" horiz-adv-x="933" />
<glyph unicode="&#x2003;" horiz-adv-x="1867" />
<glyph unicode="&#x2004;" horiz-adv-x="622" />
<glyph unicode="&#x2005;" horiz-adv-x="466" />
<glyph unicode="&#x2006;" horiz-adv-x="311" />
<glyph unicode="&#x2007;" horiz-adv-x="311" />
<glyph unicode="&#x2008;" horiz-adv-x="233" />
<glyph unicode="&#x2009;" horiz-adv-x="373" />
<glyph unicode="&#x200a;" horiz-adv-x="103" />
<glyph unicode="&#x2010;" horiz-adv-x="655" d="M108 702q-2 49 0 73q5 71 74 73h295q32 -1 50 -19.5t20 -51.5q2 -54 1 -81q-3 -70 -73 -72q-49 -1 -145 -1h-142q-40 1 -59 20t-21 59z" />
<glyph unicode="&#x2011;" horiz-adv-x="655" d="M108 702q-2 49 0 73q5 71 74 73h295q32 -1 50 -19.5t20 -51.5q2 -54 1 -81q-3 -70 -73 -72q-49 -1 -145 -1h-142q-40 1 -59 20t-21 59z" />
<glyph unicode="&#x2012;" horiz-adv-x="655" d="M108 702q-2 49 0 73q5 71 74 73h295q32 -1 50 -19.5t20 -51.5q2 -54 1 -81q-3 -70 -73 -72q-49 -1 -145 -1h-142q-40 1 -59 20t-21 59z" />
<glyph unicode="&#x2013;" horiz-adv-x="1237" d="M109 702q-4 49 0 73q12 71 172 73h684q75 -1 116.5 -19.5t46.5 -51.5q5 -54 2 -81q-7 -70 -169 -72q-114 -1 -337 -1h-329q-93 1 -137 20t-49 59z" />
<glyph unicode="&#x2014;" horiz-adv-x="2261" d="M112 702q-10 49 0 73q23 71 343 73h1369q148 -1 232 -19.5t93 -51.5q9 -54 4 -81q-13 -70 -338 -72q-228 -1 -673 -1h-659q-186 1 -274 20t-97 59z" />
<glyph unicode="&#x201c;" horiz-adv-x="780" d="M132 1316q1 8 1 77q1 43 19.5 62.5t60.5 20.5h34h43q73 -5 76 -76q3 -44 1 -99q-3 -83 22 -152q11 -32 10 -45q-2 -21 -15.5 -29.5t-32.5 0.5q-9 4 -25 16q-22 16 -65.5 49t-65.5 49q-71 53 -63 127zM419 1316q1 11 1 24t-0.5 28.5t-0.5 24.5q1 43 20 62t61 21h34h43 q73 -5 76 -76q2 -33 0 -99q-3 -81 23 -152q11 -32 10 -45q-2 -21 -15.5 -29.5t-32.5 0.5q-9 4 -25 16q-22 16 -65.5 49t-65.5 49q-71 53 -63 127z" />
<glyph unicode="&#x201d;" horiz-adv-x="780" d="M95 1116q1 11 7 29q31 80 26 193q-2 34 0 69q2 29 19 47.5t45 20.5q51 5 102 0q62 -5 67 -71q1 -10 1 -59v-39q1 -67 -51 -107q-22 -17 -158 -117q-27 -19 -43 -8q-19 12 -15 42zM382 1117q2 17 4 21q35 88 28 231q-4 65 22.5 88t85.5 19h27.5t27.5 -1q66 -6 71 -71 q2 0 1 -30l-1 -30h1v-39q1 -66 -52 -107q-22 -17 -158 -117q-26 -18 -43 -7q-18 12 -14 43z" />
<glyph unicode="&#x202f;" horiz-adv-x="373" />
<glyph unicode="&#x205f;" horiz-adv-x="466" />
<glyph unicode="&#x25fc;" horiz-adv-x="1474" d="M0 0v1475h1475v-1475h-1475z" />
</font>
</defs>
</svg>
